<?xml version="1.0" encoding="UTF-8" standalone="no"?>
<svg
   xmlns:dc="http://purl.org/dc/elements/1.1/"
   xmlns:cc="http://creativecommons.org/ns#"
   xmlns:rdf="http://www.w3.org/1999/02/22-rdf-syntax-ns#"
   xmlns:svg="http://www.w3.org/2000/svg"
   xmlns="http://www.w3.org/2000/svg"
   xmlns:sodipodi="http://sodipodi.sourceforge.net/DTD/sodipodi-0.dtd"
   xmlns:inkscape="http://www.inkscape.org/namespaces/inkscape"
   version="1.1"
   id="svg2"
   xml:space="preserve"
   width="5333.3335"
   height="5333.3335"
   viewBox="0 0 5333.3335 5333.3335"
   sodipodi:docname="Astronaut.ai"><metadata
     id="metadata8"><rdf:RDF><cc:Work
         rdf:about=""><dc:format>image/svg+xml</dc:format><dc:type
           rdf:resource="http://purl.org/dc/dcmitype/StillImage" /></cc:Work></rdf:RDF></metadata><defs
     id="defs6"><clipPath
       clipPathUnits="userSpaceOnUse"
       id="clipPath18"><path
         d="M 0,4000 H 4000 V 0 H 0 Z"
         id="path16" /></clipPath><clipPath
       clipPathUnits="userSpaceOnUse"
       id="clipPath34"><path
         d="M 884.831,2509.4 H 1637.28 V 1800.53 H 884.831 Z"
         id="path32" /></clipPath><clipPath
       clipPathUnits="userSpaceOnUse"
       id="clipPath78"><path
         d="m 2072.11,2192.01 h 568.82 V 1105.44 h -568.82 z"
         id="path76" /></clipPath><clipPath
       clipPathUnits="userSpaceOnUse"
       id="clipPath102"><path
         d="M 1022.17,2181.08 H 3116.46 V 389.94 H 1022.17 Z"
         id="path100" /></clipPath><clipPath
       clipPathUnits="userSpaceOnUse"
       id="clipPath118"><path
         d="M 466.258,1432.17 H 1692.95 V 894.949 H 466.258 Z"
         id="path116" /></clipPath><clipPath
       clipPathUnits="userSpaceOnUse"
       id="clipPath174"><path
         d="m 1342.34,2521.81 h 214.88 V 2255.9 h -214.88 z"
         id="path172" /></clipPath><clipPath
       clipPathUnits="userSpaceOnUse"
       id="clipPath198"><path
         d="m 2510.51,2521.81 h 214.88 V 2255.9 h -214.88 z"
         id="path196" /></clipPath><clipPath
       clipPathUnits="userSpaceOnUse"
       id="clipPath222"><path
         d="m 1559.8,2153.5 h 474.06 V 1952.41 H 1559.8 Z"
         id="path220" /></clipPath><clipPath
       clipPathUnits="userSpaceOnUse"
       id="clipPath238"><path
         d="m 2033.86,2153.5 h 474.07 v -201.09 h -474.07 z"
         id="path236" /></clipPath><clipPath
       clipPathUnits="userSpaceOnUse"
       id="clipPath262"><path
         d="M 1473.79,2914.11 H 2637.38 V 1994.98 H 1473.79 Z"
         id="path260" /></clipPath><clipPath
       clipPathUnits="userSpaceOnUse"
       id="clipPath286"><path
         d="m 1522.45,2824.55 h 1001.22 v -525.7 H 1522.45 Z"
         id="path284" /></clipPath><clipPath
       clipPathUnits="userSpaceOnUse"
       id="clipPath310"><path
         d="m 2939.22,2908.83 h 195.59 V 1651.28 h -195.59 z"
         id="path308" /></clipPath><clipPath
       clipPathUnits="userSpaceOnUse"
       id="clipPath334"><path
         d="m 2980.2,2953.3 h 803.53 V 2428.46 H 2980.2 Z"
         id="path332" /></clipPath><clipPath
       clipPathUnits="userSpaceOnUse"
       id="clipPath354"><path
         d="m 3021.81,2783.25 h 761.92 v -354.79 h -761.92 z"
         id="path352" /></clipPath><clipPath
       clipPathUnits="userSpaceOnUse"
       id="clipPath398"><path
         d="m 2956.62,2191.79 h 171.74 v -346.62 h -171.74 z"
         id="path396" /></clipPath><clipPath
       clipPathUnits="userSpaceOnUse"
       id="clipPath434"><path
         d="m 1369.84,1759.44 h 161.98 v -103.75 h -161.98 z"
         id="path432" /></clipPath><clipPath
       clipPathUnits="userSpaceOnUse"
       id="clipPath458"><path
         d="m 1452.34,1744.33 h 690.42 v -444.74 h -690.42 z"
         id="path456" /></clipPath><clipPath
       clipPathUnits="userSpaceOnUse"
       id="clipPath510"><path
         d="m 2057.62,1506.68 h 306.22 v -259.16 h -306.22 z"
         id="path508" /></clipPath></defs><sodipodi:namedview
     pagecolor="#ffffff"
     bordercolor="#666666"
     borderopacity="1"
     objecttolerance="10"
     gridtolerance="10"
     guidetolerance="10"
     inkscape:pageopacity="0"
     inkscape:pageshadow="2"
     inkscape:window-width="640"
     inkscape:window-height="480"
     id="namedview4" /><g
     id="g10"
     inkscape:groupmode="layer"
     inkscape:label="Astronaut"
     transform="matrix(1.3333333,0,0,-1.3333333,0,5333.3333)"><g
       id="g12"><g
         id="g14"
         clip-path="url(#clipPath18)"><g
           id="g20"
           transform="translate(1637.2552,2004.5638)"><path
             d="m 0,0 c -1.739,-113.671 -36.267,-256.554 -212.486,-184.615 -277.271,113.124 -369.529,338.229 -369.529,338.229 -90.47,41.534 -123.756,131.457 -123.756,131.457 0,0 -20.32,-7.304 -41.682,0.795 -15.352,5.812 -31.2,19.524 -40.54,49.532 -22.357,71.839 23.946,97.425 23.946,97.425 7.204,69.454 50.277,60.661 50.277,60.661 -41.483,142.932 10.98,149.341 29.561,144.522 24.741,-6.409 53.506,-97.425 53.506,-97.425 0,0 -10.383,89.426 18.382,115.807 14.358,13.166 26.331,11.377 34.727,6.26 7.8,-4.72 12.967,-12.818 15.153,-21.711 13.464,-53.556 31.945,-102.442 51.222,-144.473 10.731,-23.449 21.71,-44.762 32.143,-63.641 32.492,-58.674 59.965,-93.451 59.965,-93.451 C -281.196,230.67 -170.208,175.275 -98.617,147.454 -63.542,133.841 -35.621,108.305 -18.63,76.559 -6.21,53.556 0.447,27.275 0,0"
             style="fill:#ffffff;fill-opacity:1;fill-rule:nonzero;stroke:none"
             id="path22" /></g><g
           id="g24"
           transform="translate(931.3926,2306.9988)"><path
             d="m 0,0 c 7.112,0 13.826,-4.321 16.411,-11.313 0.301,-0.801 32.202,-83.848 114.702,-121.7 4.009,-1.841 7.168,-5.132 8.838,-9.214 0.896,-2.168 93.282,-219.912 359.978,-328.745 55.498,-22.646 98.929,-24.028 129.08,-4.101 47.446,31.357 58.54,111.328 59.492,172.895 0.891,57.7 -34.289,110.347 -87.539,131.006 -70.374,27.305 -183.879,83.213 -324.983,194.473 -1.067,0.84 -2.034,1.806 -2.876,2.871 -4.143,5.244 -101.929,130.395 -146.523,308.105 -1.246,4.966 -3.924,9.004 -7.349,11.084 -2.1,1.265 -5.615,3.399 -13.96,-4.243 C 90.01,327.129 88.574,273.657 92.429,240.156 c 1.026,-8.901 -4.88,-17.124 -13.642,-18.994 -8.76,-1.904 -17.51,3.213 -20.21,11.758 -12.886,40.747 -32.254,80.64 -41.665,85.908 -2.105,0.469 -8.885,1.431 -13.997,-3.838 -5.181,-5.342 -20.066,-29.707 5.901,-119.092 1.743,-6.001 0.571,-12.578 -3.782,-17.06 -4.355,-4.487 -10.339,-6.397 -16.389,-4.824 0.056,-0.079 -0.383,0.044 -1.123,0.044 -2.178,0 -7.187,-0.459 -12.1,-4.278 -8.571,-6.66 -14.211,-20.903 -16.311,-41.196 -0.586,-5.669 -3.908,-10.688 -8.894,-13.438 -3.234,-1.923 -33.032,-21.479 -15.752,-77.021 5.73,-18.423 14.583,-30.786 26.309,-36.753 15.967,-8.125 33.403,-2.363 33.579,-2.305 C -3.782,-0.298 -1.877,0 0,0 m 578.325,-523.843 c -27.192,0 -57.763,6.89 -91.535,20.674 -258.086,105.317 -358.67,302.847 -376.255,341.44 -71.023,35.044 -107.356,96.88 -120.679,124.488 -11.548,-1.343 -27.812,-0.864 -44.275,7.324 -20.703,10.303 -35.615,29.722 -44.324,57.71 -18.454,59.316 4.634,96.655 24.292,112.461 4.09,26.943 14.085,46.406 29.768,57.92 4.981,3.657 10.003,6.103 14.732,7.715 -16.931,66.704 -14.309,110.42 7.905,133.315 14.646,15.098 34.424,16.719 48.05,13.203 12.292,-3.169 23.659,-16.015 33.596,-32.627 3.623,18.706 10.322,36.114 22.17,46.973 17.529,16.064 37.759,19.106 55.503,8.335 11.35,-6.885 19.531,-18.374 23.037,-32.344 C 200.518,182.52 287.966,64.038 299.199,49.277 436.133,-58.428 545.664,-112.412 613.54,-138.75 c 66.751,-25.898 110.847,-91.787 109.731,-163.965 -1.569,-101.733 -26.833,-169.482 -75.09,-201.372 -19.927,-13.169 -43.279,-19.751 -69.856,-19.756"
             style="fill:#000000;fill-opacity:1;fill-rule:nonzero;stroke:none"
             id="path26" /></g><g
           id="g28"><g
             id="g30" /><g
             id="g42"><g
               clip-path="url(#clipPath34)"
               opacity="0.300003"
               id="g40"><g
                 transform="translate(1637.2552,2004.5638)"
                 id="g38"><path
                   d="m 0,0 c -1.739,-113.671 -36.267,-256.554 -212.486,-184.615 -277.271,113.124 -369.529,338.229 -369.529,338.229 -90.47,41.534 -123.756,131.457 -123.756,131.457 0,0 -20.32,-7.304 -41.682,0.795 -14.706,47.396 7.899,84.905 7.899,84.905 -4.273,62.846 33.783,101.002 33.783,101.002 61.754,41.136 138.412,36.764 194.552,24.691 10.731,-23.449 21.71,-44.762 32.143,-63.641 -96.133,38.552 -185.957,24.194 -185.957,24.194 -97.971,-55.345 26.133,-107.758 26.133,-107.758 l 92.009,-37.013 c -105.572,7.353 -133.244,-73.925 -35.124,-86.246 98.17,-12.271 162.904,113.372 162.904,113.372 2.137,-94.195 -92.754,-162.855 -92.754,-162.855 30.398,-57.777 64.238,-103.252 97.3,-138.813 67.393,-72.489 179.396,-78.188 255.942,-15.441 60.08,49.249 113.083,55.24 139.993,54.296 C -6.21,53.556 0.447,27.275 0,0"
                   style="fill:#000000;fill-opacity:1;fill-rule:nonzero;stroke:none"
                   id="path36" /></g></g></g></g><g
           id="g44"
           transform="translate(1057.484,2140.9341)"><path
             d="m 0,0 -4.458,34.492 c 140.3,18.13 147.5,163.037 147.737,169.195 l 34.751,-1.338 C 177.959,200.547 169.116,21.856 0,0"
             style="fill:#000000;fill-opacity:1;fill-rule:nonzero;stroke:none"
             id="path46" /></g><g
           id="g48"
           transform="translate(1156.3365,2411.656)"><path
             d="m 0,0 c -33.092,13.006 -68.336,24.556 -102.701,31.353 -17.225,3.149 -34.488,5.293 -50.495,4.277 -15.886,-1.177 -30.278,-5.051 -38.827,-13.643 -4.514,-4.416 -7.556,-9.616 -8.228,-13.401 -1.023,-3.742 0.094,-8.434 3.454,-14.194 3.369,-5.659 8.795,-11.521 14.981,-16.924 6.176,-5.488 13.399,-10.354 20.654,-15.302 29.589,-19.505 62.578,-36.441 95.211,-57.02 -19.462,0.386 -38.414,3.826 -57.034,8.685 -18.58,5.031 -36.816,11.726 -54.345,21.074 -8.789,4.658 -17.331,9.98 -25.677,16.318 -8.285,6.402 -16.482,13.699 -23.485,23.65 -3.508,4.907 -6.543,10.772 -8.692,17.336 -1.079,3.255 -1.586,6.939 -2.21,10.437 -0.063,3.636 -0.349,7.403 0.178,10.994 0.997,7.271 3.394,14.107 6.59,19.846 3.135,5.843 7.01,10.774 11.245,15.403 8.685,9.246 19.697,15.742 30.61,19.783 10.969,4.153 22.028,5.959 32.711,6.85 21.387,1.514 41.648,-0.73 61.099,-4.741 19.49,-3.884 38.234,-9.468 56.467,-16.089 18.338,-6.667 35.755,-14.077 53.461,-23.3 z"
             style="fill:#000000;fill-opacity:1;fill-rule:nonzero;stroke:none"
             id="path50" /></g><g
           id="g52"
           transform="translate(952.8428,2312.0769)"><path
             d="m 0,0 c -5.11,0 -10.203,0.693 -15.283,2.09 -54.526,14.98 -78.674,108.491 -81.25,119.106 l 33.794,8.208 c 0.002,-0.005 0.002,-0.009 0.005,-0.014 7.915,-32.422 30.3,-86.543 56.682,-93.77 11.12,-3.066 24.289,3.11 39.135,18.291 L 57.947,29.595 C 38.692,9.907 19.263,0 0,0"
             style="fill:#000000;fill-opacity:1;fill-rule:nonzero;stroke:none"
             id="path54" /></g><g
           id="g56"
           transform="translate(939.3736,2274.1521)"><path
             d="m 0,0 -15.757,31.006 -0.491,-0.264 c 1.573,0.947 9.314,6.504 7.144,22.671 l 34.468,4.629 C 29.844,24.678 11.528,5.859 0,0"
             style="fill:#000000;fill-opacity:1;fill-rule:nonzero;stroke:none"
             id="path58" /></g><g
           id="g60"
           transform="translate(933.1407,2435.3484)"><path
             d="M 0,0 C -19.656,32.676 -26.191,57.29 -26.46,58.32 L 7.183,67.129 C 7.239,66.924 12.935,45.962 29.8,17.93 Z"
             style="fill:#000000;fill-opacity:1;fill-rule:nonzero;stroke:none"
             id="path62" /></g><g
           id="g64"
           transform="translate(1008.734,2460.8708)"><path
             d="m 0,0 c -12.568,32.178 -19.143,79.932 -19.417,81.948 l 34.461,4.678 c 0.063,-0.449 6.301,-45.688 17.348,-73.98 z"
             style="fill:#000000;fill-opacity:1;fill-rule:nonzero;stroke:none"
             id="path66" /></g><g
           id="g68"
           transform="translate(2753.2937,2078.6384)"><path
             d="m 0,0 c -52.513,-604.521 -294.808,-933.211 -403.113,-1052.148 -28.766,-31.597 -75.814,-38.553 -112.677,-16.991 l -82.819,48.34 -120.824,58.077 38.254,90.32 417.173,985.576 c 53.854,2.484 97.872,-4.621 133.444,-16.296 C -34.33,65.231 0,0 0,0"
             style="fill:#ffffff;fill-opacity:1;fill-rule:nonzero;stroke:none"
             id="path70" /></g><g
           id="g72"><g
             id="g74" /><g
             id="g86"><g
               clip-path="url(#clipPath78)"
               opacity="0.300003"
               id="g84"><g
                 transform="translate(2199.3767,1129.4254)"
                 id="g82"><path
                   d="m 0,0 -45.458,34.134 -81.804,42.677 417.173,985.576 c 0.538,0.025 1.076,0.049 1.613,0.072 76.518,3.269 141.426,-55.615 147.11,-131.991 C 467.118,547.755 280.623,198.437 172.247,30.709 134.602,-27.553 55.469,-41.651 0,0"
                   style="fill:#000000;fill-opacity:1;fill-rule:nonzero;stroke:none"
                   id="path80" /></g></g></g></g><g
           id="g88"
           transform="translate(2056.3413,1124.4303)"><path
             d="m 0,0 105.901,-50.903 c 0.42,-0.205 0.832,-0.425 1.238,-0.66 l 82.79,-48.369 c 29.715,-17.368 68.008,-11.596 91.057,13.711 102.097,112.105 344.771,437.056 398.15,1036.412 -12.674,19.941 -75.486,103.877 -234.527,100.175 z m 226.816,-144.639 c -18.689,0 -37.504,4.79 -54.431,14.678 L 90.2,-81.943 -30.01,-24.165 c -8.364,4.023 -12.097,13.906 -8.479,22.451 l 455.401,1075.859 c 2.609,6.168 8.527,10.289 15.217,10.591 208.259,9.639 277.361,-117.011 280.203,-122.402 1.552,-2.954 2.226,-6.289 1.938,-9.609 C 660.974,339.277 411.489,5.425 306.699,-109.639 c -20.879,-22.924 -50.215,-35 -79.883,-35"
             style="fill:#000000;fill-opacity:1;fill-rule:nonzero;stroke:none"
             id="path90" /></g><g
           id="g92"
           transform="translate(3115.2708,2181.0811)"><path
             d="m 0,0 c 19.127,-362.524 -199.619,-332.168 -199.619,-332.168 -115.012,-106.169 -405.15,-135.729 -405.15,-135.729 -84.16,-309.812 -232.011,-583.407 -442.809,-723.955 -210.797,-140.498 -333.211,-403.461 -347.073,-488.614 -13.811,-85.204 -154.359,-133.096 -201.208,-100.257 -46.849,32.839 -351.296,200.315 -426.911,236.532 -75.565,36.168 -70.249,81.974 -70.249,81.974 3.279,35.622 10.632,65.43 21.015,90.321 77.006,184.764 321.785,97.573 321.785,97.573 83.018,191.621 170.854,293.815 170.854,293.815 -14.358,7.999 -38.851,20.767 -38.851,20.767 -155.403,-6.409 -398.145,-138.412 -466.307,-232.111 -32.194,-44.315 -74.92,-73.826 -116.155,-86.793 -18.978,-5.961 -37.708,-8.445 -54.898,-7.154 -24.443,1.689 -45.856,10.88 -61.008,27.971 -48.986,55.344 -195.893,138.411 -283.183,219.292 -87.29,80.931 -31.945,166.085 -31.945,166.085 10.135,12.42 20.22,23.548 30.206,33.485 167.972,167.276 308.321,-1.54 308.321,-1.54 334.305,285.319 533.378,225.701 533.378,225.701 54.301,325.76 204.338,495.074 204.338,495.074 v 0.049 c 258.591,169.413 755.403,54.202 755.403,54.202 0,0 87.737,-11.476 197.234,-14.954 101.35,-3.129 221.43,0.597 307.925,26.679 C -115.012,0.497 -81.974,129.32 -25.586,111.783 29.908,94.543 0.994,3.081 0.05,0 Z"
             style="fill:#ffffff;fill-opacity:1;fill-rule:nonzero;stroke:none"
             id="path94" /></g><g
           id="g96"><g
             id="g98" /><g
             id="g110"><g
               clip-path="url(#clipPath102)"
               opacity="0.300003"
               id="g108"><g
                 transform="translate(2915.6516,1848.9127)"
                 id="g106"><path
                   d="m 0,0 c -115.012,-106.169 -405.15,-135.729 -405.15,-135.729 -84.16,-309.812 -232.011,-583.406 -442.808,-723.954 -210.798,-140.499 -333.212,-403.461 -347.073,-488.615 -13.812,-85.203 -154.36,-133.096 -201.209,-100.257 -46.849,32.84 -351.296,200.315 -426.911,236.533 -75.565,36.168 -70.249,81.974 -70.249,81.974 3.279,35.621 10.632,65.43 21.015,90.32 98.084,-102.682 204.293,-154.579 299.556,-179.106 150.048,-38.631 307.095,28.78 384.081,163.242 42.436,74.116 84.172,137.811 121.588,190.446 86.451,121.615 65.893,311.555 -89.006,362.124 -259.873,84.838 -290.103,141.591 -290.103,141.591 l 501.432,-82.52 15.252,102.194 153.543,-39.356 c 70.023,-17.949 143.576,15.662 174.499,81 28.068,59.306 39.053,116.558 41.337,166.274 3.951,85.996 -69.751,154.824 -155.446,146.611 -527.145,-50.518 -638.124,195.057 -640.197,199.665 v 0.049 c 258.59,169.413 755.402,54.203 755.402,54.203 0,0 87.737,-11.477 197.235,-14.954 37.995,-57.189 35.262,-138.435 27.125,-193.858 -5.194,-35.379 22.466,-67.061 58.214,-66.221 119.94,2.815 227.702,53.206 227.702,53.206 l 46.216,15.453 c 31.281,10.458 53.869,38.059 57.448,70.847 0.043,0.387 0.07,0.593 0.07,0.593 -15.153,16.742 -0.795,52.761 -0.795,52.761 C 6.359,329.088 199.619,332.168 199.619,332.168 218.747,-30.355 0,0 0,0"
                   style="fill:#000000;fill-opacity:1;fill-rule:nonzero;stroke:none"
                   id="path104" /></g></g></g></g><g
           id="g112"><g
             id="g114" /><g
             id="g126"><g
               clip-path="url(#clipPath118)"
               opacity="0.300003"
               id="g124"><g
                 transform="translate(1692.9479,1325.6703)"
                 id="g122"><path
                   d="m 0,0 c -74.522,-32.988 -157.042,-125.097 -157.042,-125.097 -14.358,7.998 -38.851,20.767 -38.851,20.767 -155.403,-6.409 -398.145,-138.412 -466.308,-232.111 -32.193,-44.315 -74.919,-73.826 -116.154,-86.793 -18.978,-5.962 -37.708,-8.446 -54.898,-7.154 -24.443,1.689 -45.856,10.88 -61.008,27.97 -48.986,55.345 -195.893,138.412 -283.183,219.293 -87.29,80.931 -31.945,166.084 -31.945,166.084 10.134,12.421 20.22,23.549 30.206,33.485 2.783,-105.422 116.707,-185.017 222.379,-236.335 87.074,-42.286 191.478,-31.731 266.101,29.926 103.476,85.498 238.27,125.742 315.683,142.958 33.071,7.355 55.988,37.434 54.617,71.286 -1.216,30.009 1.876,53.511 5.648,70.293 2.927,13.023 19.982,16.236 27.714,5.355 35.922,-50.553 71.366,-87.24 95.426,-109.608 16.128,-14.993 39.516,-19.29 59.819,-10.765 C -67.988,6.346 0,0 0,0"
                   style="fill:#000000;fill-opacity:1;fill-rule:nonzero;stroke:none"
                   id="path120" /></g></g></g></g><g
           id="g128"
           transform="translate(1238.8926,909.8551)"><path
             d="m 0,0 c -38.926,0 -81.123,-7.056 -116.455,-29.653 -47.842,-30.606 -75.723,-85.43 -82.871,-162.954 -0.086,-1.382 -1.394,-35.078 60.459,-64.698 77.026,-36.884 381.97,-204.731 429.372,-237.959 17.007,-11.919 56.668,-9.052 94.3,6.827 44.67,18.847 74.49,49.492 79.768,81.972 14.153,87.114 136.284,354.8 354.575,500.327 190.354,126.905 345.083,380.479 435.686,714.019 1.885,6.943 7.856,12.007 15.017,12.739 2.844,0.288 285.737,30.21 395.098,131.211 3.821,3.535 9.03,5.176 14.184,4.448 2.329,-0.278 59.27,-7.08 108.577,38.618 53.535,49.615 78.184,144.844 71.284,275.396 -0.115,2.144 0.171,4.292 0.838,6.328 4.443,13.691 13.474,54.136 1.982,76.333 -3.55,6.856 -8.689,11.133 -16.169,13.457 -13.865,4.326 -29.021,-9.936 -56.829,-37.627 -38.399,-38.237 -96.426,-96.02 -202.329,-127.978 -181.402,-54.756 -498.997,-14.073 -512.434,-12.31 -0.559,0.073 -1.118,0.176 -1.668,0.303 -4.885,1.133 -489.924,110.942 -739.892,-50.435 -15.318,-18.335 -148.841,-185.278 -198.765,-484.814 -0.82,-4.927 -3.716,-9.258 -7.954,-11.9 -4.236,-2.641 -9.402,-3.344 -14.185,-1.899 -1.835,0.513 -195.761,51.987 -517.085,-222.266 -3.537,-3.017 -8.137,-4.511 -12.771,-4.096 -4.633,0.395 -8.916,2.632 -11.889,6.206 -0.559,0.669 -58.982,69.228 -141.233,69.228 h -0.916 c -57.749,-0.361 -114.558,-34.067 -168.852,-100.19 -4.749,-7.91 -42.483,-76.382 29.59,-143.184 42.036,-38.96 97.614,-78.027 151.362,-115.81 57.288,-40.264 106.763,-75.044 133.025,-104.727 17.759,-20.078 43.63,-23.232 62.183,-22.349 50.029,2.393 106.086,36.563 142.81,87.061 71.853,98.799 317.353,232.554 479.641,239.229 3.078,0.131 6.062,-0.552 8.759,-1.958 1.009,-0.528 24.854,-12.974 39.258,-20.977 4.566,-2.534 7.744,-6.992 8.667,-12.134 0.923,-5.141 -0.517,-10.425 -3.918,-14.394 -0.862,-1.006 -87.256,-102.832 -168.106,-289.414 -3.637,-8.399 -13.164,-12.544 -21.792,-9.463 C 119.446,-19.18 64.175,0 0,0 m 322.153,-537.305 c -20.681,0 -38.674,4.502 -51.606,13.565 -45.117,31.621 -350.361,199.599 -424.434,235.068 -85.796,41.084 -80.302,97.295 -80.026,99.668 8.146,88.423 41.42,152.061 98.855,188.731 89.328,57.041 209.108,30.585 251.555,18.413 62.978,141.684 126.833,231.933 153.947,267.202 -6.352,3.384 -12.343,6.538 -16.152,8.54 -150.964,-8.55 -382.915,-134.736 -448.354,-224.717 -43.34,-59.59 -108.201,-98.418 -169.278,-101.338 -36.972,-1.777 -68.906,10.322 -89.89,34.038 -23.552,26.631 -73.789,61.939 -126.973,99.326 -52.146,36.651 -111.247,78.194 -155.005,118.751 -96.916,89.829 -35.331,187.333 -34.699,188.31 0.344,0.527 0.718,1.04 1.115,1.528 61.492,75.235 127.65,113.531 196.636,113.819 h 0.789 c 75.647,0 132.258,-45.948 155.906,-69.004 276.118,230.972 460.222,230.156 517.929,222.241 56.739,315.454 199.261,479.312 205.408,486.255 1.025,1.157 2.197,2.173 3.491,3.017 258.872,169.556 737.395,63.78 768.006,56.768 18.085,-2.28 327.119,-40.064 497.065,11.221 97.576,29.448 149.746,81.396 187.839,119.331 31.936,31.811 57.149,56.938 91.692,46.196 16.28,-5.063 28.994,-15.698 36.77,-30.762 18.216,-35.293 5.342,-85.722 1.143,-99.848 7.029,-142.066 -20.943,-243.062 -83.154,-300.196 C 1760.679,922.856 1703.955,920.317 1682.81,921.162 1574.321,827.388 1341.277,794.155 1285.266,787.368 1192.021,451.328 1033.586,195.025 838.44,64.927 631.983,-72.71 511.897,-332.046 498.899,-412.041 c -7.209,-44.375 -44.81,-84.912 -100.576,-108.438 -26.519,-11.186 -53.025,-16.826 -76.17,-16.826"
             style="fill:#000000;fill-opacity:1;fill-rule:nonzero;stroke:none"
             id="path130" /></g><g
           id="g132"
           transform="translate(834.2723,1328.1429)"><path
             d="m 0,0 c -3.911,-2.903 -8.165,-5.891 -12.497,-8.643 -4.314,-2.812 -8.761,-5.522 -13.239,-8.234 -4.517,-2.676 -9.008,-5.398 -13.702,-8.001 -4.639,-2.654 -9.296,-5.332 -14.246,-7.942 1.425,5.405 3.369,10.554 5.452,15.627 2.06,5.096 4.44,9.966 6.878,14.808 2.498,4.782 5.1,9.502 7.913,14.043 2.797,4.597 5.73,8.906 9.111,13.191 z"
             style="fill:#000000;fill-opacity:1;fill-rule:nonzero;stroke:none"
             id="path134" /></g><g
           id="g136"
           transform="translate(1150.1744,1081.9449)"><path
             d="m 0,0 c -237.661,138.623 -231.826,339.106 -231.462,347.573 l 34.746,-1.45 c -0.286,-7.637 -4.519,-188.486 214.235,-316.084 z"
             style="fill:#000000;fill-opacity:1;fill-rule:nonzero;stroke:none"
             id="path138" /></g><g
           id="g140"
           transform="translate(1486.422,1207.5789)"><path
             d="m 0,0 c -1.844,1.572 -2.954,2.642 -4.293,3.926 -1.321,1.228 -2.492,2.49 -3.697,3.745 -2.39,2.515 -4.674,5.041 -6.889,7.612 -4.467,5.1 -8.566,10.435 -12.44,15.874 -7.846,10.806 -14.804,22.088 -21.005,33.689 -5.956,11.746 -11.685,23.494 -16.008,35.808 -2.365,6.053 -4.059,12.388 -5.88,18.594 -1.678,6.275 -2.891,12.7 -4.049,19.063 l 21.989,-31.35 c 7.158,-10.306 14.771,-20.164 22.586,-29.695 7.933,-9.449 16.18,-18.501 24.759,-27.012 4.279,-4.27 8.778,-8.267 13.174,-12.227 2.212,-1.962 4.469,-3.864 6.718,-5.666 l 3.346,-2.644 c 1.033,-0.818 2.337,-1.802 2.97,-2.21 z"
             style="fill:#000000;fill-opacity:1;fill-rule:nonzero;stroke:none"
             id="path142" /></g><g
           id="g144"
           transform="translate(1522.213,1211.2728)"><path
             d="m 0,0 c 5.659,7.581 11.101,14.026 17.123,20.505 5.879,6.47 12.135,12.547 18.423,18.57 6.384,5.927 12.984,11.611 19.666,17.185 6.838,5.403 13.659,10.796 20.79,15.808 14.247,9.988 28.935,19.436 44.66,26.987 3.957,1.846 7.94,3.621 11.944,5.317 4.153,1.463 8.248,2.979 12.411,4.317 l 6.253,1.941 c 2.115,0.578 4.31,0.984 6.45,1.474 4.288,0.962 8.635,1.727 13.015,2.286 -12.826,-12.398 -25.886,-22.588 -38.413,-33.553 -3.229,-2.561 -6.328,-5.307 -9.474,-7.968 -3.108,-2.715 -6.37,-5.181 -9.463,-7.889 C 107.188,59.575 101.05,54.158 95.099,48.508 88.977,43.091 83.197,37.256 77.366,31.541 L 68.66,22.917 C 65.813,19.985 63.041,16.985 60.138,14.123 54.475,8.25 48.938,2.271 43.412,-3.682 L 27.413,-21.399 Z"
             style="fill:#000000;fill-opacity:1;fill-rule:nonzero;stroke:none"
             id="path146" /></g><g
           id="g148"
           transform="translate(1381.4269,900.8968)"><path
             d="m 0,0 c -2.543,-5.85 -5.408,-11.851 -8.448,-17.688 -3.003,-5.876 -6.215,-11.699 -9.485,-17.52 -6.546,-11.664 -13.376,-23.171 -21.597,-34.797 -2.178,14.126 -1.585,28.023 -0.299,41.616 0.664,6.805 1.521,13.565 2.683,20.237 1.133,6.712 2.526,13.23 4.396,19.849 z"
             style="fill:#000000;fill-opacity:1;fill-rule:nonzero;stroke:none"
             id="path150" /></g><g
           id="g152"
           transform="translate(1854.8448,759.6354)"><path
             d="m 0,0 c -163.386,6.607 -275.652,77.349 -341.06,135.537 -70.962,63.125 -103.002,124.302 -104.331,126.875 l 30.899,15.957 -15.449,-7.978 15.439,7.998 C -413.298,276.074 -290.676,46.558 1.406,34.746 Z"
             style="fill:#000000;fill-opacity:1;fill-rule:nonzero;stroke:none"
             id="path154" /></g><g
           id="g156"
           transform="translate(2911.373,1831.3688)"><path
             d="m 0,0 c -35.798,0 -102.822,23.477 -133.591,115.532 -39.617,118.531 27.204,189.522 30.068,192.491 l 25.073,-24.102 c -2.253,-2.383 -54.851,-59.546 -22.158,-157.363 C -68.918,31.738 0.173,34.683 3.093,34.893 L 5.574,0.205 C 3.816,0.073 1.953,0 0,0"
             style="fill:#000000;fill-opacity:1;fill-rule:nonzero;stroke:none"
             id="path158" /></g><g
           id="g160"
           transform="translate(2513.4226,1696.0334)"><path
             d="m 0,0 c -9.779,-2.595 -19.045,-3.489 -28.647,-4.001 -9.537,-0.408 -19.11,-0.108 -28.664,0.793 -9.548,0.881 -19.089,2.395 -28.52,4.793 -9.422,2.236 -18.763,5.407 -27.752,9.882 9.487,3.506 18.64,5.906 27.724,8.309 9.071,2.411 18.032,4.448 26.956,6.372 8.92,1.899 17.802,3.605 26.672,5.087 8.802,1.368 17.91,2.723 26.401,3.05 l 0.682,0.027 C 4.484,34.683 12.594,27.175 12.965,17.542 13.285,9.226 7.722,2.046 0,0"
             style="fill:#000000;fill-opacity:1;fill-rule:nonzero;stroke:none"
             id="path162" /></g><g
           id="g164"
           transform="translate(1557.2227,2255.9021)"><path
             d="m 0,0 h -86.251 c -71.039,0 -128.627,57.589 -128.627,128.628 v 262.267 c 0,55.563 45.042,100.605 100.604,100.605 H 0 Z"
             style="fill:#ffffff;fill-opacity:1;fill-rule:nonzero;stroke:none"
             id="path166" /></g><g
           id="g168"><g
             id="g170" /><g
             id="g182"><g
               clip-path="url(#clipPath174)"
               opacity="0.300003"
               id="g180"><g
                 transform="translate(1342.3444,2521.8076)"
                 id="g178"><path
                   d="m 0,0 v -140.484 c 0,-69.268 56.153,-125.422 125.421,-125.422 h 89.457 v 140.484 H 125.421 C 56.153,-125.422 0,-69.268 0,0"
                   style="fill:#000000;fill-opacity:1;fill-rule:nonzero;stroke:none"
                   id="path176" /></g></g></g></g><g
           id="g184"
           transform="translate(1442.9478,2730.0164)"><path
             d="m 0,0 c -45.884,0 -83.215,-37.334 -83.215,-83.218 v -262.27 c 0,-61.338 49.902,-111.241 111.24,-111.241 H 96.887 L 96.887,0 Z M 131.663,-491.504 H 28.025 c -80.513,0 -146.016,65.503 -146.016,146.016 v 262.27 c 0,65.064 52.93,117.993 117.991,117.993 h 131.663 z"
             style="fill:#000000;fill-opacity:1;fill-rule:nonzero;stroke:none"
             id="path186" /></g><g
           id="g188"
           transform="translate(2510.5073,2255.9021)"><path
             d="m 0,0 h 86.251 c 71.039,0 128.627,57.589 128.627,128.628 v 262.267 c 0,55.563 -45.042,100.605 -100.604,100.605 H 0 Z"
             style="fill:#ffffff;fill-opacity:1;fill-rule:nonzero;stroke:none"
             id="path190" /></g><g
           id="g192"><g
             id="g194" /><g
             id="g206"><g
               clip-path="url(#clipPath198)"
               opacity="0.300003"
               id="g204"><g
                 transform="translate(2725.3857,2521.8076)"
                 id="g202"><path
                   d="m 0,0 v -140.484 c 0,-69.268 -56.153,-125.422 -125.421,-125.422 h -89.457 v 140.484 h 89.457 C -56.153,-125.422 0,-69.268 0,0"
                   style="fill:#000000;fill-opacity:1;fill-rule:nonzero;stroke:none"
                   id="path200" /></g></g></g></g><g
           id="g208"
           transform="translate(2527.894,2273.2878)"><path
             d="m 0,0 h 68.865 c 61.338,0 111.24,49.902 111.24,111.24 v 262.271 c 0,45.884 -37.332,83.218 -83.218,83.218 L 0,456.729 Z M 68.865,-34.775 H -34.775 V 491.504 H 96.887 c 65.061,0 117.993,-52.93 117.993,-117.993 V 111.24 c 0,-80.512 -65.503,-146.015 -146.015,-146.015"
             style="fill:#000000;fill-opacity:1;fill-rule:nonzero;stroke:none"
             id="path210" /></g><g
           id="g212"
           transform="translate(2507.926,2153.5002)"><path
             d="m 0,0 v -92.09 c 0,0 -130.117,-148.089 -474.061,-148.089 -343.944,0 -474.061,148.089 -474.061,148.089 V 0 Z"
             style="fill:#ffffff;fill-opacity:1;fill-rule:nonzero;stroke:none"
             id="path214" /></g><g
           id="g216"><g
             id="g218" /><g
             id="g230"><g
               clip-path="url(#clipPath222)"
               opacity="0.300003"
               id="g228"><g
                 transform="translate(2033.865,2153.5002)"
                 id="g226"><path
                   d="m 0,0 v -201.086 c -343.944,0 -474.061,154.678 -474.061,154.678 V 0 Z"
                   style="fill:#000000;fill-opacity:1;fill-rule:nonzero;stroke:none"
                   id="path224" /></g></g></g></g><g
           id="g232"><g
             id="g234" /><g
             id="g246"><g
               clip-path="url(#clipPath238)"
               opacity="0.300003"
               id="g244"><g
                 transform="translate(2033.865,2153.5002)"
                 id="g242"><path
                   d="m 0,0 v -201.086 c 343.944,0 474.061,154.678 474.061,154.678 V 0 Z"
                   style="fill:#000000;fill-opacity:1;fill-rule:nonzero;stroke:none"
                   id="path240" /></g></g></g></g><g
           id="g248"
           transform="translate(1577.174,2068.5369)"><path
             d="m 0,0 c 24.91,-23.911 159.302,-137.827 456.692,-137.827 298.672,0 431.911,113.759 456.692,137.778 V 67.583 H 0 Z m 456.692,-172.603 c -347.815,0 -481.616,147.72 -487.141,154.004 -2.788,3.174 -4.326,7.256 -4.326,11.48 v 92.09 c 0,9.604 7.783,17.387 17.387,17.387 h 948.159 c 9.605,0 17.388,-7.783 17.388,-17.387 v -92.09 c 0,-4.224 -1.538,-8.306 -4.326,-11.48 -5.525,-6.289 -139.329,-154.004 -487.141,-154.004"
             style="fill:#000000;fill-opacity:1;fill-rule:nonzero;stroke:none"
             id="path250" /></g><g
           id="g252"
           transform="translate(2033.865,1994.9814)"><path
             d="M 0,0 C 773.7,0 582.629,700.936 582.629,700.936 512.287,947.196 283.232,1126.817 0,1126.817 c -283.232,0 -512.287,-179.621 -582.629,-425.881 C -582.629,700.936 -773.7,0 0,0"
             style="fill:#ffffff;fill-opacity:1;fill-rule:nonzero;stroke:none"
             id="path254" /></g><g
           id="g256"><g
             id="g258" /><g
             id="g270"><g
               clip-path="url(#clipPath262)"
               opacity="0.300003"
               id="g268"><g
                 transform="translate(2616.4941,2695.9175)"
                 id="g266"><path
                   d="m 0,0 c -23.25,81.395 -63.927,155.436 -118.08,218.191 13.552,-28.484 24.827,-58.231 33.622,-89.02 0,0 191.071,-700.936 -582.629,-700.936 -239.673,0 -386.741,67.274 -475.613,160.126 64.935,-152.634 218.444,-289.297 560.071,-289.297 C 191.071,-700.936 0,0 0,0"
                   style="fill:#000000;fill-opacity:1;fill-rule:nonzero;stroke:none"
                   id="path264" /></g></g></g></g><g
           id="g272"
           transform="translate(2033.8658,3104.4109)"><path
             d="m 0,0 c -267.881,0 -495.303,-166.079 -565.911,-413.267 -0.73,-2.695 -77.089,-292.739 74.307,-490.712 95.432,-124.786 260.83,-188.062 491.604,-188.062 230.771,0 396.172,63.276 491.601,188.062 151.397,197.973 75.04,488.017 74.248,490.922 C 495.303,-166.079 267.881,0 0,0 m 0,-1126.817 c -242.29,0 -417.031,67.925 -519.368,201.895 -161.799,211.807 -83.452,508.477 -80.039,521.006 C -524.434,-141.44 -283.572,34.775 0,34.775 c 283.572,0 524.433,-176.215 599.348,-438.491 3.472,-12.729 81.816,-309.399 -79.98,-521.206 C 417.029,-1058.892 242.287,-1126.817 0,-1126.817"
             style="fill:#000000;fill-opacity:1;fill-rule:nonzero;stroke:none"
             id="path274" /></g><g
           id="g276"
           transform="translate(2033.865,2107.0918)"><path
             d="M 0,0 C 511.463,0 511.417,340.484 511.417,340.484 511.417,737.022 0,717.299 0,717.299 c 0,0 -511.417,19.723 -511.417,-376.815 C -511.417,340.484 -511.463,0 0,0"
             style="fill:#000000;fill-opacity:1;fill-rule:nonzero;stroke:none"
             id="path278" /></g><g
           id="g280"><g
             id="g282" /><g
             id="g294"><g
               clip-path="url(#clipPath286)"
               opacity="0.5"
               id="g292"><g
                 transform="translate(2033.8651,2824.3911)"
                 id="g290"><path
                   d="m 0,0 c 0,0 -511.417,19.723 -511.417,-376.815 0,0 0.026,-71.354 49.079,-148.73 -19.245,50.85 -19.271,89.112 -19.271,89.112 0,107.127 37.349,183.842 91.836,238.8 7.409,7.473 18.482,10.406 28.519,7.248 32.143,-10.113 86.75,-3.981 143.506,18.743 59.015,23.629 103.968,58.636 118.598,88.978 4.483,9.298 13.052,15.935 23.299,17.182 61.897,7.533 105.66,5.864 105.66,5.864 0,0 330.32,12.682 459.998,-188.207 C 392.563,15.122 0,0 0,0"
                   style="fill:#ffffff;fill-opacity:1;fill-rule:nonzero;stroke:none"
                   id="path288" /></g></g></g></g><g
           id="g296"
           transform="translate(2023.4482,2807.1355)"><path
             d="m 0,0 c -48.503,0 -266.16,-7.002 -391.687,-127.886 -60.998,-58.74 -91.926,-136.684 -91.926,-231.675 0.005,-0.771 1.089,-81.816 61.621,-161.376 80.491,-105.796 230.015,-161.719 432.41,-161.719 202.394,0 351.918,55.923 432.409,161.719 60.53,79.56 61.614,160.605 61.619,161.416 0,94.951 -30.928,172.895 -91.926,231.635 C 271.357,8.057 13.689,-0.01 11.079,-0.122 L 10.425,-0.146 9.756,-0.122 C 9.468,-0.107 6.043,0 0,0 m 10.418,-717.432 c -271.387,0 -400.711,96.358 -461.412,177.188 -66.64,88.74 -67.395,176.973 -67.395,180.683 0,104.859 34.549,191.27 102.686,256.832 149.68,144.018 407.756,138.022 426.121,137.382 18.352,0.635 276.43,6.641 426.118,-137.382 68.137,-65.562 102.685,-151.973 102.685,-256.832 0.003,-3.71 -0.752,-91.943 -67.392,-180.683 -60.701,-80.83 -190.025,-177.188 -461.411,-177.188"
             style="fill:#000000;fill-opacity:1;fill-rule:nonzero;stroke:none"
             id="path298" /></g><g
           id="g300"
           transform="translate(3105.9441,1651.575)"><path
             d="m 0,0 v 0 c -18.189,-2.408 -34.887,10.385 -37.295,28.574 l -157.693,1191.098 c -2.408,18.189 10.385,34.887 28.575,37.295 18.189,2.408 34.886,-10.385 37.295,-28.574 L 28.574,37.295 C 30.982,19.106 18.189,2.408 0,0"
             style="fill:#ffffff;fill-opacity:1;fill-rule:nonzero;stroke:none"
             id="path302" /></g><g
           id="g304"><g
             id="g306" /><g
             id="g318"><g
               clip-path="url(#clipPath310)"
               opacity="0.300003"
               id="g316"><g
                 transform="translate(3134.5183,1688.87)"
                 id="g314"><path
                   d="m 0,0 -157.693,1191.098 c -2.408,18.189 -19.105,30.982 -37.294,28.574 h -0.001 c -0.104,-0.013 -0.202,-0.042 -0.305,-0.056 L -39.745,44.713 C -37.35,26.628 -49.99,10.031 -68.013,7.475 l 2.144,-16.196 c 2.408,-18.189 19.105,-30.982 37.295,-28.574 C -10.385,-34.887 2.408,-18.189 0,0"
                   style="fill:#000000;fill-opacity:1;fill-rule:nonzero;stroke:none"
                   id="path312" /></g></g></g></g><g
           id="g320"
           transform="translate(2943.8999,2891.4421)"><path
             d="m 0,0 c -0.691,0 -1.387,-0.044 -2.09,-0.137 -4.189,-0.556 -7.915,-2.71 -10.488,-6.069 -2.571,-3.355 -3.684,-7.515 -3.128,-11.709 l 157.693,-1191.099 c 1.145,-8.652 9.117,-14.77 17.776,-13.618 4.192,0.557 7.918,2.71 10.488,6.069 2.574,3.355 3.685,7.515 3.128,11.705 L 15.686,-13.755 C 14.634,-5.806 7.815,0 0,0 m 157.649,-1257.549 c -24.976,0 -46.77,18.55 -50.139,43.97 L -50.183,-22.476 c -1.773,13.399 1.777,26.69 10,37.422 8.22,10.733 20.129,17.617 33.533,19.39 27.629,3.686 53.154,-15.864 56.814,-43.53 l 157.692,-1191.099 c 1.775,-13.398 -1.774,-26.69 -9.997,-37.422 -8.223,-10.732 -20.132,-17.617 -33.535,-19.389 h 0.002 c -2.243,-0.298 -4.472,-0.445 -6.677,-0.445"
             style="fill:#000000;fill-opacity:1;fill-rule:nonzero;stroke:none"
             id="path322" /></g><g
           id="g324"
           transform="translate(3608.4697,2715.2021)"><path
             d="M 0,0 175.261,-187.83 -571.883,-286.746 -628.272,139.18 118.872,238.097 33.99,68.045 Z"
             style="fill:#5b21b6;fill-opacity:1;fill-rule:nonzero;stroke:none"
             id="path326" /></g><g
           id="g328"><g
             id="g330" /><g
             id="g346"><g
               clip-path="url(#clipPath334)"
               opacity="0.5"
               id="g344"><g
                 transform="translate(3618.469,2680.2036)"
                 id="g338"><path
                   d="m 0,0 145.095,-155.501 20.168,2.669 L 7.9,15.815 Z"
                   style="fill:#ffffff;fill-opacity:1;fill-rule:nonzero;stroke:none"
                   id="path336" /></g><g
                 transform="translate(2990.1975,2819.3831)"
                 id="g342"><path
                   d="M 0,0 717.729,95.022 737.144,133.916 -10,35 l 56.389,-425.928 5.274,0.699 z"
                   style="fill:#ffffff;fill-opacity:1;fill-rule:nonzero;stroke:none"
                   id="path340" /></g></g></g></g><g
           id="g348"><g
             id="g350" /><g
             id="g362"><g
               clip-path="url(#clipPath354)"
               opacity="0.300003"
               id="g360"><g
                 transform="translate(3783.7312,2527.3726)"
                 id="g358"><path
                   d="M 0,0 -747.144,-98.916 -761.92,12.687 c 257.889,-10.96 302.788,143.123 302.788,143.123 0,0 54.568,-52.562 197.706,1.869 49.476,18.829 89.262,56.721 120.155,98.196 l -33.99,-68.045 z"
                   style="fill:#000000;fill-opacity:1;fill-rule:nonzero;stroke:none"
                   id="path356" /></g></g></g></g><g
           id="g364"
           transform="translate(2999.7324,2839.4207)"><path
             d="m 0,0 51.824,-391.421 696.428,92.202 -152.244,163.14 c -4.953,5.308 -6.089,13.14 -2.844,19.634 L 697.412,92.334 Z m 36.868,-428.33 c -3.804,0 -7.525,1.245 -10.576,3.584 -3.66,2.808 -6.058,6.948 -6.663,11.523 L -36.758,12.676 c -1.26,9.516 5.437,18.257 14.956,19.516 l 747.122,98.916 c 6.377,0.87 12.7,-1.904 16.438,-7.138 3.738,-5.24 4.275,-12.11 1.401,-17.866 L 629.673,-121.177 796.702,-300.161 c 4.441,-4.761 5.852,-11.602 3.657,-17.735 -2.197,-6.127 -7.634,-10.512 -14.087,-11.367 L 39.15,-428.179 c -0.761,-0.102 -1.523,-0.151 -2.282,-0.151"
             style="fill:#000000;fill-opacity:1;fill-rule:nonzero;stroke:none"
             id="path366" /></g><g
           id="g368"
           transform="translate(3479.2314,2703.6475)"><path
             d="m 0,0 c 11.305,-85.391 -48.753,-163.779 -134.145,-175.084 -85.391,-11.305 -163.779,48.753 -175.084,134.145 -11.305,85.391 48.754,163.778 134.145,175.084 C -89.693,145.45 -11.305,85.391 0,0"
             style="fill:#ffffff;fill-opacity:1;fill-rule:nonzero;stroke:none"
             id="path370" /></g><g
           id="g372"
           transform="translate(3324.9204,2827.8435)"><path
             d="m 0,0 c -6.399,0 -12.837,-0.425 -19.287,-1.279 -38.301,-5.069 -72.334,-24.751 -95.833,-55.42 -23.496,-30.669 -33.645,-68.653 -28.574,-106.953 5.071,-38.301 24.754,-72.334 55.423,-95.83 30.668,-23.497 68.664,-33.648 106.95,-28.575 79.065,10.469 134.876,83.311 124.409,162.378 -5.07,38.301 -24.755,72.334 -55.422,95.83 C 62.161,-10.308 31.597,0 0,0 m -0.647,-311.982 c -36.548,0 -71.897,11.923 -101.396,34.526 -35.472,27.173 -58.233,66.538 -64.097,110.835 -5.867,44.297 5.871,88.223 33.047,123.696 27.175,35.469 66.535,58.232 110.832,64.097 44.307,5.849 88.228,-5.869 123.697,-33.047 35.471,-27.173 58.234,-66.538 64.099,-110.835 12.104,-91.44 -52.439,-175.688 -143.882,-187.798 -7.454,-0.986 -14.905,-1.474 -22.3,-1.474"
             style="fill:#000000;fill-opacity:1;fill-rule:nonzero;stroke:none"
             id="path374" /></g><g
           id="g376"
           transform="translate(3269.5032,2671.363)"><path
             d="m 0,0 c -4.868,-1.433 -10.056,-2.114 -15.332,-1.943 -5.221,0.398 -10.552,1.345 -15.587,3.339 -4.966,2.078 -9.816,4.729 -14.072,8.248 -4.197,3.572 -7.93,7.746 -11.045,12.414 -2.958,4.766 -5.151,9.995 -6.714,15.43 -1.424,5.471 -1.998,11.155 -1.781,16.848 0.372,5.681 1.506,11.321 3.475,16.677 2.118,5.298 4.938,10.283 8.378,14.81 13.763,18.369 39.425,26.091 60.472,19.006 10.547,-3.34 19.75,-10.012 26.188,-18.506 3.15,-4.306 5.671,-8.991 7.374,-13.913 1.696,-4.937 2.397,-10.088 2.539,-15.118 -5.108,19.642 -20.919,34.222 -38.74,37.674 -8.857,1.819 -18.006,0.935 -26.263,-2.044 -8.189,-3.183 -15.336,-8.598 -20.632,-15.481 -10.366,-13.933 -12.208,-33.6 -3.972,-49.406 2.029,-3.931 4.534,-7.679 7.593,-11.033 3.163,-3.225 6.606,-6.301 10.57,-8.777 3.994,-2.378 8.295,-4.426 12.932,-5.803 C -9.982,1.006 -5.092,0.352 0,0"
             style="fill:#000000;fill-opacity:1;fill-rule:nonzero;stroke:none"
             id="path378" /></g><g
           id="g380"
           transform="translate(3393.4387,2692.2883)"><path
             d="m 0,0 c -3.042,9.253 1.366,20.823 10.41,26.45 8.907,5.83 21.697,5.276 30.097,-1.587 8.669,-6.494 12.314,-18.606 8.97,-28.54 -3.052,-10.053 -12.792,-17.187 -22.436,-17.041 9.27,2.412 16.151,9.876 17.781,18.286 0.859,4.18 0.442,8.499 -0.965,12.395 -1.501,3.865 -4.058,7.239 -7.306,9.739 -6.574,4.912 -15.859,5.781 -23.32,1.875 C 5.665,17.876 0.307,9.602 0,0"
             style="fill:#000000;fill-opacity:1;fill-rule:nonzero;stroke:none"
             id="path382" /></g><g
           id="g384"
           transform="translate(3353.7925,2614.7078)"><path
             d="m 0,0 c 9.635,-7.51 13.129,-22.642 7.642,-34.824 -5.203,-12.298 -18.911,-20.659 -32.456,-19.383 -13.571,0.708 -25.832,10.777 -29.291,23.46 -3.847,12.607 1.312,26.841 11.46,33.43 -7.97,-8.991 -9.923,-21.575 -5.741,-31.472 2.026,-4.956 5.48,-9.163 9.668,-12.239 4.265,-2.976 9.286,-4.702 14.415,-5.036 10.282,-0.523 20.56,5.061 25.601,14.345 C 6.593,-22.578 6.389,-10.212 0,0"
             style="fill:#000000;fill-opacity:1;fill-rule:nonzero;stroke:none"
             id="path386" /></g><g
           id="g388"
           transform="translate(2976.3196,2065.292)"><path
             d="m 0,0 c 0,0 -51.899,47.108 12.775,99.008 64.674,51.898 186.038,30.34 163.682,-64.675 0,0 41.519,-41.519 7.186,-91.023 0,0 31.938,-40.721 -1.597,-78.248 0,0 31.14,-79.046 -61.48,-84.635 -92.62,-5.589 -124.558,30.341 -103,93.418 0,0 -25.151,23.155 -13.174,60.283 0,0 -25.95,25.95 -4.392,65.872"
             style="fill:#ffffff;fill-opacity:1;fill-rule:nonzero;stroke:none"
             id="path390" /></g><g
           id="g392"><g
             id="g394" /><g
             id="g406"><g
               clip-path="url(#clipPath398)"
               opacity="0.300003"
               id="g404"><g
                 transform="translate(3073.3752,1924.2329)"
                 id="g402"><path
                   d="m 0,0 c 0,0 -25.151,23.155 -13.174,60.283 0,0 -25.95,25.95 -4.392,65.872 0,0 -51.899,47.108 12.775,99.007 17.177,13.784 38.355,22.332 59.774,25.754 -35.694,25.347 -98.649,21.743 -139.263,-10.849 -64.675,-51.9 -12.776,-99.008 -12.776,-99.008 -21.558,-39.922 4.392,-65.872 4.392,-65.872 C -104.641,38.06 -79.49,14.904 -79.49,14.904 -100.517,-46.621 -70.62,-82.298 16.814,-78.831 -7.136,-63.196 -12.317,-36.04 0,0"
                   style="fill:#000000;fill-opacity:1;fill-rule:nonzero;stroke:none"
                   id="path400" /></g></g></g></g><g
           id="g408"
           transform="translate(3070.189,2174.5476)"><path
             d="m 0,0 c -24.595,0 -50.789,-8.223 -70.21,-23.809 -16.704,-13.403 -25.432,-27.002 -25.947,-40.415 -0.698,-18.188 13.923,-32.109 14.072,-32.246 5.762,-5.4 7.268,-14.101 3.516,-21.05 -15.227,-28.198 1.218,-45.141 1.386,-45.312 4.615,-4.614 6.258,-11.421 4.253,-17.632 -8.462,-26.235 8.233,-41.997 8.404,-42.153 5.07,-4.668 6.906,-11.895 4.677,-18.418 -7.722,-22.588 -7.382,-39.634 1.011,-50.65 11.685,-15.346 41.694,-22.387 84.487,-19.785 22.857,1.377 38.008,7.666 45.035,18.687 10.615,16.65 1.411,41.967 1.313,42.216 -2.407,6.114 -1.164,13.062 3.213,17.959 22.812,25.528 3.127,52.979 0.808,56.026 -4.565,5.991 -4.829,14.35 -0.535,20.542 24.981,36.02 -2.102,65.644 -5.273,68.906 -4.138,4.253 -5.908,10.415 -4.548,16.196 6.311,26.817 -0.467,46.709 -20.144,59.122 C 32.886,-3.848 16.816,0 0,0 m 8.833,-346.777 c -46.099,0 -78.118,11.411 -95.339,34.023 -14.361,18.853 -17.437,43.545 -9.185,73.482 -8,11.167 -18.628,32.246 -12.751,60.4 -7.769,11.943 -18.037,35.649 -5.913,66.724 -7.593,10.117 -17.225,27.29 -16.573,48.715 0.735,24.136 13.841,46.597 38.95,66.744 44.102,35.395 112.645,41.66 156.053,14.287 29.809,-18.809 43.088,-50.386 37.204,-87.554 15.205,-19.722 30.049,-56.499 8.999,-95.772 10.723,-19.76 18.299,-52.085 -2.849,-82.153 3.511,-14.224 7.034,-40.928 -7.422,-63.599 -13.352,-20.942 -37.663,-32.617 -72.263,-34.707 -6.543,-0.395 -12.851,-0.59 -18.911,-0.59"
             style="fill:#000000;fill-opacity:1;fill-rule:nonzero;stroke:none"
             id="path410" /></g><g
           id="g412"
           transform="translate(3034.8838,2040.236)"><path
             d="m 0,0 c -19.011,0 -39.978,2.378 -62.856,8.203 l 8.584,33.701 C 47.813,15.894 103.276,69.38 105.586,71.675 l 24.68,-24.502 C 127.959,44.834 82.52,0 0,0"
             style="fill:#000000;fill-opacity:1;fill-rule:nonzero;stroke:none"
             id="path414" /></g><g
           id="g416"
           transform="translate(3060.8164,1958.3658)"><path
             d="m 0,0 c -27.378,0 -57.925,6.807 -89.28,26.284 l 18.35,29.541 C 10.107,5.483 85.393,61.616 88.56,64.028 L 109.773,36.475 C 107.061,34.375 61.533,0 0,0"
             style="fill:#000000;fill-opacity:1;fill-rule:nonzero;stroke:none"
             id="path418" /></g><g
           id="g420"
           transform="translate(3083.7705,1888.9908)"><path
             d="m 0,0 c -28.904,0 -63.284,8.779 -100.242,36.177 l 20.713,27.939 C 0.403,4.854 60.999,52.715 63.54,54.785 L 85.728,28.003 C 85.2,27.564 51.201,0 0,0"
             style="fill:#000000;fill-opacity:1;fill-rule:nonzero;stroke:none"
             id="path422" /></g><g
           id="g424"
           transform="translate(1481.5175,1655.6884)"><path
             d="m 0,0 c 0,0 -34.418,10.991 -71.728,20.311 -29.323,7.325 -47.066,40.354 -37.206,70.913 0.147,0.455 0.298,0.908 0.453,1.361 8.443,24.599 32.549,38.736 56.602,34.318 21.852,-4.013 56.548,-11.57 86.668,-23.391 0,0 52.192,-80.96 -34.789,-103.512"
             style="fill:#ffffff;fill-opacity:1;fill-rule:nonzero;stroke:none"
             id="path426" /></g><g
           id="g428"><g
             id="g430" /><g
             id="g442"><g
               clip-path="url(#clipPath434)"
               opacity="0.300003"
               id="g440"><g
                 transform="translate(1486.4856,1705.3698)"
                 id="g438"><path
                   d="m 0,0 c 0,0 -34.418,10.991 -71.728,20.311 -17.198,4.296 -30.355,17.459 -36.354,33.756 -2.15,-3.429 -3.986,-7.14 -5.367,-11.163 -0.155,-0.453 -0.306,-0.907 -0.453,-1.361 -9.86,-30.559 7.883,-63.588 37.206,-70.913 37.309,-9.32 71.728,-20.311 71.728,-20.311 C 48.462,-35.828 49.363,0.046 42.12,25.674 34.78,14.919 21.735,5.635 0,0"
                   style="fill:#000000;fill-opacity:1;fill-rule:nonzero;stroke:none"
                   id="path436" /></g></g></g></g><g
           id="g444"
           transform="translate(1420.8092,1766.0074)"><path
             d="m 0,0 c -13.799,0 -26.443,-9.15 -31.328,-23.379 l -0.349,-1.055 c -3.345,-10.371 -2.207,-21.821 3.12,-31.415 4.927,-8.878 12.654,-15.015 21.753,-17.291 29.48,-7.363 56.809,-15.634 67.778,-19.038 16.216,4.99 26.453,12.696 30.454,22.945 6.194,15.864 -2.146,37.465 -7.876,48.364 C 56.641,-10.962 26.687,-4.375 5.688,-0.522 3.782,-0.171 1.88,0 0,0 m 60.708,-127.705 c -1.787,0 -3.569,0.273 -5.288,0.825 -0.34,0.108 -34.358,10.938 -70.652,20 -18.279,4.57 -34.216,17.017 -43.73,34.151 -9.986,17.983 -12.102,39.477 -5.811,58.974 l 0.53,1.597 c 11.208,32.646 43.242,51.865 76.216,45.845 23.969,-4.405 59.021,-12.198 89.877,-24.307 3.396,-1.333 6.287,-3.701 8.262,-6.763 2.979,-4.619 28.655,-46.225 13.711,-84.502 -8.66,-22.172 -28.427,-37.402 -58.752,-45.263 -1.431,-0.371 -2.898,-0.557 -4.363,-0.557"
             style="fill:#000000;fill-opacity:1;fill-rule:nonzero;stroke:none"
             id="path446" /></g><g
           id="g448"
           transform="translate(2142.7612,1609.8965)"><path
             d="m 0,0 c -70.796,-147.951 -148.547,-310.309 -148.547,-310.309 -174.033,100.605 -524.832,187.895 -524.832,187.895 l -17.04,61.753 c 30.901,160.769 111.534,318.059 111.534,318.059 178.505,-8.595 347.371,-73.627 451.9,-122.961 66.771,-31.547 107.262,-56.686 107.262,-56.686 z"
             style="fill:#ffffff;fill-opacity:1;fill-rule:nonzero;stroke:none"
             id="path450" /></g><g
           id="g452"><g
             id="g454" /><g
             id="g466"><g
               clip-path="url(#clipPath458)"
               opacity="0.300003"
               id="g464"><g
                 transform="translate(2142.7612,1609.8965)"
                 id="g462"><path
                   d="m 0,0 c -70.796,-147.951 -148.547,-310.309 -148.547,-310.309 -174.033,100.605 -524.832,187.895 -524.832,187.895 l -17.04,61.753 c 0,0 523.789,-155.254 563.434,195.098 66.771,-31.547 107.262,-56.686 107.262,-56.686 z"
                   style="fill:#000000;fill-opacity:1;fill-rule:nonzero;stroke:none"
                   id="path460" /></g></g></g></g><g
           id="g468"
           transform="translate(1483.4556,1501.8522)"><path
             d="m 0,0 c 57.395,-14.712 339.907,-89.59 503.091,-178.052 21.255,44.409 81.369,170 137.793,287.935 l -16.387,64.663 C 584.409,198.13 347.378,331.528 90.918,347.432 73.201,310.845 12.82,180.205 -13.257,48.066 Z m 510.774,-219.658 c -3.025,0 -6.03,0.791 -8.701,2.334 -169.973,98.242 -516.861,185.215 -520.344,186.079 -6.092,1.519 -10.894,6.201 -12.564,12.251 l -17.034,61.748 c -0.71,2.573 -0.818,5.278 -0.312,7.905 30.984,161.338 109.778,316.187 113.118,322.7 3.115,6.075 9.555,9.751 16.311,9.434 293.625,-14.16 556.467,-175.386 567.512,-182.241 3.825,-2.378 6.579,-6.143 7.685,-10.503 l 19.695,-77.72 c 0.999,-3.94 0.586,-8.11 -1.169,-11.777 C 604.175,-47.427 526.458,-209.78 526.458,-209.78 c -2.093,-4.37 -5.913,-7.671 -10.542,-9.102 -1.683,-0.522 -3.416,-0.776 -5.142,-0.776"
             style="fill:#000000;fill-opacity:1;fill-rule:nonzero;stroke:none"
             id="path470" /></g><g
           id="g472"
           transform="translate(1828.983,1659.0977)"><path
             d="m 0,0 -55.766,20.256 c -5.739,2.085 -8.701,8.427 -6.617,14.166 l 20.256,55.766 c 2.085,5.739 8.427,8.701 14.166,6.616 L 27.805,76.548 c 5.739,-2.084 8.701,-8.426 6.617,-14.165 L 14.166,6.617 C 12.081,0.878 5.739,-2.084 0,0"
             style="fill:#000000;fill-opacity:1;fill-rule:nonzero;stroke:none"
             id="path474" /></g><g
           id="g476"
           transform="translate(1947.4293,1616.0739)"><path
             d="m 0,0 -55.766,20.256 c -5.739,2.085 -8.701,8.427 -6.617,14.166 l 20.257,55.766 c 2.084,5.739 8.426,8.701 14.165,6.616 L 27.805,76.548 c 5.739,-2.084 8.701,-8.427 6.617,-14.165 L 14.166,6.617 C 12.081,0.878 5.739,-2.085 0,0"
             style="fill:#000000;fill-opacity:1;fill-rule:nonzero;stroke:none"
             id="path478" /></g><g
           id="g480"
           transform="translate(1785.8668,1544.828)"><path
             d="m 0,0 -55.766,20.256 c -5.739,2.085 -8.701,8.427 -6.617,14.166 l 20.257,55.766 c 2.084,5.739 8.426,8.701 14.165,6.616 L 27.805,76.548 c 5.739,-2.084 8.701,-8.427 6.617,-14.165 L 14.166,6.617 C 12.081,0.878 5.739,-2.085 0,0"
             style="fill:#000000;fill-opacity:1;fill-rule:nonzero;stroke:none"
             id="path482" /></g><g
           id="g484"
           transform="translate(1904.3131,1501.804)"><path
             d="m 0,0 -55.766,20.256 c -5.739,2.085 -8.701,8.427 -6.617,14.166 l 20.257,55.766 c 2.084,5.739 8.426,8.701 14.165,6.616 L 27.805,76.548 c 5.739,-2.084 8.701,-8.426 6.617,-14.165 L 14.166,6.617 C 12.081,0.878 5.739,-2.084 0,0"
             style="fill:#000000;fill-opacity:1;fill-rule:nonzero;stroke:none"
             id="path486" /></g><g
           id="g488"
           transform="translate(1970.8066,1356.1833)"><path
             d="m 0,0 c -2.954,0 -5.889,0.752 -8.516,2.226 -185.031,103.951 -510.256,173.121 -513.52,173.804 l 7.158,34.033 C -501.724,207.295 -199.026,142.9 -7.908,41.509 14.465,89.184 80.513,229.038 136.748,339.341 L 167.729,323.55 C 99.468,189.648 16.592,11.826 15.764,10.049 13.718,5.659 9.939,2.319 5.33,0.835 3.591,0.278 1.792,0 0,0"
             style="fill:#000000;fill-opacity:1;fill-rule:nonzero;stroke:none"
             id="path490" /></g><g
           id="g492"
           transform="translate(1977.7452,1294.0446)"><path
             d="M 0,0 -23.423,69.731 9.546,80.806 32.969,11.074 Z"
             style="fill:#000000;fill-opacity:1;fill-rule:nonzero;stroke:none"
             id="path494" /></g><g
           id="g496"
           transform="translate(1609.1221,1509.2887)"><path
             d="m 0,0 -33.027,10.899 52.143,158.027 -39.585,9.243 c -4.875,1.138 -9.021,4.321 -11.381,8.74 -2.359,4.414 -2.701,9.634 -0.938,14.317 l 58.1,154.404 32.549,-12.246 -51.12,-135.855 38.801,-9.062 c 4.754,-1.113 8.821,-4.17 11.208,-8.423 2.391,-4.258 2.879,-9.326 1.351,-13.96 z"
             style="fill:#000000;fill-opacity:1;fill-rule:nonzero;stroke:none"
             id="path498" /></g><g
           id="g500"
           transform="translate(2071.5298,1424.5481)"><path
             d="m 0,0 c 28.562,-15.382 111.376,-64.584 198.864,-159.648 24.096,-26.183 67.196,-22.297 85.303,8.335 0.363,0.614 0.724,1.234 1.082,1.858 11.427,19.919 8.811,44.943 -6.37,62.173 -37.978,43.104 -123.46,131.332 -233.274,190.451 -5.75,3.096 -12.51,3.703 -18.754,1.79 C 9.593,99.672 -20.516,81.431 -12.621,18.636 -11.629,10.748 -7,3.77 0,0"
             style="fill:#ffffff;fill-opacity:1;fill-rule:nonzero;stroke:none"
             id="path502" /></g><g
           id="g504"><g
             id="g506" /><g
             id="g518"><g
               clip-path="url(#clipPath510)"
               opacity="0.300003"
               id="g516"><g
                 transform="translate(2280.3303,1324.5175)"
                 id="g514"><path
                   d="m 0,0 c -87.488,95.064 -170.303,144.266 -198.865,159.648 -6.999,3.77 -11.628,10.748 -12.62,18.636 -0.17,1.352 -0.225,2.567 -0.361,3.879 -8.258,-13.1 -13.407,-33.02 -9.575,-63.497 0.991,-7.888 5.621,-14.866 12.62,-18.635 28.562,-15.383 111.377,-64.584 198.865,-159.648 24.096,-26.183 67.196,-22.297 85.303,8.335 0.363,0.614 0.724,1.234 1.082,1.858 8.746,15.247 9.237,33.474 2.19,48.918 C 58.144,-22.719 21.519,-23.383 0,0"
                   style="fill:#000000;fill-opacity:1;fill-rule:nonzero;stroke:none"
                   id="path512" /></g></g></g></g><g
           id="g520"
           transform="translate(2079.7739,1439.8551)"><path
             d="m 0,0 c 31.733,-17.085 115.078,-67.197 203.416,-163.179 7.897,-8.588 19.147,-12.817 30.827,-11.567 11.304,1.191 21.038,7.378 26.712,16.973 l 0.944,1.626 c 7.735,13.481 5.992,30.371 -4.311,42.065 -39.839,45.21 -122.5,129.58 -228.469,186.631 -1.609,0.869 -3.589,1.045 -5.418,0.478 C 1.147,66.118 -8.298,42.769 -3.611,5.498 -3.313,3.115 -1.963,1.06 0,0 m 230.151,-209.741 c -19.917,0 -38.659,8.159 -52.326,23.008 -84.763,92.109 -164.126,139.858 -194.314,156.118 -11.844,6.377 -19.929,18.257 -21.629,31.777 -9.758,77.608 32.857,99.365 51.629,105.117 10.661,3.262 22.356,2.134 32.094,-3.105 110.743,-59.624 196.697,-147.305 238.077,-194.268 20.151,-22.876 23.53,-55.957 8.405,-82.319 l -1.196,-2.056 c -11.328,-19.165 -30.647,-31.504 -53,-33.862 -2.596,-0.273 -5.179,-0.41 -7.74,-0.41"
             style="fill:#000000;fill-opacity:1;fill-rule:nonzero;stroke:none"
             id="path522" /></g><g
           id="g524"
           transform="translate(842.4628,525.2582)"><path
             d="m 0,0 c 0.471,-4.944 -9.253,-10.221 -24.165,-14.037 -7.529,-1.927 -12.975,-8.52 -13.445,-16.277 -0.932,-15.364 -4.278,-25.91 -9.222,-26.381 -4.944,-0.471 -10.221,9.253 -14.037,24.165 -1.927,7.529 -8.521,12.976 -16.279,13.445 -15.375,0.931 -25.946,4.275 -26.417,9.219 -0.473,4.972 9.266,10.256 24.181,14.055 7.539,1.921 12.996,8.519 13.466,16.286 0.93,15.38 4.276,25.924 9.22,26.395 4.943,0.471 10.22,-9.252 14.038,-24.181 C -40.733,15.152 -34.129,9.703 -26.363,9.24 -11.011,8.324 -0.474,4.971 0,0"
             style="fill:#5b21b6;fill-opacity:1;fill-rule:nonzero;stroke:none"
             id="path526" /></g><g
           id="g528"
           transform="translate(3050.6357,1177.6102)"><path
             d="m 0,0 c 0,-6.133 -12.573,-11.482 -31.352,-14.427 -9.481,-1.487 -16.948,-8.954 -18.435,-18.435 -2.945,-18.779 -8.294,-31.352 -14.427,-31.352 -6.133,0 -11.482,12.573 -14.426,31.351 -1.487,9.482 -8.956,16.95 -18.438,18.436 -18.793,2.944 -31.397,8.294 -31.397,14.427 0,6.168 12.593,11.523 31.373,14.447 9.494,1.479 16.975,8.951 18.462,18.444 2.945,18.799 8.294,31.37 14.426,31.37 6.133,0 11.481,-12.571 14.426,-31.371 1.487,-9.492 8.967,-16.964 18.46,-18.443 C -12.562,11.522 0,6.167 0,0"
             style="fill:#5b21b6;fill-opacity:1;fill-rule:nonzero;stroke:none"
             id="path530" /></g><g
           id="g532"
           transform="translate(2667.9717,3448.3413)"><path
             d="m 0,0 c 0,-6.8 -13.941,-12.731 -34.762,-15.996 -10.513,-1.649 -18.793,-9.929 -20.441,-20.441 -3.265,-20.822 -9.196,-34.763 -15.996,-34.763 -6.801,0 -12.731,13.941 -15.997,34.762 -1.648,10.513 -9.929,18.794 -20.443,20.441 -20.838,3.265 -34.812,9.196 -34.812,15.997 0,6.839 13.962,12.777 34.786,16.019 10.526,1.639 18.821,9.925 20.47,20.45 3.265,20.844 9.196,34.783 15.996,34.783 6.799,0 12.73,-13.939 15.995,-34.784 1.649,-10.524 9.943,-18.809 20.468,-20.45 C -13.929,12.776 0,6.838 0,0"
             style="fill:#5b21b6;fill-opacity:1;fill-rule:nonzero;stroke:none"
             id="path534" /></g><g
           id="g536"
           transform="translate(3278.4314,3092.3938)"><path
             d="m 0,0 c 0,-10.123 -8.207,-18.33 -18.33,-18.33 -10.124,0 -18.33,8.207 -18.33,18.33 0,10.124 8.206,18.33 18.33,18.33 C -8.207,18.33 0,10.124 0,0"
             style="fill:#5b21b6;fill-opacity:1;fill-rule:nonzero;stroke:none"
             id="path538" /></g><g
           id="g540"
           transform="translate(3430.8037,1152.5579)"><path
             d="m 0,0 c 0,-12.004 -9.731,-21.735 -21.736,-21.735 -12.004,0 -21.735,9.731 -21.735,21.735 0,12.004 9.731,21.736 21.735,21.736 C -9.731,21.736 0,12.004 0,0"
             style="fill:#5b21b6;fill-opacity:1;fill-rule:nonzero;stroke:none"
             id="path542" /></g><g
           id="g544"
           transform="translate(2626.657,601.942)"><path
             d="m 0,0 c 0,-12.004 -9.731,-21.736 -21.736,-21.736 -12.004,0 -21.735,9.732 -21.735,21.736 0,12.004 9.731,21.735 21.735,21.735 C -9.731,21.735 0,12.004 0,0"
             style="fill:#5b21b6;fill-opacity:1;fill-rule:nonzero;stroke:none"
             id="path546" /></g><g
           id="g548"
           transform="translate(745.6633,2901.031)"><path
             d="m 0,0 c 0,-12.004 -9.731,-21.736 -21.736,-21.736 -12.004,0 -21.735,9.732 -21.735,21.736 0,12.004 9.731,21.735 21.735,21.735 C -9.731,21.735 0,12.004 0,0"
             style="fill:#5b21b6;fill-opacity:1;fill-rule:nonzero;stroke:none"
             id="path550" /></g><g
           id="g552"
           transform="translate(2898.8213,3164.8708)"><path
             d="m 0,0 c 0,-10.124 -8.207,-18.33 -18.33,-18.33 -10.124,0 -18.33,8.206 -18.33,18.33 0,10.124 8.206,18.33 18.33,18.33 C -8.207,18.33 0,10.124 0,0"
             style="fill:#5b21b6;fill-opacity:1;fill-rule:nonzero;stroke:none"
             id="path554" /></g><g
           id="g556"
           transform="translate(685.0447,3362.8628)"><path
             d="m 0,0 c 0,-12.004 -9.731,-21.735 -21.735,-21.735 -12.005,0 -21.736,9.731 -21.736,21.735 0,12.004 9.731,21.736 21.736,21.736 C -9.731,21.736 0,12.004 0,0"
             style="fill:#5b21b6;fill-opacity:1;fill-rule:nonzero;stroke:none"
             id="path558" /></g><g
           id="g560"
           transform="translate(496.9626,556.4481)"><path
             d="m 0,0 c 1.078,-11.32 -7.224,-21.371 -18.544,-22.449 -11.319,-1.078 -21.37,7.224 -22.448,18.544 -1.079,11.32 7.223,21.37 18.543,22.449 C -11.129,19.622 -1.078,11.32 0,0"
             style="fill:#5b21b6;fill-opacity:1;fill-rule:nonzero;stroke:none"
             id="path562" /></g><g
           id="g564"
           transform="translate(3411.77,3372.604)"><path
             d="m 0,0 c 0,-5.206 -4.221,-9.427 -9.427,-9.427 -5.206,0 -9.427,4.221 -9.427,9.427 0,5.206 4.221,9.427 9.427,9.427 C -4.221,9.427 0,5.206 0,0"
             style="fill:#5b21b6;fill-opacity:1;fill-rule:nonzero;stroke:none"
             id="path566" /></g><g
           id="g568"
           transform="translate(2995.1479,485.1997)"><path
             d="m 0,0 c 0,-6.174 -5.005,-11.178 -11.178,-11.178 -6.174,0 -11.178,5.004 -11.178,11.178 0,6.174 5.004,11.178 11.178,11.178 C -5.005,11.178 0,6.174 0,0"
             style="fill:#5b21b6;fill-opacity:1;fill-rule:nonzero;stroke:none"
             id="path570" /></g><g
           id="g572"
           transform="translate(1150.2874,3371.5249)"><path
             d="m 0,0 c 0,-6.174 -5.005,-11.178 -11.178,-11.178 -6.174,0 -11.178,5.004 -11.178,11.178 0,6.174 5.004,11.178 11.178,11.178 C -5.005,11.178 0,6.174 0,0"
             style="fill:#5b21b6;fill-opacity:1;fill-rule:nonzero;stroke:none"
             id="path574" /></g><g
           id="g576"
           transform="translate(345.0575,2652.9165)"><path
             d="m 0,0 c 0,-6.174 -5.005,-11.178 -11.178,-11.178 -6.174,0 -11.179,5.004 -11.179,11.178 0,6.174 5.005,11.178 11.179,11.178 C -5.005,11.178 0,6.174 0,0"
             style="fill:#5b21b6;fill-opacity:1;fill-rule:nonzero;stroke:none"
             id="path578" /></g><g
           id="g580"
           transform="translate(554.6653,891.3337)"><path
             d="m 0,0 c 0.555,-5.822 -3.715,-10.99 -9.537,-11.545 -5.821,-0.555 -10.99,3.715 -11.545,9.537 -0.554,5.821 3.715,10.99 9.537,11.545 C -5.724,10.091 -0.555,5.822 0,0"
             style="fill:#5b21b6;fill-opacity:1;fill-rule:nonzero;stroke:none"
             id="path582" /></g><g
           id="g584"
           transform="translate(3312.8108,776.2051)"><path
             d="m 0,0 c 0,-6.174 -5.005,-11.178 -11.178,-11.178 -6.174,0 -11.178,5.004 -11.178,11.178 0,6.174 5.004,11.178 11.178,11.178 C -5.005,11.178 0,6.174 0,0"
             style="fill:#5b21b6;fill-opacity:1;fill-rule:nonzero;stroke:none"
             id="path586" /></g><g
           id="g588"
           transform="translate(610.8923,2244.0493)"><path
             d="m 0,0 c 0,-11.371 -9.218,-20.589 -20.589,-20.589 -11.371,0 -20.589,9.218 -20.589,20.589 0,11.371 9.218,20.589 20.589,20.589 C -9.218,20.589 0,11.371 0,0"
             style="fill:#5b21b6;fill-opacity:1;fill-rule:nonzero;stroke:none"
             id="path590" /></g></g></g></g></svg>
