<?xml version="1.0" encoding="UTF-8" standalone="no"?>
<svg
   xmlns:dc="http://purl.org/dc/elements/1.1/"
   xmlns:cc="http://creativecommons.org/ns#"
   xmlns:rdf="http://www.w3.org/1999/02/22-rdf-syntax-ns#"
   xmlns:svg="http://www.w3.org/2000/svg"
   xmlns="http://www.w3.org/2000/svg"
   xmlns:sodipodi="http://sodipodi.sourceforge.net/DTD/sodipodi-0.dtd"
   xmlns:inkscape="http://www.inkscape.org/namespaces/inkscape"
   version="1.1"
   id="svg2"
   xml:space="preserve"
   width="5333.3335"
   height="5333.3335"
   viewBox="0 0 5333.3335 5333.3335"
   sodipodi:docname="Coffee.ai"><metadata
     id="metadata8"><rdf:RDF><cc:Work
         rdf:about=""><dc:format>image/svg+xml</dc:format><dc:type
           rdf:resource="http://purl.org/dc/dcmitype/StillImage" /></cc:Work></rdf:RDF></metadata><defs
     id="defs6"><clipPath
       clipPathUnits="userSpaceOnUse"
       id="clipPath18"><path
         d="M 0,4000 H 4000 V 0 H 0 Z"
         id="path16" /></clipPath><clipPath
       clipPathUnits="userSpaceOnUse"
       id="clipPath38"><path
         d="m 2205.54,1752.95 h 670.43 v -426.19 h -670.43 z"
         id="path36" /></clipPath><clipPath
       clipPathUnits="userSpaceOnUse"
       id="clipPath62"><path
         d="M 705.297,1735.4 H 1426.08 V 1326.83 H 705.297 Z"
         id="path60" /></clipPath><clipPath
       clipPathUnits="userSpaceOnUse"
       id="clipPath102"><path
         d="M 1284.65,1576.64 H 2344.38 V 969.543 H 1284.65 Z"
         id="path100" /></clipPath><clipPath
       clipPathUnits="userSpaceOnUse"
       id="clipPath122"><path
         d="m 1811.6,1360.76 h 12.9 v -20.02 h -12.9 z"
         id="path120" /></clipPath><clipPath
       clipPathUnits="userSpaceOnUse"
       id="clipPath142"><path
         d="m 1259.57,1452.74 h 301.95 v -115.29 h -301.95 z"
         id="path140" /></clipPath><clipPath
       clipPathUnits="userSpaceOnUse"
       id="clipPath166"><path
         d="m 2063.73,1455.6 h 301.93 v -118.12 h -301.93 z"
         id="path164" /></clipPath><clipPath
       clipPathUnits="userSpaceOnUse"
       id="clipPath190"><path
         d="m 1505.22,1596.88 h 583.87 v -357.54 h -583.87 z"
         id="path188" /></clipPath><clipPath
       clipPathUnits="userSpaceOnUse"
       id="clipPath218"><path
         d="M 1881.06,1458.06 H 2016 v -91.89 h -134.94 z"
         id="path216" /></clipPath><clipPath
       clipPathUnits="userSpaceOnUse"
       id="clipPath242"><path
         d="m 1337.92,2069.32 h 962.89 v -291.28 h -962.89 z"
         id="path240" /></clipPath><clipPath
       clipPathUnits="userSpaceOnUse"
       id="clipPath266"><path
         d="m 2497,2584.01 h 164.59 V 2366.78 H 2497 Z"
         id="path264" /></clipPath><clipPath
       clipPathUnits="userSpaceOnUse"
       id="clipPath294"><path
         d="m 998.042,2567.94 h 165.778 v -208.8 H 998.042 Z"
         id="path292" /></clipPath><clipPath
       clipPathUnits="userSpaceOnUse"
       id="clipPath322"><path
         d="M 1126.17,2662.89 H 2533.13 V 1880.22 H 1126.17 Z"
         id="path320" /></clipPath><clipPath
       clipPathUnits="userSpaceOnUse"
       id="clipPath350"><path
         d="m 2211.43,2703.68 h 184.63 v -245.93 h -184.63 z"
         id="path348" /></clipPath><clipPath
       clipPathUnits="userSpaceOnUse"
       id="clipPath366"><path
         d="m 2130.82,2396.15 h 100.34 v -112.34 h -100.34 z"
         id="path364" /></clipPath><clipPath
       clipPathUnits="userSpaceOnUse"
       id="clipPath382"><path
         d="m 1508.99,2866.11 h 1019.95 v -902.7 H 1508.99 Z"
         id="path380" /></clipPath><clipPath
       clipPathUnits="userSpaceOnUse"
       id="clipPath402"><path
         d="m 1255.42,2976.03 h 599.89 V 2365.8 h -599.89 z"
         id="path400" /></clipPath><clipPath
       clipPathUnits="userSpaceOnUse"
       id="clipPath422"><path
         d="M 1092.14,1107.37 H 2286.92 V 680.627 H 1092.14 Z"
         id="path420" /></clipPath><clipPath
       clipPathUnits="userSpaceOnUse"
       id="clipPath450"><path
         d="M 1324.74,1179.51 H 2520.86 V 680.627 H 1324.74 Z"
         id="path448" /></clipPath><clipPath
       clipPathUnits="userSpaceOnUse"
       id="clipPath474"><path
         d="m 2926.73,1412.44 h 9.42 v -3.28 h -9.42 z"
         id="path472" /></clipPath><clipPath
       clipPathUnits="userSpaceOnUse"
       id="clipPath494"><path
         d="m 2706.55,1702.25 h 371.66 v -339.92 h -371.66 z"
         id="path492" /></clipPath><clipPath
       clipPathUnits="userSpaceOnUse"
       id="clipPath518"><path
         d="m 2978.93,1802.14 h 396.35 v -471.15 h -396.35 z"
         id="path516" /></clipPath><clipPath
       clipPathUnits="userSpaceOnUse"
       id="clipPath534"><path
         d="m 2924.09,1802.14 h 385.14 v -506.71 h -385.14 z"
         id="path532" /></clipPath><clipPath
       clipPathUnits="userSpaceOnUse"
       id="clipPath586"><path
         d="m 2620.52,1704.4 h 150.81 v -150.06 h -150.81 z"
         id="path584" /></clipPath><clipPath
       clipPathUnits="userSpaceOnUse"
       id="clipPath610"><path
         d="m 2688.48,1665.77 h 202.19 V 1389.2 h -202.19 z"
         id="path608" /></clipPath></defs><sodipodi:namedview
     pagecolor="#ffffff"
     bordercolor="#666666"
     borderopacity="1"
     objecttolerance="10"
     gridtolerance="10"
     guidetolerance="10"
     inkscape:pageopacity="0"
     inkscape:pageshadow="2"
     inkscape:window-width="640"
     inkscape:window-height="480"
     id="namedview4" /><g
     id="g10"
     inkscape:groupmode="layer"
     inkscape:label="Coffee"
     transform="matrix(1.3333333,0,0,-1.3333333,0,5333.3333)"><g
       id="g12"><g
         id="g14"
         clip-path="url(#clipPath18)"><g
           id="g20"
           transform="translate(2374.8135,1858.156)"><path
             d="M 0,0 V -690.658 C 0,-806.813 -95.053,-901.82 -211.162,-901.82 h -698.262 c -116.108,0 -211.161,95.007 -211.161,211.162 V 0 c 0,68.391 32.936,129.416 83.694,168.054 35.503,27.043 79.702,43.108 127.467,43.108 h 698.262 c 52.232,0 100.187,-19.249 137.163,-50.997 C -28.753,121.383 0,63.924 0,0"
             style="fill:#ffffff;fill-opacity:1;fill-rule:nonzero;stroke:none"
             id="path22" /></g><g
           id="g24"
           transform="translate(2163.6306,2105.1426)"><path
             d="m 0,0 h -698.223 c -136.179,0 -246.968,-110.791 -246.968,-246.968 v -690.686 c 0,-136.177 110.789,-246.965 246.968,-246.965 H 0 c 136.179,0 246.968,110.788 246.968,246.965 v 690.686 C 246.968,-110.791 136.179,0 0,0 m 0,-35.806 c 116.138,0 211.162,-95.022 211.162,-211.162 v -690.686 c 0,-116.138 -95.024,-211.159 -211.162,-211.159 h -698.223 c -116.137,0 -211.162,95.021 -211.162,211.159 v 690.686 c 0,116.14 95.025,211.162 211.162,211.162 H 0"
             style="fill:#371a45;fill-opacity:1;fill-rule:nonzero;stroke:none"
             id="path26" /></g><g
           id="g28"
           transform="translate(2080.0083,2094.0356)"><path
             d="m 0,0 c 260.081,-89.305 279.282,-295.259 459.203,-414.811 77.879,-51.749 159.23,-39.112 256.376,-13.048 51.78,13.892 76.633,-37.44 80.034,-125.317 4.739,-122.42 -37.384,-209.036 -292.159,-214.01 -296.937,-5.798 -348.346,345.73 -348.346,345.73"
             style="fill:#ffffff;fill-opacity:1;fill-rule:nonzero;stroke:none"
             id="path30" /></g><g
           id="g32"><g
             id="g34" /><g
             id="g46"><g
               clip-path="url(#clipPath38)"
               opacity="0.350006"
               id="g44"><g
                 transform="translate(2583.4629,1326.83)"
                 id="g42"><path
                   d="m 0,0 c -296.955,-5.774 -348.335,345.739 -348.335,345.739 l -29.584,80.382 C -255.422,351.87 -275.652,88.706 0,94.076 c 210.666,4.118 275.92,64.046 289.571,153.871 1.253,-10.562 2.148,-21.93 2.596,-33.925 C 296.911,91.615 254.795,5.012 0,0"
                   style="fill:#371a45;fill-opacity:1;fill-rule:nonzero;stroke:none"
                   id="path40" /></g></g></g></g><g
           id="g48"
           transform="translate(2576.3699,1308.8755)"><path
             d="m 0,0 c -124.946,-0.005 -226.462,62.026 -293.962,179.761 -51.072,89.082 -64.458,177.627 -65.005,181.352 -1.431,9.785 5.342,18.877 15.124,20.308 9.776,1.406 18.875,-5.347 20.305,-15.122 0.125,-0.845 13.174,-86.377 61.145,-169.614 C -199.585,87.72 -108.97,33.408 6.743,35.874 c 121.531,2.373 199.71,23.774 239.007,65.43 27.001,28.623 37.985,68.711 35.615,129.985 -2.876,74.248 -20.33,97.876 -30.479,105.352 -4.533,3.335 -12.265,7.319 -27.029,3.369 -92.993,-24.951 -183.689,-42.539 -270.923,15.429 -75.861,50.406 -124.433,116.05 -171.406,179.527 -69.306,93.657 -134.768,182.121 -283.703,233.264 -9.353,3.21 -14.331,13.394 -11.118,22.744 3.21,9.353 13.386,14.329 22.744,11.118 159.47,-54.758 231.347,-151.892 300.859,-245.827 47.214,-63.804 91.809,-124.073 162.439,-171.001 68.088,-45.249 137.519,-38.653 241.831,-10.674 21.658,5.806 41.558,2.661 57.544,-9.121 C 299.36,345.4 314.507,300.723 317.141,232.676 319.009,184.429 315.542,123.105 271.794,76.733 224.912,27.041 140.913,2.681 7.441,0.073 4.958,0.024 2.466,0 0,0"
             style="fill:#371a45;fill-opacity:1;fill-rule:nonzero;stroke:none"
             id="path50" /></g><g
           id="g52"
           transform="translate(1548.0771,2094.0356)"><path
             d="m 0,0 c -260.081,-89.305 -297.683,-302.383 -474.726,-426.157 -52.843,-36.943 -125.601,-57.186 -240.758,-39.168 -52.966,8.287 -115.939,15.667 -126.839,-71.597 -8.859,-70.925 113.783,-230.768 338.869,-230.264 296.993,0.664 348.345,345.73 348.345,345.73 z"
             style="fill:#ffffff;fill-opacity:1;fill-rule:nonzero;stroke:none"
             id="path54" /></g><g
           id="g56"><g
             id="g58" /><g
             id="g70"><g
               clip-path="url(#clipPath62)"
               opacity="0.350006"
               id="g68"><g
                 transform="translate(1426.082,1735.4028)"
                 id="g66"><path
                   d="m 0,0 -33.106,-62.808 c 0,0 -51.37,-345.064 -348.359,-345.762 -225.1,-0.5 -347.709,159.351 -338.873,230.291 0.599,4.793 1.348,9.286 2.247,13.529 23.463,-113.673 153.499,-183.05 342.256,-182.651 C -97.169,-346.802 -152.065,-64.605 0,0"
                   style="fill:#371a45;fill-opacity:1;fill-rule:nonzero;stroke:none"
                   id="path64" /></g></g></g></g><g
           id="g72"
           transform="translate(1043.5377,1308.9438)"><path
             d="m 0,0 c -171.865,-0.005 -268.359,88.066 -301.921,125.996 -37.952,42.891 -57.998,89.39 -53.626,124.39 4.273,34.209 16.636,59.238 36.748,74.389 32.954,24.829 77.844,17.808 110.62,12.676 98.135,-15.347 170.489,-3.867 227.737,36.157 67.8,47.403 114.124,107.891 163.167,171.934 75.586,98.706 153.745,200.767 316.001,256.482 9.345,3.215 19.536,-1.768 22.744,-11.118 3.213,-9.351 -1.765,-19.534 -11.118,-22.744 C 358.323,715.957 283.506,618.257 211.152,523.774 162.61,460.386 112.415,394.839 40.073,344.263 c -64.409,-45.03 -147.414,-58.838 -253.786,-42.183 -33.033,5.166 -64.285,8.599 -83.54,-5.903 -12.251,-9.229 -19.698,-25.66 -22.767,-50.225 -2.294,-18.384 8.089,-54.614 44.915,-96.23 C -244.763,115.43 -157.28,35.806 0.002,35.806 h 1.045 c 278.372,0.625 330.186,327.168 330.677,330.468 1.457,9.781 10.554,16.573 20.341,15.069 9.781,-1.455 16.529,-10.562 15.074,-20.342 C 366.594,357.344 353.21,270.342 302.126,182.056 233.381,63.242 129.297,0.288 1.125,0.005 0.757,0 0.369,0 0,0"
             style="fill:#371a45;fill-opacity:1;fill-rule:nonzero;stroke:none"
             id="path74" /></g><g
           id="g76"
           transform="translate(1333.8502,1493.9536)"><path
             d="m 0,0 c -6.904,0 -12.5,5.596 -12.5,12.5 0,148.345 -143.142,254.727 -144.587,255.786 -5.572,4.072 -6.79,11.89 -2.723,17.461 4.07,5.571 11.88,6.802 17.459,2.73 C -136.03,283.867 12.5,173.711 12.5,12.5 12.5,5.596 6.904,0 0,0"
             style="fill:#371a45;fill-opacity:1;fill-rule:nonzero;stroke:none"
             id="path78" /></g><g
           id="g80"
           transform="translate(852.4406,1610.9575)"><path
             d="M 0,0 C -47.004,54.31 2.921,88.271 53.105,59.533 98.704,33.42 139.439,1.948 191.142,16.901 c 0,0 -3.917,-32.834 -45.436,-68.869 C 104.188,-88.003 0,0 0,0"
             style="fill:#ffffff;fill-opacity:1;fill-rule:nonzero;stroke:none"
             id="path82" /></g><g
           id="g84"
           transform="translate(838.9045,1599.2422)"><path
             d="m 0,0 c -9.418,9.69 -18.374,21.255 -22.883,37.596 -2.146,8.09 -3.067,17.719 -0.178,27.593 1.25,4.907 3.673,9.646 6.521,13.926 2.974,4.221 6.649,7.83 10.578,10.704 7.915,5.764 16.602,8.639 24.838,9.879 8.294,1.166 16.201,0.624 23.656,-0.767 7.458,-1.388 14.452,-3.852 20.915,-6.96 3.211,-1.589 6.371,-3.233 9.347,-5.102 1.593,-0.935 2.913,-1.795 4.125,-2.617 l 3.791,-2.52 c 20.119,-13.442 38.506,-27.628 58.333,-37.954 9.879,-5.216 20.173,-9.239 31.027,-11.576 10.847,-2.283 22.271,-2.659 33.897,-1.129 l 0.037,0.005 c 1.414,0.185 2.71,-0.809 2.897,-2.223 0.152,-1.161 -0.495,-2.242 -1.512,-2.695 -11.203,-4.978 -23.762,-7.838 -36.556,-7.976 -12.814,-0.278 -25.621,2.168 -37.729,5.8 -24.257,7.548 -45.832,19.499 -66.685,29.883 l -3.899,1.958 c -1.339,0.691 -2.596,1.301 -3.639,1.73 -2.201,1.038 -4.451,1.841 -6.672,2.631 -4.468,1.506 -8.966,2.349 -13.227,2.8 -8.536,0.921 -16.366,-1.359 -19.561,-4.177 -1.547,-1.48 -2.254,-2.494 -2.69,-4.148 -0.484,-1.571 -0.511,-4.219 0.202,-7.57 0.786,-3.324 2.266,-7.274 4.39,-11.278 2.124,-4.043 4.875,-8.173 7.75,-12.382 l 0.572,-0.838 C 33.226,14.42 31.126,3.271 22.954,-2.31 15.647,-7.3 5.958,-6.141 0,0"
             style="fill:#371a45;fill-opacity:1;fill-rule:nonzero;stroke:none"
             id="path86" /></g><g
           id="g88"
           transform="translate(1065.517,1433.4426)"><path
             d="m 0,0 c -8.315,-0.807 -17.239,-0.19 -25.621,3.041 -8.373,3.215 -15.819,8.612 -22.036,14.63 -6.35,5.983 -11.643,12.552 -16.722,19.023 l -14.875,19.121 c -9.743,12.52 -20.043,24.081 -31.179,34.557 -11.114,10.574 -23.225,19.58 -36.066,28.048 -13.542,9.025 -26.609,17.378 -39.994,24.842 -13.369,7.439 -27.008,13.866 -40.895,19.073 -27.793,10.694 -56.77,14.683 -86.203,13.927 l -0.476,-0.012 c -9.894,-0.255 -18.12,7.56 -18.374,17.452 -0.236,9.152 6.435,16.875 15.266,18.184 34.898,5.214 71.627,0.035 103.868,-13.356 32.52,-12.9 60.733,-33.634 85.722,-53.954 13.359,-10.411 25.936,-22.478 36.964,-35.438 11.213,-12.879 20.51,-27.148 28.976,-41.291 8.4,-14.185 15.614,-28.648 24.416,-40.855 4.436,-6.09 9.559,-11.324 15.803,-15.102 C -15.161,8.229 -7.806,5.969 0,5.115 L 0.032,5.111 C 1.443,4.957 2.461,3.688 2.307,2.278 2.172,1.046 1.187,0.114 0,0"
             style="fill:#371a45;fill-opacity:1;fill-rule:nonzero;stroke:none"
             id="path90" /></g><g
           id="g92"
           transform="translate(2344.366,969.543)"><path
             d="m 0,0 h -1059.707 c 0,0 -1.161,118.408 19.702,294.258 3.716,31.547 8.167,64.991 13.509,99.944 23.38,154.096 63.133,337.378 130.833,519.538 10.18,27.405 21.018,54.772 32.476,82.022 9.135,21.638 18.657,43.159 28.683,64.565 7.277,15.677 14.825,31.276 22.605,46.798 h 564.129 c 7.781,-15.522 15.329,-31.121 22.606,-46.798 10.142,-21.638 19.78,-43.469 28.992,-65.339 13.122,-31.199 25.393,-62.552 36.85,-93.905 64.836,-177.98 103.312,-356.346 126.111,-506.842 5.341,-35.07 9.793,-68.63 13.548,-100.293 C 1.161,118.253 0,0 0,0"
             style="fill:#ffffff;fill-opacity:1;fill-rule:nonzero;stroke:none"
             id="path94" /></g><g
           id="g96"><g
             id="g98" /><g
             id="g110"><g
               clip-path="url(#clipPath102)"
               opacity="0.350006"
               id="g108"><g
                 transform="translate(2344.366,969.543)"
                 id="g106"><path
                   d="m 0,0 h -1059.707 c 0,0 -1.161,118.408 19.702,294.258 3.716,31.547 8.167,64.991 13.509,99.944 10.065,66.345 23.186,138.148 40.256,212.894 55.353,-193.385 233.68,-340.63 452.109,-340.63 h 9.484 c 217.848,0 395.672,146.471 451.567,339.12 16.915,-74.203 29.882,-145.464 39.869,-211.345 5.341,-35.07 9.793,-68.63 13.548,-100.293 C 1.161,118.253 0,0 0,0"
                   style="fill:#371a45;fill-opacity:1;fill-rule:nonzero;stroke:none"
                   id="path104" /></g></g></g></g><g
           id="g112"
           transform="translate(2240.9028,1717.6064)"><path
             d="m 0,0 c 27.039,-58.018 44.565,-119.337 58.153,-181.284 7.422,-30.873 12.669,-62.18 18.285,-93.399 2.659,-15.636 4.857,-31.345 7.306,-47.01 l 3.673,-23.497 3.242,-23.558 6.367,-47.125 5.818,-47.193 c 3.454,-31.512 6.77,-63.041 9.359,-94.644 5.265,-63.309 8.915,-126.284 9.159,-190.514 l 0.069,-17.728 h -17.97 -538.863 v 35.804 h 18.035 v -35.804 h -538.862 -17.97 l 0.068,17.728 c 0.248,64.536 3.926,127.813 9.236,191.423 5.351,63.49 12.535,126.814 21.946,189.827 l 3.412,23.645 3.891,23.574 c 2.654,15.706 5.059,31.454 7.919,47.126 6.024,31.291 11.478,62.679 17.75,93.944 3.123,15.631 5.819,31.362 9.644,46.847 3.734,15.504 7.949,30.897 12.341,46.231 4.221,15.375 9.552,30.469 15.657,45.32 5.969,14.884 12.525,29.583 20.571,43.781 1.671,2.948 5.415,3.983 8.362,2.312 2.024,-1.147 3.147,-3.271 3.11,-5.445 l -0.003,-0.174 c -0.619,-32.691 -6.854,-63.528 -12.625,-94.523 -3.047,-15.45 -6.272,-30.842 -9.977,-46.122 l -10.616,-45.975 c -14.622,-61.234 -24.619,-123.482 -34.009,-185.728 -9.304,-62.281 -16.406,-124.9 -21.693,-187.639 -5.25,-62.613 -8.873,-125.918 -9.113,-188.076 l -17.901,17.728 h 538.862 v -35.804 h -18.035 v 35.804 h 538.863 l -17.902,-17.728 c -0.236,61.859 -3.83,124.862 -9.036,187.178 -5.341,62.427 -12.07,124.796 -21.72,186.723 l -3.483,23.24 -3.997,23.157 c -2.782,15.416 -5.311,30.876 -8.297,46.249 -6.16,30.709 -11.73,61.521 -18.093,92.174 C 9.344,-127.538 -5.078,-66.82 -11.472,-3.291 l -0.014,0.134 C -11.82,0.162 -9.399,3.124 -6.08,3.458 -3.458,3.722 -1.057,2.258 0,0"
             style="fill:#371a45;fill-opacity:1;fill-rule:nonzero;stroke:none"
             id="path114" /></g><g
           id="g116"><g
             id="g118" /><g
             id="g130"><g
               clip-path="url(#clipPath122)"
               opacity="0.350006"
               id="g128"><g
                 transform="translate(1811.6039,1360.7595)"
                 id="g126"><path
                   d="M 0,0 C 4.435,-6.798 8.747,-13.472 12.892,-20.022 8.705,-13.472 4.394,-6.757 0,0"
                   style="fill:#371a45;fill-opacity:1;fill-rule:nonzero;stroke:none"
                   id="path124" /></g></g></g></g><g
           id="g132"
           transform="translate(1561.507,1357.0171)"><path
             d="m 0,0 c -65.658,-26.58 -167.27,-21.018 -236.544,-12.636 -41.549,5.027 -70.714,43.368 -64.593,84.77 v 0 c 5.585,37.78 38.84,65.254 76.989,63.467 64.795,-3.037 161.986,-4.459 223.536,9.195"
             style="fill:#ffffff;fill-opacity:1;fill-rule:nonzero;stroke:none"
             id="path134" /></g><g
           id="g136"><g
             id="g138" /><g
             id="g150"><g
               clip-path="url(#clipPath142)"
               opacity="0.350006"
               id="g148"><g
                 transform="translate(1561.5232,1357.0283)"
                 id="g146"><path
                   d="m 0,0 c -65.678,-26.618 -167.291,-21.005 -236.557,-12.673 -41.548,5.035 -70.712,43.4 -64.578,84.774 1.215,8.449 3.877,16.376 7.638,23.609 10.937,-20.889 31.653,-36.281 56.94,-39.348 69.15,-8.391 170.59,-13.946 236.268,12.499 z"
                   style="fill:#371a45;fill-opacity:1;fill-rule:nonzero;stroke:none"
                   id="path144" /></g></g></g></g><g
           id="g152"
           transform="translate(1561.5065,1357.015)"><path
             d="m 0,0 h 0.049 z m -227.686,117.783 c -27.9,0 -51.611,-20.322 -55.742,-48.261 -2.253,-15.24 1.648,-30.372 10.987,-42.608 9.309,-12.202 22.822,-19.931 38.047,-21.772 98.984,-11.983 179.838,-7.915 227.678,11.455 13.781,5.581 17.898,27.934 19.028,37.29 4.045,33.501 -6.04,64.819 -12.493,72.69 -62.453,-13.056 -156.396,-12.065 -224.804,-8.857 -0.901,0.039 -1.807,0.063 -2.701,0.063 m 97.151,-155.244 c -38.01,0 -75.803,3.14 -108.159,7.056 -24.897,3.013 -46.992,15.654 -62.212,35.6 -15.246,19.981 -21.618,44.683 -17.942,69.556 6.966,47.109 47.935,81.074 95.537,78.731 67.51,-3.155 160.271,-4.19 218.824,8.793 9.299,2.061 32.429,2.154 46.006,-41.508 C 55.249,76.611 53.682,2.422 6.719,-16.592 l -0.003,-0.005 c -38.569,-15.61 -88.091,-20.864 -137.251,-20.864"
             style="fill:#371a45;fill-opacity:1;fill-rule:nonzero;stroke:none"
             id="path154" /></g><g
           id="g156"
           transform="translate(2300.2522,1344.3859)"><path
             d="m 0,0 c -32.5,-3.938 -72.169,-7.254 -111.882,-6.881 -2.736,0 -5.43,0.041 -8.166,0.124 -2.86,0.042 -5.762,0.125 -8.622,0.249 -1.949,0.041 -3.855,0.124 -5.72,0.207 -2.281,0.124 -4.519,0.249 -6.758,0.373 -2.86,0.166 -5.72,0.373 -8.539,0.58 h -0.207 c -2.819,0.207 -5.679,0.456 -8.498,0.747 -1.865,0.166 -3.731,0.373 -5.555,0.58 -1.575,0.124 -3.15,0.332 -4.684,0.498 -2.446,0.289 -4.891,0.621 -7.254,0.953 -2.28,0.331 -4.519,0.663 -6.716,1.036 -0.455,0.042 -0.912,0.083 -1.326,0.208 -2.612,0.372 -5.182,0.828 -7.71,1.326 -2.57,0.456 -5.099,0.953 -7.586,1.492 -0.207,0.042 -0.414,0.083 -0.622,0.125 -1.41,0.331 -2.819,0.621 -4.187,0.953 -1.534,0.331 -3.067,0.704 -4.601,1.119 h -0.042 c -4.684,1.161 -9.285,2.487 -13.762,3.897 -2.404,0.746 -4.809,1.575 -7.171,2.404 -2.363,0.829 -4.684,1.741 -6.923,2.653 l 0.29,69.517 0.332,75.278 c 15.752,-3.523 33.867,-6.011 53.142,-7.751 56.045,-5.099 122.163,-3.69 170.372,-1.452 1.161,0.042 2.322,0.083 3.524,0.083 36.644,0 68.066,-26.944 73.455,-63.547 C 70.719,43.36 41.536,5.016 0,0"
             style="fill:#ffffff;fill-opacity:1;fill-rule:nonzero;stroke:none"
             id="path158" /></g><g
           id="g160"><g
             id="g162" /><g
             id="g174"><g
               clip-path="url(#clipPath166)"
               opacity="0.350006"
               id="g172"><g
                 transform="translate(2300.2568,1344.3865)"
                 id="g170"><path
                   d="m 0,0 c -32.5,-3.938 -72.17,-7.254 -111.882,-6.881 -2.736,0 -5.43,0.041 -8.166,0.124 -2.86,0.042 -5.762,0.125 -8.622,0.249 -1.948,0.042 -3.855,0.125 -5.721,0.208 -2.279,0.124 -4.518,0.248 -6.757,0.372 -2.86,0.166 -5.72,0.373 -8.539,0.581 h -0.207 c -2.819,0.207 -5.679,0.455 -8.498,0.746 -1.865,0.166 -3.731,0.373 -5.555,0.58 -1.575,0.124 -3.15,0.332 -4.684,0.498 -2.446,0.29 -4.892,0.622 -7.254,0.953 -2.28,0.332 -4.519,0.663 -6.716,1.036 -0.456,0.042 -0.911,0.083 -1.326,0.208 -2.612,0.373 -5.182,0.829 -7.71,1.326 -2.571,0.456 -5.099,0.954 -7.586,1.492 -0.208,0.042 -0.415,0.083 -0.622,0.125 -1.41,0.332 -2.819,0.622 -4.187,0.953 -1.534,0.332 -3.067,0.705 -4.601,1.119 h -0.042 c -4.684,1.161 -9.285,2.488 -13.762,3.897 -2.404,0.746 -4.809,1.575 -7.171,2.404 -2.363,0.829 -4.684,1.741 -6.923,2.653 l 0.29,69.517 0.042,5.016 c 2.114,-0.871 4.352,-1.741 6.591,-2.529 2.362,-0.829 4.767,-1.658 7.171,-2.404 4.477,-1.41 9.078,-2.736 13.762,-3.897 h 0.042 c 1.534,-0.414 3.067,-0.787 4.601,-1.119 1.368,-0.331 2.777,-0.621 4.187,-0.953 l 0.622,-0.125 c 2.487,-0.539 5.015,-1.036 7.586,-1.492 2.528,-0.497 5.098,-0.953 7.71,-1.326 0.415,-0.125 0.87,-0.166 1.326,-0.208 2.197,-0.373 4.436,-0.704 6.716,-1.036 2.362,-0.332 4.808,-0.663 7.254,-0.953 1.534,-0.166 3.109,-0.374 4.684,-0.498 1.824,-0.207 3.69,-0.414 5.555,-0.58 2.819,-0.291 5.679,-0.539 8.498,-0.746 h 0.207 c 2.819,-0.208 5.679,-0.415 8.539,-0.581 2.239,-0.124 4.478,-0.249 6.757,-0.373 1.866,-0.083 3.773,-0.166 5.721,-0.207 2.86,-0.124 5.762,-0.207 8.622,-0.249 2.736,-0.083 5.43,-0.124 8.166,-0.124 C -72.17,67.403 -32.5,70.719 0,74.657 c 24.126,2.902 44.106,17.079 55.382,36.561 4.6,-7.958 7.793,-16.871 9.201,-26.446 C 70.719,43.36 41.536,5.016 0,0"
                   style="fill:#371a45;fill-opacity:1;fill-rule:nonzero;stroke:none"
                   id="path168" /></g></g></g></g><g
           id="g176"
           transform="translate(2070.4297,1373.6118)"><path
             d="m 0,0 c 47.84,-19.37 128.689,-23.437 227.676,-11.455 15.227,1.841 28.74,9.575 38.049,21.772 9.339,12.237 13.24,27.364 10.987,42.603 -4.265,28.843 -29.327,49.448 -58.443,48.203 C 149.858,97.92 55.918,96.914 -6.535,109.985 -12.988,102.109 -23.074,70.791 -19.028,37.29 -17.898,27.935 -13.781,5.581 0,0 m 123.821,-54.058 c -49.167,0 -98.679,5.249 -137.253,20.865 l -0.003,0.005 c -46.963,19.013 -48.53,93.203 -34.8,137.358 13.572,43.667 36.692,43.599 46.004,41.509 58.552,-12.989 151.318,-11.944 218.825,-8.794 47.547,2.397 88.572,-31.621 95.538,-78.726 3.676,-24.878 -2.696,-49.585 -17.945,-69.565 -15.219,-19.942 -37.312,-32.583 -62.212,-35.596 -32.351,-3.916 -70.151,-7.056 -108.154,-7.056"
             style="fill:#371a45;fill-opacity:1;fill-rule:nonzero;stroke:none"
             id="path178" /></g><g
           id="g180"
           transform="translate(2089.0891,1549.6643)"><path
             d="m 0,0 v -232.042 c 0,-43.053 -35.241,-78.293 -78.293,-78.293 h -427.341 c -42.995,0 -78.236,35.24 -78.236,78.293 V 0 c 0,43.053 35.241,78.235 78.236,78.235 h 427.341 c 25.345,0 47.971,-12.209 62.322,-31.015 C -5.96,34.084 0,17.707 0,0"
             style="fill:#ffffff;fill-opacity:1;fill-rule:nonzero;stroke:none"
             id="path182" /></g><g
           id="g184"><g
             id="g186" /><g
             id="g198"><g
               clip-path="url(#clipPath190)"
               opacity="0.350006"
               id="g196"><g
                 transform="translate(2089.0908,1549.6608)"
                 id="g194"><path
                   d="m 0,0 v -232.054 c 0,-43.028 -35.235,-78.263 -78.305,-78.263 h -427.339 c -43.022,0 -78.222,35.2 -78.222,78.223 v 86.843 c 45.78,-89.009 201.333,-124.015 329.31,-111.054 28.587,2.895 49.031,30.058 42.212,57.969 -2.036,8.331 -3.129,17.16 -3.129,26.306 0,50.614 33.535,91.653 74.906,91.653 40.002,0 72.749,-38.385 74.864,-86.72 51.277,67.03 54.054,156.734 49.743,214.313 C -5.97,34.075 0,17.7 0,0"
                   style="fill:#371a45;fill-opacity:1;fill-rule:nonzero;stroke:none"
                   id="path192" /></g></g></g></g><g
           id="g200"
           transform="translate(1583.4718,1610.0181)"><path
             d="m 0,0 c -33.276,0 -60.349,-27.075 -60.349,-60.352 v -232.075 c 0,-33.276 27.073,-60.347 60.349,-60.347 h 427.351 c 33.276,0 60.347,27.071 60.347,60.347 V -60.352 C 487.698,-27.075 460.627,0 427.351,0 Z M 427.351,-388.574 H 0 c -53.02,0 -96.155,43.13 -96.155,96.147 v 232.075 c 0,53.018 43.135,96.153 96.155,96.153 h 427.351 c 53.018,0 96.152,-43.135 96.152,-96.153 v -232.075 c 0,-53.017 -43.134,-96.147 -96.152,-96.147"
             style="fill:#371a45;fill-opacity:1;fill-rule:nonzero;stroke:none"
             id="path202" /></g><g
           id="g204"
           transform="translate(2016.024,1433.6295)"><path
             d="m 0,0 c 0,-37.27 -30.213,-67.483 -67.483,-67.483 -37.271,0 -67.484,30.213 -67.484,67.483 0,37.27 30.213,67.484 67.484,67.484 C -30.213,67.484 0,37.27 0,0"
             style="fill:#b9189b;fill-opacity:1;fill-rule:nonzero;stroke:none"
             id="path206" /></g><g
           id="g208"
           transform="translate(2016.0338,1433.6108)"><path
             d="m 0,0 c 0,-3.664 -0.279,-7.248 -0.876,-10.752 -5.137,32.175 -33.011,56.744 -66.62,56.744 -33.608,0 -61.483,-24.569 -66.619,-56.744 -0.598,3.504 -0.877,7.088 -0.877,10.752 0,37.271 30.224,67.495 67.496,67.495 C -30.224,67.495 0,37.271 0,0"
             style="fill:#ffffff;fill-opacity:1;fill-rule:nonzero;stroke:none"
             id="path210" /></g><g
           id="g212"><g
             id="g214" /><g
             id="g226"><g
               clip-path="url(#clipPath218)"
               opacity="0.350006"
               id="g224"><g
                 transform="translate(2016.0042,1433.6431)"
                 id="g222"><path
                   d="m 0,0 c 0,-37.266 -30.206,-67.472 -67.472,-67.472 -37.266,0 -67.472,30.206 -67.472,67.472 0,8.622 1.62,16.839 4.629,24.419 9.722,-25.171 34.199,-42.995 62.843,-42.995 28.644,0 53.121,17.824 62.843,42.995 C -1.62,16.839 0,8.622 0,0"
                   style="fill:#371a45;fill-opacity:1;fill-rule:nonzero;stroke:none"
                   id="path220" /></g></g></g></g><g
           id="g228"
           transform="translate(1948.5402,1487.6841)"><path
             d="m 0,0 c -29.807,0 -54.055,-24.248 -54.055,-54.053 0,-29.809 24.248,-54.057 54.055,-54.057 29.807,0 54.055,24.248 54.055,54.057 C 54.055,-24.248 29.807,0 0,0 m 0,-134.966 c -44.614,0 -80.911,36.299 -80.911,80.913 0,44.615 36.297,80.908 80.911,80.908 44.614,0 80.911,-36.293 80.911,-80.908 0,-44.614 -36.297,-80.913 -80.911,-80.913"
             style="fill:#371a45;fill-opacity:1;fill-rule:nonzero;stroke:none"
             id="path230" /></g><g
           id="g232"
           transform="translate(1757.3024,1224.3441)"><path
             d="m 0,0 c -8.284,0 -15,6.714 -15,15 v 111.978 c 0,28.803 -13.74,56.347 -36.755,73.676 -30.501,22.959 -48.711,59.458 -48.711,97.642 v 105.278 c 0,8.286 6.716,15 15,15 8.283,0 15,-6.714 15,-15 V 298.296 c 0,-28.809 13.74,-56.353 36.753,-73.677 C -3.21,201.655 15,165.156 15,126.978 V 15 C 15,6.714 8.284,0 0,0"
             style="fill:#371a45;fill-opacity:1;fill-rule:nonzero;stroke:none"
             id="path234" /></g><g
           id="g236"><g
             id="g238" /><g
             id="g250"><g
               clip-path="url(#clipPath242)"
               opacity="0.350006"
               id="g248"><g
                 transform="translate(2300.8147,2018.3214)"
                 id="g246"><path
                   d="m 0,0 c -126.611,-159.167 -315.245,-253.698 -520.18,-238.727 -178.32,13.023 -334.731,106.507 -442.712,246.616 35.503,27.043 79.702,43.107 127.467,43.107 h 698.262 C -84.931,50.996 -36.976,31.747 0,0"
                   style="fill:#371a45;fill-opacity:1;fill-rule:nonzero;stroke:none"
                   id="path244" /></g></g></g></g><g
           id="g252"
           transform="translate(2512.0769,2366.8096)"><path
             d="m 0,0 v 0 c -7.915,-0.044 -14.367,6.336 -14.411,14.25 l -2.321,412.791 c -0.045,7.914 6.335,14.366 14.25,14.411 v 0 c 83.033,0.467 150.723,-66.466 151.19,-149.499 L 149.499,151.19 C 149.966,68.157 83.033,0.467 0,0"
             style="fill:#ffffff;fill-opacity:1;fill-rule:nonzero;stroke:none"
             id="path254" /></g><g
           id="g256"
           transform="translate(2510.4666,2804.8936)"><path
             d="m 0,0 c -0.283,0 -0.567,0 -0.852,-0.002 -2.93,-0.015 -5.677,-1.172 -7.735,-3.252 -2.058,-2.083 -3.183,-4.842 -3.166,-7.769 l 2.322,-412.79 c 0.014,-2.93 1.172,-5.677 3.252,-7.735 2.068,-2.043 4.804,-3.169 7.71,-3.169 0.019,0 0.041,0.003 0.061,0.003 39.26,0.219 76.081,15.715 103.686,43.63 27.603,27.917 42.683,64.912 42.461,104.17 l -0.791,140.764 c -0.219,39.26 -15.715,76.082 -43.63,103.687 C 75.603,-15.061 38.94,0 0,0 m 1.528,-441.453 c -4.69,0 -9.104,1.814 -12.441,5.115 -3.364,3.325 -5.23,7.759 -5.256,12.485 l -2.322,412.791 c -0.025,4.727 1.792,9.182 5.115,12.544 3.325,3.362 7.758,5.227 12.485,5.254 40.972,0.244 79.748,-15.54 108.945,-44.409 29.195,-28.87 45.4,-67.381 45.633,-108.438 l 0.791,-140.764 c 0.231,-41.057 -15.54,-79.749 -44.41,-108.945 -28.869,-29.195 -67.38,-45.401 -108.437,-45.633 z"
             style="fill:#371a45;fill-opacity:1;fill-rule:nonzero;stroke:none"
             id="path258" /></g><g
           id="g260"><g
             id="g262" /><g
             id="g274"><g
               clip-path="url(#clipPath266)"
               opacity="0.350006"
               id="g272"><g
                 transform="translate(2661.2043,2584.0056)"
                 id="g270"><path
                   d="m 0,0 0.386,-66.019 c 0.456,-83.004 -66.471,-150.709 -149.522,-151.206 -7.912,-0.054 -14.361,6.369 -14.414,14.281 l -0.653,109.734 c 2.25,-4.99 7.277,-8.416 13.087,-8.428 l 9.789,0.082 C -75.711,-101.202 -20.114,-58.824 0,0"
                   style="fill:#371a45;fill-opacity:1;fill-rule:nonzero;stroke:none"
                   id="path268" /></g></g></g></g><g
           id="g276"
           transform="translate(2514.1165,2789.4663)"><path
             d="m 0,0 2.273,-403.811 c 33.489,1.284 64.741,15.024 88.418,38.97 24.717,24.995 38.217,58.117 38.02,93.269 l -0.791,140.764 c -0.198,35.151 -14.072,68.12 -39.067,92.834 C 64.907,-14.294 33.501,-0.908 0,0 m -2.124,-441.404 c -8.765,0 -17.017,3.389 -23.255,9.556 -6.281,6.213 -9.77,14.502 -9.819,23.337 L -37.52,4.28 c -0.048,8.835 3.345,17.16 9.558,23.442 6.214,6.284 14.5,9.771 23.336,9.82 45.322,0.358 87.726,-17.095 119.843,-48.853 32.117,-31.758 49.944,-74.121 50.198,-119.287 l 0.791,-140.764 c 0.254,-45.166 -17.095,-87.727 -48.852,-119.844 -31.758,-32.117 -74.122,-49.944 -119.288,-50.198 z"
             style="fill:#371a45;fill-opacity:1;fill-rule:nonzero;stroke:none"
             id="path278" /></g><g
           id="g280"
           transform="translate(1147.0707,2800.6003)"><path
             d="m 0,0 v 0 c 7.915,0.044 14.367,-6.335 14.411,-14.25 l 2.321,-412.79 c 0.045,-7.915 -6.335,-14.367 -14.25,-14.412 v 0 c -83.033,-0.466 -150.723,66.466 -151.19,149.499 l -0.791,140.763 C -149.966,-68.157 -83.033,-0.467 0,0"
             style="fill:#ffffff;fill-opacity:1;fill-rule:nonzero;stroke:none"
             id="path282" /></g><g
           id="g284"
           transform="translate(1147.09,2797.2324)"><path
             d="m 0,0 c -81.042,-0.457 -146.606,-66.76 -146.15,-147.803 l 0.791,-140.761 c 0.454,-80.762 66.306,-146.15 146.965,-146.153 0.281,0 0.557,0 0.838,0.003 2.93,0.014 5.676,1.172 7.734,3.252 2.058,2.082 3.184,4.843 3.167,7.771 l -2.322,412.79 C 11.008,-7.971 9.851,-5.225 7.771,-3.167 5.691,-1.108 2.888,0.166 0,0 m 1.604,-441.455 c -84.36,-0.003 -153.223,68.384 -153.701,152.851 l -0.791,140.762 C -153.364,-63.086 -84.795,6.26 -0.039,6.738 4.863,6.631 9.143,4.949 12.505,1.624 c 3.364,-3.326 5.229,-7.759 5.256,-12.486 l 2.322,-412.79 c 0.024,-4.729 -1.792,-9.185 -5.115,-12.544 -3.325,-3.365 -7.758,-5.23 -12.485,-5.257 -0.291,0 -0.588,-0.002 -0.879,-0.002"
             style="fill:#371a45;fill-opacity:1;fill-rule:nonzero;stroke:none"
             id="path286" /></g><g
           id="g288"><g
             id="g290" /><g
             id="g302"><g
               clip-path="url(#clipPath294)"
               opacity="0.350006"
               id="g300"><g
                 transform="translate(1163.192,2488.0764)"
                 id="g298"><path
                   d="m 0,0 0.631,-114.516 c 0.053,-7.912 -6.37,-14.36 -14.281,-14.415 -43.581,-0.226 -82.978,18.09 -110.614,47.597 -24.957,26.647 -40.321,62.457 -40.549,101.879 l -0.337,59.314 c 23.862,-51.905 76.581,-87.864 137.459,-87.533 l 15.063,0.088 C -7.129,-7.543 -2.47,-4.478 0,0"
                   style="fill:#371a45;fill-opacity:1;fill-rule:nonzero;stroke:none"
                   id="path296" /></g></g></g></g><g
           id="g304"
           transform="translate(1142.7589,2781.7563)"><path
             d="m 0,0 c -70.51,-2.737 -126.838,-61.157 -126.44,-132.241 l 0.791,-140.762 c 0.4,-71.081 57.385,-128.865 127.922,-130.808 z m 5.933,-441.357 c -92.801,-0.005 -168.553,75.224 -169.078,168.144 l -0.79,140.762 c -0.523,93.237 74.904,169.516 168.142,170.044 8.864,0.032 17.163,-3.345 23.444,-9.556 6.282,-6.213 9.771,-14.502 9.82,-23.337 l 2.321,-412.791 c 0.049,-8.835 -3.344,-17.16 -9.555,-23.445 -6.214,-6.281 -14.502,-9.77 -23.338,-9.819 -0.319,-0.002 -0.647,-0.002 -0.966,-0.002"
             style="fill:#371a45;fill-opacity:1;fill-rule:nonzero;stroke:none"
             id="path306" /></g><g
           id="g308"
           transform="translate(2531.5967,2537.7568)"><path
             d="m 0,0 c -25.377,-387.669 -360.217,-681.365 -747.886,-655.988 -387.669,25.376 -681.365,360.216 -655.988,747.885 25.377,387.669 360.216,681.365 747.885,655.989 C -268.319,722.509 25.377,387.669 0,0"
             style="fill:#ffffff;fill-opacity:1;fill-rule:nonzero;stroke:none"
             id="path310" /></g><g
           id="g312"
           transform="translate(1829.1896,3283.7949)"><path
             d="m 0,0 c -365.373,0 -673.904,-284.634 -698.105,-654.36 -25.215,-385.193 267.651,-719.09 652.846,-744.309 15.471,-1.011 30.911,-1.509 46.199,-1.514 365.374,-0.025 673.904,284.639 698.106,654.365 C 724.26,-360.623 431.394,-26.729 46.199,-1.514 30.728,-0.5 15.288,0 0,0 m 1.477,-1406.936 c -15.676,0 -31.389,0.513 -47.175,1.548 -388.902,25.459 -684.588,362.568 -659.131,751.467 25.456,388.901 362.512,684.568 751.467,659.131 388.901,-25.459 684.588,-362.566 659.131,-751.467 -12.331,-188.391 -97.29,-360.706 -239.223,-485.201 -130.04,-114.062 -293.675,-175.478 -465.069,-175.478"
             style="fill:#371a45;fill-opacity:1;fill-rule:nonzero;stroke:none"
             id="path314" /></g><g
           id="g316"><g
             id="g318" /><g
             id="g330"><g
               clip-path="url(#clipPath322)"
               opacity="0.350006"
               id="g328"><g
                 transform="translate(2531.2297,2635.3638)"
                 id="g326"><path
                   d="m 0,0 c 2.392,-32.031 2.532,-64.615 0.38,-97.615 -25.429,-387.654 -360.251,-681.343 -747.91,-656.004 -387.655,25.428 -681.343,360.25 -656.004,747.909 0.723,11.148 1.712,22.289 2.965,33.241 24.956,-344.794 300.924,-627.062 655.625,-650.293 C -368.434,-647.379 -41.822,-371.075 0,0"
                   style="fill:#371a45;fill-opacity:1;fill-rule:nonzero;stroke:none"
                   id="path324" /></g></g></g></g><g
           id="g332"
           transform="translate(1829.1995,3268.4165)"><path
             d="m 0,0 c -357.346,0 -659.099,-278.384 -682.769,-639.988 -24.66,-376.731 261.773,-703.288 638.506,-727.956 15.13,-0.987 30.232,-1.48 45.183,-1.48 357.347,-0.024 659.1,278.384 682.769,639.99 C 708.35,-352.703 421.917,-26.145 45.183,-1.482 30.054,-0.491 14.951,0 0,0 m 0.945,-1406.919 c -15.794,0 -31.675,0.513 -47.659,1.563 -397.363,26.015 -699.482,370.456 -673.472,767.819 26.011,397.364 370.367,699.478 767.82,673.472 C 444.998,9.922 747.117,-334.521 721.106,-731.885 696.14,-1113.267 377.83,-1406.919 0.945,-1406.919"
             style="fill:#371a45;fill-opacity:1;fill-rule:nonzero;stroke:none"
             id="path334" /></g><g
           id="g336"
           transform="translate(2528.1716,2519.8752)"><path
             d="m 0,0 c -6.916,-137.479 -57.963,-262.869 -139.599,-364.634 -61.202,-76.293 -303.392,-203.021 -593.979,-191.021 -269.436,11.127 -507.249,167.043 -560.487,249.093 -71.011,109.443 -109.218,239.324 -102.302,376.802 18.3,363.81 338.458,498.906 724.071,479.509 C -286.684,530.352 18.301,363.809 0,0"
             style="fill:#371a45;fill-opacity:1;fill-rule:nonzero;stroke:none"
             id="path338" /></g><g
           id="g340"
           transform="translate(2528.1714,2519.874)"><path
             d="m 0,0 h 0.052 z m -739.167,532.683 c -226.072,0 -618.125,-58.852 -638.477,-463.384 -6.492,-129.077 27.847,-255.52 99.307,-365.654 50.73,-78.188 282.803,-229.717 545.534,-240.567 291.263,-12.065 524.048,116.041 578.58,184.019 82.15,102.407 129.006,224.766 135.5,353.845 8.31,165.242 -51.255,295.772 -177.041,387.967 -113.179,82.954 -278.288,132.099 -477.476,142.119 -19.651,0.986 -41.867,1.655 -65.927,1.655 m 45.393,-1107.905 c -13.399,0 -26.902,0.273 -40.576,0.835 -279.336,11.538 -519.485,171.382 -575.442,257.622 -75.779,116.794 -112.193,250.945 -105.298,387.949 8.984,178.63 87.549,312.764 233.506,398.672 127.265,74.905 303.681,109.033 510.229,98.618 206.529,-10.388 378.65,-62.024 497.757,-149.321 C -36.997,319.031 27.71,177.69 18.723,-0.942 c -6.892,-137.007 -56.582,-266.827 -143.699,-375.423 -57.746,-71.987 -280.236,-198.857 -568.798,-198.857"
             style="fill:#371a45;fill-opacity:1;fill-rule:nonzero;stroke:none"
             id="path342" /></g><g
           id="g344"><g
             id="g346" /><g
             id="g358"><g
               clip-path="url(#clipPath350)"
               opacity="0.5"
               id="g356"><g
                 transform="translate(2215.9045,2601.2344)"
                 id="g354"><path
                   d="m 0,0 c -15.642,-66.949 11.006,-130.41 59.519,-141.744 48.512,-11.334 100.519,33.75 116.161,100.7 C 191.321,25.905 164.674,89.366 116.161,100.7 67.649,112.034 15.641,66.949 0,0"
                   style="fill:#ffffff;fill-opacity:1;fill-rule:nonzero;stroke:none"
                   id="path352" /></g></g></g></g><g
           id="g360"><g
             id="g362" /><g
             id="g374"><g
               clip-path="url(#clipPath366)"
               opacity="0.5"
               id="g372"><g
                 transform="translate(2135.2441,2357.6252)"
                 id="g370"><path
                   d="m 0,0 c -11.356,-29.442 -0.08,-61.21 25.186,-70.956 25.266,-9.745 54.954,6.222 66.311,35.664 11.356,29.443 0.08,61.211 -25.186,70.956 C 41.045,45.41 11.356,29.442 0,0"
                   style="fill:#ffffff;fill-opacity:1;fill-rule:nonzero;stroke:none"
                   id="path368" /></g></g></g></g><g
           id="g376"><g
             id="g378" /><g
             id="g390"><g
               clip-path="url(#clipPath382)"
               opacity="0.350006"
               id="g388"><g
                 transform="translate(2409.4517,2866.1069)"
                 id="g386"><path
                   d="m 0,0 c 81.254,-85.738 126.043,-200.091 118.713,-346.21 -6.916,-137.507 -57.99,-262.888 -139.573,-364.658 -61.22,-76.291 -303.431,-203.012 -594.013,-191.041 -102.605,4.209 -200.587,29.449 -285.584,63.648 357.509,-7.101 652.596,148.545 728.493,243.171 C -68.345,-465.933 -3.563,-306.768 5.187,-132.318 7.562,-85.694 5.655,-41.613 0,0"
                   style="fill:#111a28;fill-opacity:1;fill-rule:nonzero;stroke:none"
                   id="path384" /></g></g></g></g><g
           id="g392"
           transform="translate(2484.175,2823.6021)"><path
             d="m 0,0 c -4.524,0 -9.058,1.665 -12.603,5.024 l -1.865,1.67 -1.059,1.841 c -109.93,171.782 -333.702,278.391 -613.936,292.493 -281.772,14.145 -515.061,-72.539 -639.995,-237.888 l -1.318,-1.558 c -6.746,-7.541 -18.203,-8.04 -25.743,-1.291 -7.336,6.562 -8.02,17.836 -1.845,25.39 132.448,174.9 376.865,266.748 670.742,251.953 C -335.867,322.954 -101.797,210.54 14.787,29.16 19.934,22.153 19.497,12.258 13.306,5.723 9.702,1.919 4.856,0 0,0"
             style="fill:#371a45;fill-opacity:1;fill-rule:nonzero;stroke:none"
             id="path394" /></g><g
           id="g396"><g
             id="g398" /><g
             id="g410"><g
               clip-path="url(#clipPath402)"
               opacity="0.5"
               id="g408"><g
                 transform="translate(1277.7152,2365.8005)"
                 id="g406"><path
                   d="m 0,0 c 0,0 -94.624,364.567 105.993,497.858 200.617,133.291 478.867,118.716 471.462,101.196 0,0 -311.827,-59.085 -444.62,-296.574 C 30.436,119.346 0,0 0,0"
                   style="fill:#ffffff;fill-opacity:1;fill-rule:nonzero;stroke:none"
                   id="path404" /></g></g></g></g><g
           id="g412"
           transform="translate(1848.8208,785.7864)"><path
             d="M 0,0 C 0,0 -440.671,-49.935 -636.542,118.362 -904.15,348.298 -674.69,636.447 -475.897,559.686 -302.828,492.857 -231.651,440.301 75.762,389.918 333.365,347.699 554.631,83.241 369.79,-70.257 239.289,-178.629 0,0 0,0"
             style="fill:#ffffff;fill-opacity:1;fill-rule:nonzero;stroke:none"
             id="path414" /></g><g
           id="g416"><g
             id="g418" /><g
             id="g430"><g
               clip-path="url(#clipPath422)"
               opacity="0.350006"
               id="g428"><g
                 transform="translate(2218.593,715.532)"
                 id="g426"><path
                   d="m 0,0 c -130.497,-108.382 -369.775,70.241 -369.775,70.241 0,0 -440.665,-49.923 -636.561,118.365 -77.13,66.298 -112.975,137.437 -120.113,203.235 13.328,-15.376 28.655,-30.652 46.128,-45.629 195.895,-168.338 636.561,-118.366 636.561,-118.366 0,0 239.277,-178.673 369.775,-70.291 51.021,42.384 71.14,93.205 67.994,145.524 C 79.776,206.179 103.29,85.767 0,0"
                   style="fill:#371a45;fill-opacity:1;fill-rule:nonzero;stroke:none"
                   id="path424" /></g></g></g></g><g
           id="g432"
           transform="translate(1853.8405,804.3687)"><path
             d="m 0,0 5.684,-4.233 c 1.765,-1.314 138.13,-101.646 254.467,-101.656 34.08,-0.005 66.421,8.599 93.182,30.826 53.825,44.697 73.032,102.343 55.544,166.713 -32.866,120.972 -182.663,236.065 -341.03,262.022 -241.841,39.634 -339.527,80.932 -452.635,128.75 -31.828,13.457 -64.738,27.368 -102.578,41.982 -82.385,31.807 -178.235,-5.39 -227.934,-88.467 -47.603,-79.565 -50.166,-206.088 85.405,-322.578 C -442.119,-47.979 -11.362,-1.289 -7.036,-0.796 Z M 260.274,-141.772 C 144.329,-141.777 18.787,-57.549 -9.971,-37.104 -69.499,-43.047 -465.015,-75.518 -653.23,86.201 c -152.439,130.982 -147.886,276.04 -92.795,368.12 58.669,98.067 172.88,141.587 271.555,103.482 38.367,-14.815 71.543,-28.838 103.625,-42.403 110.996,-46.923 206.858,-87.451 444.483,-126.396 171.108,-28.047 333.54,-154.536 369.79,-287.964 21.133,-77.783 -2.739,-150.107 -67.219,-203.652 -34.161,-28.365 -74.439,-39.156 -115.935,-39.16"
             style="fill:#371a45;fill-opacity:1;fill-rule:nonzero;stroke:none"
             id="path434" /></g><g
           id="g436"
           transform="translate(1437.2047,791.6392)"><path
             d="m 0,0 c -4.468,0 -8.792,2.407 -11.04,6.626 -3.247,6.094 -0.942,13.662 5.151,16.909 184.939,98.579 132.974,442.012 132.427,445.469 -1.079,6.821 3.577,13.222 10.396,14.302 6.818,1.069 13.222,-3.58 14.296,-10.396 C 153.577,458.071 206.358,108.34 5.869,1.475 3.997,0.474 1.985,0 0,0"
             style="fill:#371a45;fill-opacity:1;fill-rule:nonzero;stroke:none"
             id="path438" /></g><g
           id="g440"
           transform="translate(1762.8306,785.7864)"><path
             d="M 0,0 C 0,0 440.671,-49.935 636.542,118.362 904.15,348.298 674.69,636.447 475.897,559.686 302.828,492.857 231.651,440.301 -75.762,389.918 -333.365,347.699 -554.631,83.241 -369.79,-70.257 -239.288,-178.629 0,0 0,0"
             style="fill:#ffffff;fill-opacity:1;fill-rule:nonzero;stroke:none"
             id="path442" /></g><g
           id="g444"><g
             id="g446" /><g
             id="g458"><g
               clip-path="url(#clipPath450)"
               opacity="0.350006"
               id="g456"><g
                 transform="translate(2399.3618,904.1385)"
                 id="g454"><path
                   d="m 0,0 c -195.845,-168.288 -636.511,-118.366 -636.511,-118.366 0,0 -239.328,-178.622 -369.825,-70.24 -63.401,52.667 -79.027,118.415 -61.704,183.714 9.436,-31.9 18.697,-80.952 51.937,-106.752 101.337,-78.655 213.421,-43.855 283.677,18.463 53.322,47.297 44.619,86.031 78.848,105.277 38.387,21.584 92.862,-58.226 212.757,-64.467 225.532,-11.738 379.376,55.082 451.945,129.22 63.123,64.487 93.214,139.165 105.445,198.524 C 134.242,192.102 106.435,91.458 0,0"
                   style="fill:#371a45;fill-opacity:1;fill-rule:nonzero;stroke:none"
                   id="path452" /></g></g></g></g><g
           id="g460"
           transform="translate(2306.0232,1340.0669)"><path
             d="m 0,0 c -20.513,0 -41.062,-3.657 -60.847,-11.294 -37.837,-14.609 -70.747,-28.525 -102.573,-41.982 -113.111,-47.818 -210.794,-89.117 -452.64,-128.75 -158.366,-25.957 -308.164,-141.05 -341.03,-262.022 -17.488,-64.37 1.719,-122.016 55.544,-166.714 118.121,-98.091 345.367,69.131 347.649,70.83 l 5.674,4.229 7.041,-0.791 c 4.339,-0.493 435.23,-47.07 622.864,114.155 135.571,116.489 133.008,243.013 85.405,322.578 C 129.324,-36.641 64.897,0 0,0 m -808.486,-677.471 c -41.509,0 -81.766,10.786 -115.936,39.16 -64.479,53.545 -88.351,125.87 -67.219,203.653 36.25,133.427 198.682,259.917 369.79,287.964 237.63,38.945 333.489,79.472 444.488,126.396 32.082,13.565 65.256,27.593 103.62,42.402 98.677,38.116 212.881,-5.415 271.555,-103.481 55.091,-92.08 59.644,-237.139 -92.795,-368.12 -188.215,-161.719 -583.735,-129.248 -643.259,-123.306 -28.755,-20.444 -154.307,-104.668 -270.244,-104.668"
             style="fill:#371a45;fill-opacity:1;fill-rule:nonzero;stroke:none"
             id="path462" /></g><g
           id="g464"
           transform="translate(2174.4485,791.6392)"><path
             d="m 0,0 c -1.985,0 -3.997,0.474 -5.869,1.475 -200.488,106.865 -147.71,456.596 -145.364,471.435 1.077,6.816 7.485,11.504 14.294,10.391 6.819,-1.075 11.473,-7.476 10.398,-14.292 C -127.085,465.552 -178.892,122.026 5.889,23.535 11.982,20.288 14.287,12.72 11.04,6.626 8.792,2.407 4.468,0 0,0"
             style="fill:#371a45;fill-opacity:1;fill-rule:nonzero;stroke:none"
             id="path466" /></g><g
           id="g468"><g
             id="g470" /><g
             id="g482"><g
               clip-path="url(#clipPath474)"
               opacity="0.199997"
               id="g480"><g
                 transform="translate(2936.1526,1412.4386)"
                 id="g478"><path
                   d="M 0,0 V -3.281 H -9.426 C -6.237,-2.264 -3.095,-1.155 0,0"
                   style="fill:#390075;fill-opacity:1;fill-rule:nonzero;stroke:none"
                   id="path476" /></g></g></g></g><g
           id="g484"
           transform="translate(2762.1904,1552.0654)"><path
             d="m 0,0 c 0,63.362 70.779,114.722 134.091,114.722 h 53.81 l 39.207,-229.444 h -93.017 c -31.657,0 -60.312,12.852 -81.116,33.607 C 32.221,-60.361 0,-31.706 0,0 m -55.646,0 c 0,-52.41 21.254,-99.819 55.561,-134.175 34.356,-34.307 81.766,-55.561 134.176,-55.561 H 316.025 L 251.163,189.736 H 134.091 C 29.32,189.736 -55.646,104.77 -55.646,0"
             style="fill:#b9189b;fill-opacity:1;fill-rule:nonzero;stroke:none"
             id="path486" /></g><g
           id="g488"><g
             id="g490" /><g
             id="g502"><g
               clip-path="url(#clipPath494)"
               opacity="0.350006"
               id="g500"><g
                 transform="translate(2983.2654,1472.8015)"
                 id="g498"><path
                   d="m 0,0 h 6.053 l -39.227,229.448 h -53.828 c -63.299,0 -91.206,-33.554 -128.765,-98.53 -3.029,-5.241 -6.232,-28.161 -5.308,-33.936 8.502,54.936 76.781,96.982 134.073,96.982 h 53.828 z m -276.714,79.286 c 0,-52.442 21.253,-99.847 55.537,-134.176 34.375,-34.329 81.78,-55.583 134.175,-55.583 H 94.949 l -6.053,35.438 H -87.002 c -52.395,0 -99.8,21.254 -134.175,55.583 -30.356,30.402 -50.501,71.108 -54.706,116.434 -0.554,-5.822 -0.831,-11.736 -0.831,-17.696"
                   style="fill:#371a45;fill-opacity:1;fill-rule:nonzero;stroke:none"
                   id="path496" /></g></g></g></g><g
           id="g504"
           transform="translate(2896.282,1648.8853)"><path
             d="m 0,0 c -56.326,0 -116.189,-33.936 -116.189,-96.821 0,-95.713 115.027,-96.822 116.189,-96.822 H 71.797 L 38.706,0 Z M 114.238,-229.443 H 0 c -61.096,0 -151.995,35.317 -151.995,132.622 0,83.017 77.28,132.622 151.995,132.622 H 68.911 Z M 0,75.015 c -94.749,0 -171.833,-77.085 -171.833,-171.836 0,-45.87 17.871,-89.029 50.324,-121.524 32.483,-32.436 75.642,-50.312 121.509,-50.312 H 160.71 L 101.968,75.015 Z M 203.157,-304.458 H 0 c -55.42,0 -107.563,21.587 -146.826,60.796 -39.221,39.277 -60.813,91.421 -60.813,146.841 0,114.492 93.147,207.636 207.639,207.636 h 132.173 z"
             style="fill:#371a45;fill-opacity:1;fill-rule:nonzero;stroke:none"
             id="path506" /></g><g
           id="g508"
           transform="translate(2988.1191,1368.7091)"><path
             d="m 0,0 c 17.643,-37.27 52.813,-63.562 93.702,-68.894 22.543,-2.94 45.227,-4.409 67.881,-4.409 22.719,0 45.408,1.47 67.949,4.412 41.072,5.359 76.228,31.919 93.919,69.372 41.935,88.778 63.727,185.812 63.727,284.159 0,14.125 -0.402,28.192 -1.32,42.317 L 379.14,433.41 c 0,-22.68 -97.381,-41.054 -217.557,-41.054 -120.118,0 -217.499,18.374 -217.499,41.054 L -62.691,326.957 C -69.834,214.077 -48.096,101.602 0,0"
             style="fill:#b9189b;fill-opacity:1;fill-rule:nonzero;stroke:none"
             id="path510" /></g><g
           id="g512"><g
             id="g514" /><g
             id="g526"><g
               clip-path="url(#clipPath518)"
               opacity="0.699997"
               id="g524"><g
                 transform="translate(3375.2844,1653.3689)"
                 id="g522"><path
                   d="m 0,0 c 0,-98.373 -21.796,-195.405 -63.732,-284.2 -6.893,-14.591 -16.426,-27.525 -27.973,-38.177 38.625,85.797 58.675,178.889 58.675,273.19 0,14.143 -0.403,28.196 -1.298,42.294 l -3.714,58.362 c -1.209,19.514 -19.648,33.522 -38.714,29.136 -44.532,-10.294 -121.423,-14.009 -175.98,-5.236 -51.693,8.324 -100.701,26.406 -143.622,47.934 39.877,-9.489 101.551,-15.621 170.788,-15.621 120.17,0 217.559,18.395 217.559,41.087 L -1.298,42.294 C -0.403,28.152 0,14.098 0,0"
                   style="fill:#ffffff;fill-opacity:1;fill-rule:nonzero;stroke:none"
                   id="path520" /></g></g></g></g><g
           id="g528"><g
             id="g530" /><g
             id="g542"><g
               clip-path="url(#clipPath534)"
               opacity="0.350006"
               id="g540"><g
                 transform="translate(2989.5334,1365.7407)"
                 id="g538"><path
                   d="m 0,0 c 16.944,-35.34 50.223,-60.191 89.056,-65.488 23.606,-3.221 47.374,-4.827 71.102,-4.827 23.809,0 47.592,1.607 71.203,4.83 38.064,5.194 71.377,28.932 88.082,63.527 0.086,0.177 0.171,0.355 0.256,0.532 -0.323,-0.6 -0.692,-1.247 -1.062,-1.848 C 275.529,-14.409 231.404,-20 187.233,-20 c -0.441,0 -0.882,0.001 -1.323,0.002 -82.168,0.208 -155.625,52.399 -183.834,129.573 -31.48,86.121 -44.98,178.263 -39.162,270.689 l 2.402,37.887 c -14.507,5.498 -22.639,11.689 -22.639,18.25 L -64.115,329.948 C -71.33,215.955 -49.093,102.395 0,0"
                   style="fill:#371a45;fill-opacity:1;fill-rule:nonzero;stroke:none"
                   id="path536" /></g></g></g></g><g
           id="g544"
           transform="translate(2932.2031,1802.1191)"><path
             d="m 0,0 c 0,-22.68 97.381,-41.054 217.499,-41.054 120.176,0 217.557,18.374 217.557,41.054 0,22.68 -97.381,41.111 -217.557,41.111 C 97.381,41.111 0,22.68 0,0"
             style="fill:#ffffff;fill-opacity:1;fill-rule:nonzero;stroke:none"
             id="path546" /></g><g
           id="g548"
           transform="translate(2932.2002,1802.1416)"><path
             d="m 0,0 c 0,-7.501 10.602,-14.503 29.106,-20.554 37.607,-12.252 107.87,-20.504 188.386,-20.504 80.515,0 150.829,8.252 188.486,20.504 18.503,6.051 29.105,13.053 29.105,20.554 0,22.654 -97.418,41.108 -217.591,41.108 C 97.369,41.108 0,22.654 0,0"
             style="fill:#ffffff;fill-opacity:1;fill-rule:nonzero;stroke:none"
             id="path550" /></g><g
           id="g552"
           transform="translate(2964.3606,1781.6123)"><path
             d="m 0,0 c 37.607,-12.252 107.871,-20.504 188.386,-20.504 80.515,0 150.829,8.252 188.486,20.504 C 339.215,12.303 268.901,20.554 188.386,20.554 107.871,20.554 37.607,12.303 0,0"
             style="fill:#b9189b;fill-opacity:1;fill-rule:nonzero;stroke:none"
             id="path554" /></g><g
           id="g556"
           transform="translate(2947.9275,1767.3423)"><path
             d="m 0,0 -4.634,-72.813 c -6.973,-110.205 14.539,-221.093 62.205,-320.673 14.619,-30.547 42.991,-51.451 75.898,-55.923 45.174,-6.148 91.533,-6.133 136.707,0.005 32.761,4.458 60.788,24.673 74.973,54.062 42.078,87.212 64.319,184.497 64.319,281.348 0,14.409 -0.42,27.871 -1.282,41.157 l -4.597,72.832 C 391.946,-4.512 377.136,-8.413 358.938,-11.851 316.794,-19.8 260.979,-24.18 201.775,-24.18 142.595,-24.18 86.799,-19.8 44.66,-11.851 26.455,-8.413 11.646,-4.507 0,0 m 201.775,-489.839 c -24.363,0 -48.967,1.665 -73.13,4.951 -44.888,6.099 -83.53,34.492 -103.369,75.943 -50.303,105.083 -73.001,222.099 -65.642,338.403 l 6.775,106.455 35.769,-1.138 c 0,2.74 -1.121,4.61 -1.514,5.049 8.525,-9.526 78.345,-28.203 201.111,-28.203 122.805,0 192.642,18.677 201.167,28.203 -0.393,-0.439 -1.514,-2.309 -1.514,-5.049 l 35.769,1.128 6.719,-106.45 c 0.913,-14.033 1.357,-28.257 1.357,-43.447 0,-102.207 -23.471,-204.873 -67.878,-296.904 -19.416,-40.245 -57.695,-67.901 -102.393,-73.985 -24.196,-3.291 -48.833,-4.956 -73.227,-4.956"
             style="fill:#371a45;fill-opacity:1;fill-rule:nonzero;stroke:none"
             id="path558" /></g><g
           id="g560"
           transform="translate(2957.0752,1802.1226)"><path
             d="M 0,0 C 23.211,-9.873 89.09,-23.159 192.627,-23.159 296.199,-23.159 362.095,-9.873 385.308,0 362.095,9.897 296.191,23.208 192.627,23.208 89.094,23.208 23.211,9.897 0,0 m 192.627,-58.96 c -59.179,0 -114.975,4.38 -157.114,12.329 -54.143,10.22 -78.289,24.6 -78.289,46.626 0,22.026 24.143,36.416 78.282,46.651 42.16,7.973 97.959,12.363 157.121,12.363 59.187,0 115.005,-4.39 157.171,-12.363 54.143,-10.235 78.288,-24.625 78.288,-46.651 0,-22.026 -24.148,-36.406 -78.296,-46.626 C 307.647,-54.58 251.831,-58.96 192.627,-58.96"
             style="fill:#371a45;fill-opacity:1;fill-rule:nonzero;stroke:none"
             id="path562" /></g><g
           id="g564"
           transform="translate(3111.8345,1517.2422)"><path
             d="M 0,0 -41.261,22.93 -39.425,35.908 8.393,58.837 6.819,48.022 -31.907,29.418 1.574,10.816 Z"
             style="fill:#fcf7fb;fill-opacity:1;fill-rule:nonzero;stroke:none"
             id="path566" /></g><g
           id="g568"
           transform="translate(3120.679,1499.0725)"><path
             d="M 0,0 47.205,86.525 H 58.57 L 11.364,0 Z"
             style="fill:#fcf7fb;fill-opacity:1;fill-rule:nonzero;stroke:none"
             id="path570" /></g><g
           id="g572"
           transform="translate(3185.2793,1517.2422)"><path
             d="M 0,0 1.486,10.383 41.174,29.418 6.906,48.454 8.392,58.837 49.74,35.908 47.905,22.93 Z"
             style="fill:#fcf7fb;fill-opacity:1;fill-rule:nonzero;stroke:none"
             id="path574" /></g><g
           id="g576"
           transform="translate(2626.4214,1675.5273)"><path
             d="m 0,0 c -15.697,-53.63 1.577,-104.269 32.556,-117.31 65.182,-27.439 112.334,99.735 112.334,99.735 0,0 -21.905,91.901 -64.857,90.378 C 49.553,71.723 14.202,48.521 0,0"
             style="fill:#ffffff;fill-opacity:1;fill-rule:nonzero;stroke:none"
             id="path578" /></g><g
           id="g580"><g
             id="g582" /><g
             id="g594"><g
               clip-path="url(#clipPath586)"
               opacity="0.350006"
               id="g592"><g
                 transform="translate(2771.3257,1657.963)"
                 id="g590"><path
                   d="m 0,0 c 0,0 -47.149,-127.2 -112.335,-99.743 -31.007,13.018 -48.285,63.67 -32.569,117.305 3.172,10.889 7.432,20.499 12.45,28.877 -1.42,-39.101 14.391,-71.766 38.392,-81.848 37.492,-15.812 69.02,19.597 89.044,52.498 C -1.656,7.006 0,0 0,0"
                   style="fill:#371a45;fill-opacity:1;fill-rule:nonzero;stroke:none"
                   id="path588" /></g></g></g></g><g
           id="g596"
           transform="translate(2644.595,1670.2085)"><path
             d="m 0,0 c -13.113,-44.805 0.928,-85.781 21.729,-94.541 7.749,-3.257 15.046,-3.184 22.966,0.234 28.139,12.159 52.6,60.025 62.156,83.267 C 98.369,19.834 79.229,59.893 62.532,59.194 39.795,58.394 11.641,39.775 0,0 m 32.876,-134.771 c -8.711,0 -17.4,1.773 -25.84,5.328 -42.127,17.734 -61.182,79.262 -43.384,140.078 18.111,61.87 63.863,85.215 97.539,86.411 C 116.799,98.843 140.879,10 145.137,-7.866 l 1.33,-5.586 -1.997,-5.386 c -3.323,-8.965 -33.943,-88.232 -84.697,-110.21 -8.811,-3.813 -17.866,-5.723 -26.897,-5.723"
             style="fill:#371a45;fill-opacity:1;fill-rule:nonzero;stroke:none"
             id="path598" /></g><g
           id="g600"
           transform="translate(2887.8022,1685.3839)"><path
             d="m 0,0 c 0,0 -60.114,98.458 -145.047,49.135 -66.015,-38.336 -56.166,-181.423 -49.429,-213.82 24.12,-115.998 108.315,-183.076 172.306,-82.109 C -19.11,-241.967 12.397,-124.807 0,0"
             style="fill:#ffffff;fill-opacity:1;fill-rule:nonzero;stroke:none"
             id="path602" /></g><g
           id="g604"><g
             id="g606" /><g
             id="g618"><g
               clip-path="url(#clipPath610)"
               opacity="0.350006"
               id="g616"><g
                 transform="translate(2865.6245,1438.5946)"
                 id="g614"><path
                   d="m 0,0 c -64.002,-100.973 -148.17,-33.894 -172.313,82.086 -3.314,15.906 -7.337,58.511 -2.793,102.299 0.852,-8.379 1.846,-15.149 2.793,-19.693 C -148.17,48.664 -67.171,39.032 0,82.559 3.428,84.781 18.936,146.987 23.764,227.179 31.339,109.968 2.935,4.592 0,0"
                   style="fill:#371a45;fill-opacity:1;fill-rule:nonzero;stroke:none"
                   id="path612" /></g></g></g></g><g
           id="g620"
           transform="translate(2849.6389,1448.7241)"><path
             d="M 0,0 C -0.071,-0.112 -0.156,-0.244 -0.254,-0.401 -0.168,-0.264 -0.085,-0.132 0,0 m -59.307,280.405 c -11.819,0 -24.582,-3.154 -38.069,-10.986 -53.967,-31.338 -47.082,-161.45 -40.397,-193.594 12.939,-62.226 44.843,-109.848 77.585,-115.805 25.293,-4.605 46.072,18.134 59.324,38.632 5.058,14.776 30.72,120.015 20.622,231.534 -8.276,11.987 -37.915,50.219 -79.065,50.219 m 5.486,-358.823 c -4.931,0 -9.358,0.488 -13.144,1.177 -49.031,8.921 -91.38,65.976 -107.889,145.356 -6.106,29.375 -20.505,188.198 58.46,234.058 79.853,46.377 146.587,-16.123 170.72,-55.645 l 2.254,-3.691 0.427,-4.307 C 69.285,114.922 39.126,-9.004 31.99,-20.269 1.589,-68.232 -31.348,-78.418 -53.821,-78.418"
             style="fill:#371a45;fill-opacity:1;fill-rule:nonzero;stroke:none"
             id="path622" /></g><g
           id="g624"
           transform="translate(2404.7754,1365.2378)"><path
             d="m 0,0 c -6.121,0 -11.467,4.492 -12.358,10.727 -36.082,251.929 92.519,341.5 98.012,345.191 5.738,3.848 13.499,2.319 17.347,-3.403 3.843,-5.723 2.331,-13.467 -3.369,-17.325 C 98.289,334.272 -21.303,249.517 12.388,14.272 13.367,7.437 8.621,1.104 1.787,0.127 1.187,0.039 0.589,0 0,0"
             style="fill:#371a45;fill-opacity:1;fill-rule:nonzero;stroke:none"
             id="path626" /></g><g
           id="g628"
           transform="translate(3126.6169,2273.1228)"><path
             d="m 0,0 -35.388,-2.281 c -11.245,-0.907 -21.745,-6.343 -28.717,-14.582 -7.019,-8.2 -10.515,-18.896 -9.717,-29.21 0.693,-10.33 5.736,-19.963 13.356,-26.385 7.68,-6.464 17.275,-9.759 27.292,-9.201 l 35.453,1.188 c 23.635,0.895 47.271,1.302 70.906,1.915 23.635,0.507 47.27,1.294 70.906,1.528 l 8.863,0.13 c 1.602,0.006 3.82,-0.104 5.7,-0.191 1.95,-0.219 3.909,-0.485 5.848,-0.826 7.744,-1.554 15.15,-4.862 21.506,-9.597 12.848,-9.314 21.006,-25.017 21.413,-41.112 0.66,-16.099 -6.814,-32.382 -19.248,-42.655 -6.221,-5.148 -13.617,-8.891 -21.469,-10.878 -3.915,-1.044 -7.958,-1.528 -11.98,-1.669 -1.114,-0.063 -1.826,-0.061 -2.543,-0.064 l -2.215,-0.016 -4.433,-0.033 -70.905,-0.287 c -47.271,-0.086 -94.541,0.093 -141.811,0.497 l -35.452,0.417 -2.217,0.033 -1.502,-0.044 c -0.927,0.032 -1.833,-0.101 -2.739,-0.227 -1.821,-0.228 -3.575,-0.762 -5.289,-1.411 -3.368,-1.422 -6.497,-3.59 -8.898,-6.421 -2.361,-2.85 -4.111,-6.202 -4.917,-9.82 -0.764,-3.627 -0.676,-7.515 0.278,-11.117 1.939,-7.268 7.807,-13.461 15.11,-16.151 3.82,-1.462 6.885,-1.535 13.628,-1.657 l 17.727,-0.431 35.453,-0.862 c 23.635,-0.466 47.271,-1.473 70.905,-2.209 14.256,-0.106 28.724,-7.555 36.565,-19.422 8.115,-11.741 9.741,-27.326 4.493,-40.067 -5.028,-12.83 -16.533,-22.558 -29.504,-25.258 -3.213,-0.763 -6.515,-1.019 -9.767,-0.968 -3.157,0.05 -5.965,0.278 -8.965,0.408 L 0,-318.014 2.457,-315.555 0,-355 l -2.458,39.445 c -0.08,1.269 0.886,2.363 2.155,2.442 l 0.025,10e-4 0.278,0.015 17.726,0.922 c 2.909,0.175 6.013,0.258 8.76,0.51 2.644,0.24 5.256,0.714 7.722,1.593 9.923,3.276 17.87,11.39 20.611,20.93 2.953,9.478 0.692,20.087 -5.35,27.298 -5.985,7.423 -15.157,11.445 -24.565,10.87 -23.634,-0.736 -47.27,-1.743 -70.905,-2.21 l -35.453,-0.86 -17.727,-0.431 c -3.088,-0.038 -5.443,-0.247 -9.801,-0.037 -3.924,0.207 -7.839,0.927 -11.633,2.071 -15.271,4.532 -27.86,17.039 -32.636,32.529 -2.367,7.738 -2.843,15.965 -1.399,23.948 1.486,7.987 5.039,15.562 10.049,21.931 5.045,6.356 11.674,11.411 19.093,14.775 3.736,1.62 7.649,2.885 11.67,3.574 2.011,0.358 4.027,0.656 6.061,0.723 l 2.925,0.145 2.217,0.032 35.452,0.419 c 47.27,0.404 94.54,0.582 141.811,0.497 l 70.905,-0.287 4.433,-0.033 2.215,-0.016 c 0.761,-0.01 1.526,-0.016 1.888,0.024 1.873,0.05 3.746,0.208 5.543,0.68 3.609,0.854 7.043,2.497 9.98,4.826 5.775,4.76 9.597,11.888 9.502,19.533 0.021,7.537 -3.436,15.125 -9.645,19.928 -3.044,2.419 -6.617,4.174 -10.433,5.086 l -2.909,0.51 -3.153,0.198 -8.863,0.129 c -23.636,0.236 -47.271,1.022 -70.906,1.53 -23.635,0.611 -47.271,1.019 -70.906,1.914 l -35.453,1.188 c -13.634,0.175 -27.738,5.795 -37.209,15.681 -9.672,9.708 -15.138,23.272 -14.864,36.616 0.087,13.339 5.824,26.344 15.268,35.135 9.323,8.91 22.057,13.766 34.464,13.373 C -23.573,1.544 -11.846,0.82 0,0"
             style="fill:#b9189b;fill-opacity:1;fill-rule:nonzero;stroke:none"
             id="path630" /></g></g></g></g></svg>
