<?xml version="1.0" encoding="UTF-8" standalone="no"?>
<svg
   xmlns:dc="http://purl.org/dc/elements/1.1/"
   xmlns:cc="http://creativecommons.org/ns#"
   xmlns:rdf="http://www.w3.org/1999/02/22-rdf-syntax-ns#"
   xmlns:svg="http://www.w3.org/2000/svg"
   xmlns="http://www.w3.org/2000/svg"
   xmlns:sodipodi="http://sodipodi.sourceforge.net/DTD/sodipodi-0.dtd"
   xmlns:inkscape="http://www.inkscape.org/namespaces/inkscape"
   version="1.1"
   id="svg2"
   xml:space="preserve"
   width="5333.3335"
   height="5333.3335"
   viewBox="0 0 5333.3335 5333.3335"
   sodipodi:docname="Flying.ai"><metadata
     id="metadata8"><rdf:RDF><cc:Work
         rdf:about=""><dc:format>image/svg+xml</dc:format><dc:type
           rdf:resource="http://purl.org/dc/dcmitype/StillImage" /></cc:Work></rdf:RDF></metadata><defs
     id="defs6"><clipPath
       clipPathUnits="userSpaceOnUse"
       id="clipPath18"><path
         d="M 0,4000 H 4000 V 0 H 0 Z"
         id="path16" /></clipPath><clipPath
       clipPathUnits="userSpaceOnUse"
       id="clipPath30"><path
         d="M 670.472,1634.24 H 1046.03 V 1425.39 H 670.472 Z"
         id="path28" /></clipPath><clipPath
       clipPathUnits="userSpaceOnUse"
       id="clipPath46"><path
         d="m 987.11,1590.38 h 319.84 V 1315.82 H 987.11 Z"
         id="path44" /></clipPath><clipPath
       clipPathUnits="userSpaceOnUse"
       id="clipPath70"><path
         d="M 575.638,2156.89 H 1951.64 V 1267.72 H 575.638 Z"
         id="path68" /></clipPath><clipPath
       clipPathUnits="userSpaceOnUse"
       id="clipPath86"><path
         d="M 542.495,2227.2 H 1810.96 V 1517.16 H 542.495 Z"
         id="path84" /></clipPath><clipPath
       clipPathUnits="userSpaceOnUse"
       id="clipPath110"><path
         d="m 1478.62,1556.44 h 746.2 V 823.359 h -746.2 z"
         id="path108" /></clipPath><clipPath
       clipPathUnits="userSpaceOnUse"
       id="clipPath138"><path
         d="M 1057.98,1399.7 H 2168.19 V 842.043 H 1057.98 Z"
         id="path136" /></clipPath><clipPath
       clipPathUnits="userSpaceOnUse"
       id="clipPath154"><path
         d="m 2651.9,2842.28 h 646.52 v -715 H 2651.9 Z"
         id="path152" /></clipPath><clipPath
       clipPathUnits="userSpaceOnUse"
       id="clipPath178"><path
         d="M 1819.88,1768.22 H 2364.7 V 1342.85 H 1819.88 Z"
         id="path176" /></clipPath><clipPath
       clipPathUnits="userSpaceOnUse"
       id="clipPath198"><path
         d="m 1397.47,1737.55 h 540.3 v -256.07 h -540.3 z"
         id="path196" /></clipPath><clipPath
       clipPathUnits="userSpaceOnUse"
       id="clipPath222"><path
         d="m 1393.21,1749.34 h 540.3 V 1524.2 h -540.3 z"
         id="path220" /></clipPath><clipPath
       clipPathUnits="userSpaceOnUse"
       id="clipPath242"><path
         d="m 3058.51,2924.65 h 273.53 v -267.76 h -273.53 z"
         id="path240" /></clipPath><clipPath
       clipPathUnits="userSpaceOnUse"
       id="clipPath282"><path
         d="M 1005.79,1833.51 H 1711.3 V 1486.95 H 1005.79 Z"
         id="path280" /></clipPath><clipPath
       clipPathUnits="userSpaceOnUse"
       id="clipPath302"><path
         d="M 1666.23,2631.55 H 2790.89 V 1800.29 H 1666.23 Z"
         id="path300" /></clipPath><clipPath
       clipPathUnits="userSpaceOnUse"
       id="clipPath318"><path
         d="m 2740.53,2650.26 h 24.02 v -72.72 h -24.02 z"
         id="path316" /></clipPath><clipPath
       clipPathUnits="userSpaceOnUse"
       id="clipPath338"><path
         d="M 1621.57,2672.19 H 2824.71 V 1874.82 H 1621.57 Z"
         id="path336" /></clipPath><clipPath
       clipPathUnits="userSpaceOnUse"
       id="clipPath366"><path
         d="m 1809.39,2595.76 h 928.73 v -627.67 h -928.73 z"
         id="path364" /></clipPath><clipPath
       clipPathUnits="userSpaceOnUse"
       id="clipPath402"><path
         d="m 1545.45,2367.22 h 248.83 v -223.14 h -248.83 z"
         id="path400" /></clipPath><clipPath
       clipPathUnits="userSpaceOnUse"
       id="clipPath422"><path
         d="m 2123.75,2912.31 h 647.91 v -584.39 h -647.91 z"
         id="path420" /></clipPath><clipPath
       clipPathUnits="userSpaceOnUse"
       id="clipPath438"><path
         d="m 1890.61,2612.26 h 161.11 v -187.23 h -161.11 z"
         id="path436" /></clipPath><clipPath
       clipPathUnits="userSpaceOnUse"
       id="clipPath454"><path
         d="m 1921.92,2387.65 h 66.8 v -77.09 h -66.8 z"
         id="path452" /></clipPath><clipPath
       clipPathUnits="userSpaceOnUse"
       id="clipPath474"><path
         d="m 2025.21,1616.3 h 103.91 v -134.48 h -103.91 z"
         id="path472" /></clipPath><clipPath
       clipPathUnits="userSpaceOnUse"
       id="clipPath498"><path
         d="m 2064.39,1576.29 h 101.5 v -95.43 h -101.5 z"
         id="path496" /></clipPath></defs><sodipodi:namedview
     pagecolor="#ffffff"
     bordercolor="#666666"
     borderopacity="1"
     objecttolerance="10"
     gridtolerance="10"
     guidetolerance="10"
     inkscape:pageopacity="0"
     inkscape:pageshadow="2"
     inkscape:window-width="640"
     inkscape:window-height="480"
     id="namedview4" /><g
     id="g10"
     inkscape:groupmode="layer"
     inkscape:label="Flying"
     transform="matrix(1.3333333,0,0,-1.3333333,0,5333.3333)"><g
       id="g12"><g
         id="g14"
         clip-path="url(#clipPath18)"><g
           id="g20"
           transform="translate(580.7175,1502.2904)"><path
             d="m 0,0 c 16.404,3.418 51.221,9.911 89.754,11.833 41.267,2.051 86.849,-1.11 118.676,-18.754 32.253,-17.856 47.846,-46.052 79.416,-69.975 14.61,-11.107 32.638,-21.274 57.33,-29.135 22.043,-7.006 41.866,-9.355 61.217,-10.509 51.691,-3.118 99.751,2.179 176.262,-50.751 7.647,-5.297 16.874,-10.338 27.17,-15.037 2.862,-1.367 5.852,-2.649 8.886,-3.93 0.17,-0.086 0.341,-0.171 0.47,-0.214 71.513,-30.203 182.199,-48.102 182.199,-48.102 L 1370.921,654.596 115.172,192.282 -4.4,6.408 C -6.408,3.247 -3.674,-0.812 0,0"
             style="fill:#b9189b;fill-opacity:1;fill-rule:nonzero;stroke:none"
             id="path22" /></g><g
           id="g24"><g
             id="g26" /><g
             id="g38"><g
               clip-path="url(#clipPath30)"
               opacity="0.350006"
               id="g36"><g
                 transform="translate(670.4718,1514.1239)"
                 id="g34"><path
                   d="m 0,0 c 41.267,2.051 86.849,-1.111 118.676,-18.754 32.252,-17.857 47.846,-46.052 79.415,-69.975 -9.697,22.086 -19.01,60.021 10.083,91.762 54.852,59.85 168.145,100.135 167.376,110.559 C 373.115,146.315 134.867,47.632 0,0"
                   style="fill:#371a45;fill-opacity:1;fill-rule:nonzero;stroke:none"
                   id="path32" /></g></g></g></g><g
           id="g40"><g
             id="g42" /><g
             id="g54"><g
               clip-path="url(#clipPath46)"
               opacity="0.350006"
               id="g52"><g
                 transform="translate(987.1105,1385.7507)"
                 id="g50"><path
                   d="m 0,0 c 51.691,-3.119 99.751,2.179 176.262,-50.751 7.647,-5.297 16.874,-10.338 27.17,-15.037 3.204,-1.239 6.194,-2.521 8.886,-3.931 0.17,-0.085 0.341,-0.171 0.47,-0.213 -13.2,20.206 -51.777,38.319 -30.929,100.776 25.674,77.024 140.419,160.242 137.942,170.366 C 313.136,228.594 130.766,85.055 0,0"
                   style="fill:#371a45;fill-opacity:1;fill-rule:nonzero;stroke:none"
                   id="path48" /></g></g></g></g><g
           id="g56"
           transform="translate(590.6953,1499.4542)"><path
             d="M 0,0 C 0.01,0.015 0.019,0.032 0.029,0.046 Z M 116.47,181.074 16.099,25.032 c 53.095,8.579 137.309,15.398 190.644,-14.168 20.65,-11.443 35.064,-26.487 48.999,-41.035 21.157,-22.078 41.138,-42.932 84.639,-56.748 27.261,-8.657 51.011,-9.604 76.157,-10.608 46.663,-1.86 94.915,-3.784 165.884,-52.893 47.473,-32.851 164.338,-55.955 200.732,-62.541 l 535.982,836.796 z m 672.219,-429.69 c -6.628,1.072 -163.074,26.746 -225.715,70.093 -62.803,43.46 -104.09,45.105 -147.798,46.848 -26.299,1.048 -53.491,2.134 -85.137,12.183 -51.812,16.452 -76.865,42.605 -98.975,65.679 -13.291,13.872 -24.765,25.852 -40.888,34.785 -44.834,24.858 -130.972,18.947 -196.641,5.119 -8.423,-1.762 -17.031,1.668 -21.914,8.76 -4.888,7.104 -5.029,16.384 -0.361,23.64 v -0.002 l 122.661,190.7 1308.847,481.854 -603.01,-941.446 z"
             style="fill:#371a45;fill-opacity:1;fill-rule:nonzero;stroke:none"
             id="path58" /></g><g
           id="g60"
           transform="translate(1788.1412,2068.7065)"><path
             d="m 0,0 c 0,0 -680.159,-229.1 -1217.382,-568.661 0,0 -86.275,146.288 42.697,270.649 0,0 246.423,25.329 595.346,165.351 C -240.555,3.294 22.8,158.488 22.8,158.488 Z"
             style="fill:#b9189b;fill-opacity:1;fill-rule:nonzero;stroke:none"
             id="path62" /></g><g
           id="g64"><g
             id="g66" /><g
             id="g78"><g
               clip-path="url(#clipPath70)"
               opacity="0.199997"
               id="g76"><g
                 transform="translate(580.7175,1502.2904)"
                 id="g74"><path
                   d="m 0,0 c 16.404,3.418 51.221,9.911 89.754,11.833 41.267,2.051 86.849,-1.11 118.676,-18.754 32.253,-17.856 47.846,-46.052 79.416,-69.975 14.61,-11.107 32.638,-21.274 57.33,-29.135 22.043,-7.006 41.866,-9.355 61.217,-10.509 51.691,-3.118 99.751,2.179 176.262,-50.751 7.647,-5.297 16.874,-10.338 27.17,-15.037 2.862,-1.367 5.852,-2.649 8.886,-3.93 0.17,-0.086 0.341,-0.171 0.47,-0.214 71.513,-30.203 182.199,-48.102 182.199,-48.102 L 1370.921,654.596 115.172,192.282 -4.4,6.408 C -6.408,3.247 -3.674,-0.812 0,0"
                   style="fill:#371a45;fill-opacity:1;fill-rule:nonzero;stroke:none"
                   id="path72" /></g></g></g></g><g
           id="g80"><g
             id="g82" /><g
             id="g94"><g
               clip-path="url(#clipPath86)"
               opacity="0.350006"
               id="g92"><g
                 transform="translate(562.4333,1517.1569)"
                 id="g90"><path
                   d="m 0,0 c -0.473,1.927 -0.931,3.893 -1.372,5.896 -22.514,102.321 45.929,202.688 148.954,221.722 100.486,18.565 284.347,61.111 511.756,152.375 283.488,113.805 514.175,241.025 581.929,279.515 l 7.262,50.538 c 0,0 -263.367,-155.201 -602.178,-291.178 C 297.459,278.875 51.007,253.542 51.007,253.542 -51.435,154.774 -18.07,42.164 0,0"
                   style="fill:#ffffff;fill-opacity:1;fill-rule:nonzero;stroke:none"
                   id="path88" /></g></g></g></g><g
           id="g96"
           transform="translate(1789.0474,2195.0107)"><path
             d="m 0,0 c -79.209,-44.534 -303.818,-166.448 -573.882,-274.824 -317.219,-127.297 -553.606,-160.757 -593.894,-165.774 -89.282,-89.837 -60.058,-190.728 -43.476,-229.763 494.831,309.109 1109.465,527.197 1194.919,556.823 z m -1222.322,-709.573 c -5.722,1.553 -10.571,5.464 -13.31,10.74 -13.872,26.76 -76.743,166.36 48.178,286.817 l 4.248,4.091 5.86,0.606 c 2.446,0.254 248.418,26.841 590.735,164.214 C -253.023,-109.238 10.596,45.359 13.22,46.904 l 30.654,18.062 -29.362,-204.107 -9.964,-3.356 c -6.75,-2.276 -681.252,-231.297 -1209.922,-564.522 -3.437,-2.168 -7.402,-3.288 -11.401,-3.288 -1.86,0 -3.725,0.241 -5.547,0.734"
             style="fill:#371a45;fill-opacity:1;fill-rule:nonzero;stroke:none"
             id="path98" /></g><g
           id="g100"
           transform="translate(2224.8171,1467.3685)"><path
             d="m 0,0 c -36.051,-135.848 -72.953,-199.895 -72.953,-199.895 0,0 -59.731,-130.708 -187.459,-195.454 -82.155,-41.646 -186.887,-33.107 -186.887,-33.107 0,0 -53.542,-170.189 -124.911,-204.657 -71.369,-34.467 -191.14,13.187 -171.928,137.97 12.786,83.042 65.05,206.713 99.835,246.81 43.527,50.174 223.003,257.135 244.549,337.409"
             style="fill:#ffffff;fill-opacity:1;fill-rule:nonzero;stroke:none"
             id="path102" /></g><g
           id="g104"><g
             id="g106" /><g
             id="g118"><g
               clip-path="url(#clipPath110)"
               opacity="0.350006"
               id="g116"><g
                 transform="translate(2224.8171,1467.3685)"
                 id="g114"><path
                   d="m 0,0 c -36.051,-135.848 -72.953,-199.895 -72.953,-199.895 0,0 -59.731,-130.708 -187.459,-195.454 -82.155,-41.646 -186.887,-33.107 -186.887,-33.107 0,0 -53.542,-170.189 -124.911,-204.657 -71.369,-34.467 -191.14,13.187 -171.928,137.97 12.786,83.042 65.05,206.713 99.835,246.81 43.527,50.174 223.003,257.135 244.549,337.409"
                   style="fill:#371a45;fill-opacity:1;fill-rule:nonzero;stroke:none"
                   id="path112" /></g></g></g></g><g
           id="g120"
           transform="translate(1602.597,806.1827)"><path
             d="m 0,0 c 20.029,-0.002 39.79,4.16 57.441,12.685 66.548,32.139 114.925,159.41 129.632,202.352 31.931,-0.852 113.828,0.769 182.463,35.559 128.02,64.895 189.405,191.04 194.942,202.878 4.382,7.805 39.631,72.842 74.257,203.33 2.422,9.121 -3.012,18.479 -12.133,20.899 -9.107,2.424 -18.479,-3.011 -20.899,-12.134 C 570.806,534.065 534.812,470.432 534.451,469.805 l -0.725,-1.412 C 533.157,467.153 474.7,342.222 354.082,281.079 277.119,242.07 177.31,249.687 176.309,249.761 l -13.592,1.108 -4.096,-13.008 C 144.319,192.471 95.596,69.065 42.578,43.462 9.622,27.544 -35.339,32.649 -66.753,55.879 c -31.745,23.481 -45.339,61.68 -38.274,107.563 12.649,82.168 64.136,201.656 95.852,238.211 149.668,172.539 233.157,288.335 248.145,344.18 2.446,9.113 -2.959,18.486 -12.075,20.932 -9.124,2.444 -18.489,-2.964 -20.933,-12.075 C 198.289,726.096 156.78,645.12 -34.99,424.048 -73.831,379.28 -126.223,250.383 -138.806,168.643 -151.072,88.982 -111.66,46.584 -87.075,28.401 -61.797,9.705 -30.583,0 0,0"
             style="fill:#371a45;fill-opacity:1;fill-rule:nonzero;stroke:none"
             id="path122" /></g><g
           id="g124"
           transform="translate(2207.3479,2111.0847)"><path
             d="m 0,0 808.626,782.153 c 0,0 116.606,159.977 265.434,42.815 146.075,-114.995 66.135,-230.685 14.843,-285.074 L 331.386,-75.781 c 0,0 -60.626,-533.528 -380.232,-723.578 -217.187,-129.148 -427.279,-25.577 -427.279,-25.577 0,0 -59.731,-130.707 -187.459,-195.454 -82.155,-41.646 -186.888,-33.106 -186.888,-33.106 0,0 -53.541,-170.19 -124.91,-204.658 -71.369,-34.467 -191.14,13.187 -171.928,137.97 12.786,83.042 65.05,206.713 99.835,246.81 43.527,50.174 223.003,257.135 244.549,337.409 116.585,434.357 440.46,627.538 440.46,627.538 z"
             style="fill:#ffffff;fill-opacity:1;fill-rule:nonzero;stroke:none"
             id="path126" /></g><g
           id="g128"
           transform="translate(1057.9832,965.9433)"><path
             d="M 0,0 C -0.683,-106.073 107.611,-145.077 173.998,-112.994 245.34,-78.562 298.91,91.634 298.91,91.634 c 0,0 104.707,-8.544 186.857,33.108 127.733,64.763 187.455,195.443 187.455,195.443 0,0 210.096,-103.553 427.283,25.589 3.246,1.923 6.494,3.93 9.698,5.938 208.301,130.509 303.737,407.846 344.107,576.931 19.95,83.56 26.443,140.719 26.443,140.719 l 113.166,91.976 109.491,88.985 534.851,434.717 c 0.727,0.769 1.453,1.538 2.179,2.35 51.35,55.279 127.006,169.341 -17.002,282.719 -148.835,117.181 -265.461,-42.805 -265.461,-42.805 l -270.545,-261.701 -538.055,-520.456 -362.478,91.549 c 0,0 -41.225,-24.607 -99.538,-75.956 -18.113,-15.935 -37.892,-34.475 -58.568,-55.664 C 546.942,1021.345 450.608,896.176 384.478,725.596 370.295,688.9 357.436,650.11 346.457,609.184 324.884,528.914 145.418,321.936 101.886,271.783 67.113,231.669 14.824,107.996 2.05,24.948 0.683,16.276 0.043,7.946 0,0"
             style="fill:#ffffff;fill-opacity:1;fill-rule:nonzero;stroke:none"
             id="path130" /></g><g
           id="g132"><g
             id="g134" /><g
             id="g146"><g
               clip-path="url(#clipPath138)"
               opacity="0.350006"
               id="g144"><g
                 transform="translate(1057.9832,965.9433)"
                 id="g142"><path
                   d="M 0,0 C -0.683,-106.073 107.611,-145.077 173.998,-112.994 245.34,-78.562 298.91,91.634 298.91,91.634 c 0,0 104.707,-8.544 186.857,33.108 127.733,64.763 187.455,195.443 187.455,195.443 0,0 210.096,-103.553 427.283,25.589 3.246,1.923 6.494,3.93 9.698,5.938 -73.051,-17.216 -181.004,-32.723 -275.543,-6.621 -161.14,44.428 -161.14,97.23 -222.228,87.49 C 551.299,422.883 608.629,301.175 471.412,205.482 323.474,102.271 177.799,198.092 154.048,172.844 130.253,147.597 227.141,104.578 216.547,11.705 207.234,-69.676 40.969,-113.079 0,0"
                   style="fill:#371a45;fill-opacity:1;fill-rule:nonzero;stroke:none"
                   id="path140" /></g></g></g></g><g
           id="g148"><g
             id="g150" /><g
             id="g162"><g
               clip-path="url(#clipPath154)"
               opacity="0.350006"
               id="g160"><g
                 transform="translate(2651.9023,2127.2813)"
                 id="g158"><path
                   d="m 0,0 644.342,523.702 c 0.727,0.769 1.453,1.538 2.179,2.35 L 513.235,715.001 c 0,0 -86.678,-338.511 -244.228,-394.047 C 143.581,276.739 126.493,490.381 126.493,490.381 Z"
                   style="fill:#371a45;fill-opacity:1;fill-rule:nonzero;stroke:none"
                   id="path156" /></g></g></g></g><g
           id="g164"
           transform="translate(1358.2538,1074.6227)"><path
             d="m 0,0 c 1.004,-0.083 101.072,-7.571 177.783,31.313 120.618,61.143 179.075,186.075 179.644,187.315 l 7.314,15.955 15.764,-7.72 c 2.024,-0.994 204.756,-97.715 411.011,24.927 308.516,183.457 371.387,705.571 371.988,710.825 l 0.788,6.928 762.039,619.351 c 31.069,33.152 66.823,83.965 62.732,139.246 -3.113,42.036 -28.843,82.365 -76.477,119.863 -38.904,30.627 -78.736,43.428 -118.37,38.02 -72.287,-9.841 -122.209,-76.821 -122.688,-77.473 l -0.869,-1.192 -816.523,-789.795 -364.563,92.103 C 445.759,1081.072 167.444,886.406 62.673,496.069 47.676,440.2 -35.813,324.402 -185.474,151.89 c -31.711,-36.556 -83.2,-156.041 -95.852,-238.211 -7.065,-45.884 6.529,-84.087 38.277,-107.566 31.411,-23.23 76.372,-28.337 109.331,-12.417 53.015,25.603 101.74,149.012 116.042,194.402 l 4.104,12.988 z m -263.371,-221.365 c -24.585,18.184 -63.997,60.581 -51.734,140.244 12.585,81.744 64.978,210.64 103.816,255.408 191.76,221.038 233.276,302.034 240.955,330.64 61.135,227.768 179.455,388.847 267.946,483.869 96.099,103.184 176.871,151.892 180.264,153.914 l 6.077,3.625 360.1,-90.974 800.808,774.59 c 8.037,10.562 62.715,78.626 144.46,89.898 49.263,6.775 97.852,-8.348 144.402,-44.993 55.486,-43.679 85.572,-92.193 89.422,-144.194 3.994,-53.941 -21.153,-111.353 -72.715,-166.031 l -0.777,-0.823 L 1196.587,951.75 C 1192.671,921.97 1174.981,803.198 1126.343,664.507 1075.125,518.462 978.491,323.213 808.982,222.415 617.92,108.804 434.622,167.668 380.889,189.412 360.688,152.099 300.237,55.071 193.237,0.83 124.6,-33.96 42.686,-35.623 10.776,-34.727 -3.931,-77.671 -52.309,-204.939 -118.855,-237.08 c -17.654,-8.525 -37.412,-12.686 -57.444,-12.686 -30.583,0 -61.794,9.705 -87.072,28.401"
             style="fill:#371a45;fill-opacity:1;fill-rule:nonzero;stroke:none"
             id="path166" /></g><g
           id="g168"
           transform="translate(1819.8903,1490.0726)"><path
             d="m 0,0 c -0.512,-41.353 21.019,-80.527 55.75,-94.283 87.02,-34.517 233.336,-74.46 390.288,-39.302 36.483,8.16 69.505,30.972 93.471,65.191 29.007,41.438 67.754,109.405 98.768,208.686 11.278,36.141 -12.773,74.119 -44.599,70.701 C 514.859,202.449 368.63,203.432 168.402,275.884 129.484,289.982 88.003,266.7 71.983,221.545 L 31.656,107.996 6.537,37.209 C 2.222,25.034 0.086,12.431 0,0"
             style="fill:#ffffff;fill-opacity:1;fill-rule:nonzero;stroke:none"
             id="path170" /></g><g
           id="g172"><g
             id="g174" /><g
             id="g186"><g
               clip-path="url(#clipPath178)"
               opacity="0.350006"
               id="g184"><g
                 transform="translate(1819.8903,1490.0726)"
                 id="g182"><path
                   d="m 0,0 c -0.512,-41.353 21.019,-80.527 55.75,-94.283 87.02,-34.517 233.336,-74.46 390.288,-39.302 36.483,8.16 69.505,30.972 93.471,65.191 1.752,2.477 3.503,5.04 5.298,7.732 -12.816,-7.476 -26.53,-12.902 -40.755,-16.063 -156.995,-35.158 -303.311,4.785 -390.331,39.302 -14.995,5.939 -27.512,16.618 -36.91,30.118 16.404,4.229 30.887,18.412 36.952,37.636 l 1.154,3.631 c 9.954,31.442 -6.237,63.012 -33.962,66.387 -4.529,0.555 -9.057,1.153 -13.586,1.794 l 62.5,176.006 C 104.749,272.125 82.663,251.705 71.983,221.545 L 31.656,107.996 6.537,37.209 C 5.981,35.671 5.511,34.176 5.042,32.638 4.657,31.399 4.272,30.16 3.974,28.921 3.248,26.401 2.692,23.838 2.18,21.317 1.966,20.249 1.752,19.138 1.581,18.028 1.325,16.703 1.154,15.379 0.984,14.012 0.77,12.474 0.599,10.894 0.47,9.356 0.299,7.775 0.214,6.237 0.129,4.656 0.044,3.119 0,1.538 0,0"
                   style="fill:#371a45;fill-opacity:1;fill-rule:nonzero;stroke:none"
                   id="path180" /></g></g></g></g><g
           id="g188"
           transform="translate(2415.4243,1684.0709)"><path
             d="m 0,0 c -88.184,-9.531 -234.883,-5.862 -432.962,65.818 -12.937,4.68 -26.428,4.014 -39.013,-1.929 C -487.9,56.37 -500.5,41.436 -507.456,21.843 l -65.452,-184.365 c -15.627,-44.019 2.788,-95.371 39.407,-109.893 90.923,-36.054 230.696,-72.004 380.278,-38.496 32.395,7.256 61.941,27.974 83.194,58.338 26.989,38.557 65.63,105.241 96.45,203.95 4.292,13.745 1.619,29.255 -6.812,39.512 C 16.68,-5.547 10.676,0.117 2.126,0.117 1.436,0.117 0.725,0.08 0,0 m -546.099,-304.182 c -53.867,21.36 -80.893,91.47 -59.016,153.096 l 65.452,184.365 c 10.024,28.23 28.879,50.078 53.093,61.513 20.698,9.776 43.87,10.901 65.239,3.165 191.927,-69.458 333.06,-73.133 417.654,-63.978 18.728,2.01 36.848,-5.771 49.688,-21.391 15.791,-19.212 20.783,-46.57 13.032,-71.397 -32.126,-102.895 -72.698,-172.822 -101.074,-213.364 -26.153,-37.363 -62.989,-62.964 -103.721,-72.087 -44.57,-9.986 -88.245,-14.16 -130.134,-14.158 -106.668,0 -201.719,27.075 -270.213,54.236"
             style="fill:#371a45;fill-opacity:1;fill-rule:nonzero;stroke:none"
             id="path190" /></g><g
           id="g192"><g
             id="g194" /><g
             id="g206"><g
               clip-path="url(#clipPath198)"
               opacity="0.350006"
               id="g204"><g
                 transform="translate(1473.859,1733.5876)"
                 id="g202"><path
                   d="m 0,0 c 78.369,-39.571 258.55,-122.626 426.973,-143.163 27.75,-3.384 43.941,-34.934 33.976,-66.391 l -1.155,-3.646 c -7.775,-24.545 -29.178,-40.857 -50.912,-38.717 -175.711,17.299 -375.271,93.434 -459.407,128.284 -22.529,9.332 -32.215,38.968 -21.481,65.704 l 11.534,28.727 C -49.594,-2.108 -22.126,11.172 0,0"
                   style="fill:#371a45;fill-opacity:1;fill-rule:nonzero;stroke:none"
                   id="path200" /></g></g></g></g><g
           id="g208"
           transform="translate(1469.587,1776.3074)"><path
             d="m 0,0 c 78.369,-39.571 258.55,-122.626 426.972,-143.163 27.751,-3.384 43.942,-34.934 33.977,-66.391 l -1.155,-3.646 c -7.775,-24.545 -29.178,-40.856 -50.912,-38.717 -175.711,17.299 -375.271,93.435 -459.407,128.284 -22.529,9.332 -32.215,38.968 -21.481,65.704 l 11.534,28.727 C -49.594,-2.108 -22.126,11.172 0,0"
             style="fill:#ffffff;fill-opacity:1;fill-rule:nonzero;stroke:none"
             id="path210" /></g><g
           id="g212"
           transform="translate(1461.8842,1761.0533)"><path
             d="m 0,0 c -6.58,3.32 -12.92,2.146 -17.073,0.581 -8.574,-3.235 -15.805,-10.852 -19.838,-20.896 l -11.536,-28.726 c -7.185,-17.9 -1.614,-37.844 12.163,-43.552 78.386,-32.466 279.587,-109.839 454.541,-127.063 13.552,-1.343 27.678,10.225 32.949,26.868 l 1.155,3.647 c 3.762,11.875 2.541,24.353 -3.259,33.379 -2.828,4.395 -7.981,9.854 -16.495,10.891 C 259.246,-123.73 72.322,-36.516 0,0 m 414.91,-253.669 c -179.51,17.675 -384.478,96.452 -464.27,129.502 -31.238,12.939 -45.057,52.351 -30.801,87.858 l 11.536,28.728 c 7.587,18.904 21.982,33.533 39.489,40.137 14.942,5.635 30.764,4.91 44.541,-2.048 70.716,-35.706 253.333,-120.967 421.341,-141.453 16.914,-2.065 31.513,-11.418 41.103,-26.338 11.236,-17.478 13.889,-40.722 7.095,-62.175 l -1.157,-3.65 c -9.58,-30.242 -35.681,-50.828 -63.413,-50.828 -1.814,0 -3.641,0.088 -5.464,0.267"
             style="fill:#371a45;fill-opacity:1;fill-rule:nonzero;stroke:none"
             id="path214" /></g><g
           id="g216"><g
             id="g218" /><g
             id="g230"><g
               clip-path="url(#clipPath222)"
               opacity="0.350006"
               id="g228"><g
                 transform="translate(1930.5396,1566.7831)"
                 id="g226"><path
                   d="M 0,0 -1.151,-3.656 C -8.953,-28.19 -30.342,-44.528 -52.07,-42.402 -227.781,-25.06 -427.366,51.057 -511.491,85.871 c -22.523,9.362 -32.195,38.966 -21.449,65.692 l 11.539,28.779 c 0.29,0.77 0.635,1.523 0.961,2.213 0.978,-17.937 10.404,-33.823 25.78,-40.266 C -410.535,107.475 -210.97,31.292 -35.239,14.015 -21.599,12.66 -8.066,18.623 2.002,29.337 3.729,20.176 3.18,10.053 0,0"
                   style="fill:#371a45;fill-opacity:1;fill-rule:nonzero;stroke:none"
                   id="path224" /></g></g></g></g><g
           id="g232"
           transform="translate(3332.054,2695.8423)"><path
             d="m 0,0 c 0,0 -36.471,-46.023 -88.406,-38.033 -86.329,13.282 -206.571,105.637 -181.842,170.636 20.529,53.956 79.436,54.057 58.566,96.194"
             style="fill:#ffffff;fill-opacity:1;fill-rule:nonzero;stroke:none"
             id="path234" /></g><g
           id="g236"><g
             id="g238" /><g
             id="g250"><g
               clip-path="url(#clipPath242)"
               opacity="0.350006"
               id="g248"><g
                 transform="translate(3243.6572,2657.8186)"
                 id="g246"><path
                   d="m 0,0 c 51.947,-7.989 88.387,38.021 88.387,38.021 l -0.085,0.085 C 74.375,31.271 57.244,26.828 37.978,29.776 c -86.337,13.286 -206.594,105.603 -181.859,170.623 8.801,23.154 24.692,36.397 38.319,47.29 l -17.728,19.139 c 20.89,-42.164 -38.021,-42.25 -58.568,-96.205 C -206.594,105.646 -86.337,13.286 0,0"
                   style="fill:#371a45;fill-opacity:1;fill-rule:nonzero;stroke:none"
                   id="path244" /></g></g></g></g><g
           id="g252"
           transform="translate(3318.6621,2706.4548)"><path
             d="m 0,0 -1.792,-2.034 c -0.696,-0.784 -1.45,-1.565 -2.227,-2.349 -1.499,-1.577 -3.161,-3.095 -4.792,-4.596 -3.323,-2.967 -6.8,-5.792 -10.435,-8.296 -7.233,-5.081 -14.983,-9.129 -22.924,-11.712 -7.947,-2.598 -16.063,-3.699 -24.124,-3.32 l -6.043,0.544 -6.809,1.221 c -4.555,0.976 -9.121,2.031 -13.674,3.364 -18.232,5.21 -36.174,13.022 -53.211,22.422 -17.028,9.426 -33.305,20.44 -47.993,32.961 -14.624,12.476 -28.142,26.463 -37.27,41.944 -4.563,7.676 -7.915,15.678 -9.543,23.254 -1.656,7.627 -1.295,14.453 0.588,20.642 0.303,1.414 1.24,3.562 1.912,5.43 0.866,1.846 1.628,3.752 2.631,5.535 1.89,3.628 3.924,7.224 6.467,10.625 4.954,6.896 11.199,13.376 18.331,20.432 3.547,3.562 7.488,7.055 11.33,11.321 3.809,4.287 8.059,8.808 11.216,15.254 1.636,3.073 2.83,6.755 3.53,10.4 0.569,3.74 0.479,7.512 -0.192,10.937 -1.297,6.939 -4.642,12.237 -8.162,16.734 -1.978,2.527 -5.63,2.971 -8.157,0.993 -1.78,-1.391 -2.527,-3.613 -2.124,-5.691 l 0.073,-0.359 c 0.928,-4.726 1.319,-9.284 0.506,-12.678 -0.818,-3.432 -2.322,-5.527 -4.729,-7.878 -4.829,-4.717 -13.504,-9.651 -22.247,-15.542 -8.908,-5.803 -18.181,-13.042 -26.203,-22.158 -3.999,-4.544 -7.725,-9.529 -10.864,-14.876 -1.624,-2.646 -2.967,-5.442 -4.375,-8.21 -1.223,-2.913 -2.571,-5.405 -3.572,-8.982 -4.478,-13.401 -4.258,-27.942 -0.928,-40.259 3.26,-12.451 8.792,-23.289 15,-33.113 12.578,-19.589 28.023,-35.6 44.644,-49.792 16.65,-14.178 34.653,-26.338 53.62,-36.846 18.994,-10.461 39.007,-19.248 60.367,-25.371 5.327,-1.553 10.788,-2.832 16.296,-3.999 l 8.386,-1.499 9.326,-0.886 c 12.488,-0.637 25.059,1.159 36.66,4.978 11.632,3.799 22.283,9.465 31.883,16.196 4.831,3.345 9.36,7.019 13.708,10.906 2.158,1.978 4.29,3.945 6.343,6.089 1.033,1.045 2.063,2.116 3.081,3.254 1.074,1.174 1.924,2.132 3.276,3.784 5.97,7.298 4.891,18.055 -2.407,24.021 C 17.248,8.625 6.823,7.732 0.781,0.888 Z"
             style="fill:#371a45;fill-opacity:1;fill-rule:nonzero;stroke:none"
             id="path254" /></g><g
           id="g256"
           transform="translate(2966.0227,2810.3584)"><path
             d="m 0,0 c 49.951,82.879 106.906,87.644 173.777,49.841 48.783,-27.578 73.639,-76.027 57.734,-104.303 -19.116,-33.985 -112.924,22.425 -115.95,19.734 -3.026,-2.69 20.571,-48.709 8.086,-88.985"
             style="fill:#ffffff;fill-opacity:1;fill-rule:nonzero;stroke:none"
             id="path258" /></g><g
           id="g260"
           transform="translate(2968.4619,2808.8889)"><path
             d="m 0,0 c 4.46,3.97 8.628,7.998 12.632,12.058 l 6.369,5.683 c 2.071,1.9 4.009,3.909 6.145,5.679 8.611,6.963 16.831,13.914 25.742,18.855 4.236,2.898 8.88,4.624 13.177,6.885 4.573,1.499 8.886,3.533 13.486,4.314 8.984,2.327 18.193,2.788 27.627,1.684 4.666,-0.251 9.487,-1.477 14.253,-2.321 4.78,-1.48 9.634,-2.415 14.455,-4.356 9.683,-3.186 19.341,-7.859 28.875,-12.719 17.895,-9.705 34.075,-23.646 44.094,-40.366 5.064,-8.213 8.296,-17.181 9.114,-25.096 0.178,-3.862 0.107,-7.571 -0.996,-10.371 -0.244,-1.596 -1.235,-2.637 -1.68,-3.996 -0.28,-0.352 -0.28,-0.183 -0.451,-0.301 -0.279,-0.149 -2.6,-0.974 -6.341,-0.925 -3.669,-0.03 -8.23,0.569 -12.934,1.601 -9.522,1.995 -19.666,5.496 -29.851,9.283 -10.247,3.83 -20.398,8.227 -31.189,12.619 -2.754,1.128 -5.408,2.241 -8.755,3.496 -0.879,0.323 -1.77,0.65 -3.057,1.055 l -1.042,0.315 -1.548,0.391 c -0.601,0.144 -1.836,0.356 -2.732,0.444 -1.192,0.11 -2.473,0.11 -3.699,-0.007 -0.205,-0.022 -1.384,-0.066 -3.809,-0.813 -1.962,-0.645 -3.874,-1.692 -5.427,-2.923 -1.487,-1.218 -1.716,-1.584 -2.573,-2.561 -0.696,-0.852 -1.333,-1.789 -1.875,-2.771 -1.079,-1.811 -1.848,-4.636 -1.812,-4.773 -0.302,-1.457 -0.458,-2.995 -0.456,-4.453 l 0.132,-1.914 c 0.064,-0.662 0.156,-1.309 0.22,-1.572 0.298,-1.628 0.593,-2.642 0.876,-3.66 1.116,-3.616 2.105,-6.218 3.123,-8.947 l 3.003,-7.808 c 7.773,-20.442 14.636,-39.876 15.393,-63.108 l 0.002,-0.093 c 0.054,-1.645 1.431,-2.937 3.079,-2.883 0.976,0.031 1.838,0.544 2.358,1.289 7.163,10.393 10.64,23.254 11.814,35.877 1.113,12.688 -0.103,25.38 -2.375,37.377 l -3.536,16.463 c -0.046,0.388 -0.083,0.776 -0.005,0.571 -0.012,0.09 0.052,-0.198 0.091,-0.498 0.034,-0.278 0.049,-0.557 0.044,-0.835 0.036,-1.098 -0.081,-2.28 -0.349,-3.379 l -0.418,-1.506 c -0.3,-0.928 -0.703,-1.87 -1.201,-2.771 -0.498,-0.904 -1.091,-1.763 -1.743,-2.534 -0.806,-0.908 -1.021,-1.165 -2.424,-2.349 -1.468,-1.196 -3.296,-2.209 -5.176,-2.822 -2.344,-0.701 -3.435,-0.728 -3.548,-0.76 -1.045,-0.119 -2.148,-0.119 -3.159,-0.009 -0.542,0.021 -1.418,0.192 -1.67,0.249 l -0.502,0.109 -0.015,-0.019 0.988,-0.471 7.063,-3.501 c 10.149,-5.269 20.965,-10.51 32.171,-15.166 11.248,-4.678 22.991,-8.75 36.067,-11.463 6.584,-1.257 13.53,-2.197 21.401,-1.97 7.705,0.31 17.227,1.751 26.497,8.25 4.512,3.242 8.469,7.793 10.981,12.488 1.777,3.947 3.814,7.927 4.634,12.05 2.363,8.262 2.202,16.333 1.438,23.892 -2.014,15.032 -7.883,27.827 -14.841,39.216 -14.371,22.566 -33.934,39.939 -55.882,53.24 -10.747,6.067 -21.599,12.146 -33.733,16.533 -5.864,2.463 -12.275,4.141 -18.574,5.85 -3.22,0.73 -6.557,1.228 -9.834,1.828 -1.655,0.259 -3.271,0.628 -4.958,0.784 l -5.105,0.288 C 101.318,92.544 94.375,92.019 87.514,91.421 80.693,90.09 73.835,88.935 67.39,86.372 64.116,85.271 60.872,84.109 57.896,82.427 54.878,80.842 51.799,79.37 48.909,77.639 43.438,73.789 37.781,70.176 33.215,65.549 23.415,56.914 16.03,46.623 9.59,36.181 6.516,30.876 3.855,25.381 1.257,19.944 -0.996,14.316 -3.083,8.657 -4.878,2.939 c -0.486,-1.543 0.374,-3.186 1.916,-3.669 1.016,-0.32 2.076,-0.056 2.82,0.603 z"
             style="fill:#371a45;fill-opacity:1;fill-rule:nonzero;stroke:none"
             id="path262" /></g><g
           id="g264"
           transform="translate(1778.3885,1053.8888)"><path
             d="m 0,0 c -4.343,1.182 -9.861,2.249 -14.856,3.347 l -15.361,3.308 c -10.203,2.371 -20.459,4.658 -30.511,7.857 -10.105,3.11 -19.772,7.268 -29.348,12.138 -9.673,4.829 -18.393,11.214 -27.551,18.265 l -0.129,0.1 c -0.958,0.737 -2.332,0.559 -3.069,-0.401 -0.506,-0.656 -0.579,-1.513 -0.266,-2.221 4.797,-10.794 11.574,-21.182 20.141,-29.922 8.589,-8.64 18.328,-16.475 28.975,-22.554 10.613,-6.128 21.816,-11.375 33.545,-14.749 5.852,-1.723 11.794,-3.127 17.847,-3.984 6.152,-0.957 11.884,-1.416 18.842,-1.135 8.291,0.337 14.741,7.334 14.405,15.625 -0.274,6.706 -4.9,12.207 -11.045,13.889 z"
             style="fill:#371a45;fill-opacity:1;fill-rule:nonzero;stroke:none"
             id="path266" /></g><g
           id="g268"
           transform="translate(1357.7465,1072.5631)"><path
             d="m 0,0 c -4.343,1.182 -9.858,2.249 -14.856,3.347 l -15.361,3.311 c -10.203,2.368 -20.459,4.658 -30.511,7.856 -10.105,3.108 -19.773,7.266 -29.348,12.139 -9.673,4.829 -18.393,11.213 -27.549,18.262 l -0.131,0.1 c -0.957,0.737 -2.332,0.559 -3.069,-0.398 -0.506,-0.659 -0.579,-1.514 -0.264,-2.225 4.795,-10.79 11.575,-21.179 20.139,-29.919 8.589,-8.64 18.33,-16.474 28.975,-22.554 10.613,-6.127 21.816,-11.374 33.545,-14.751 5.852,-1.721 11.794,-3.127 17.846,-3.981 6.153,-0.958 11.888,-1.419 18.843,-1.136 8.294,0.337 14.741,7.332 14.405,15.625 C 12.393,-7.62 7.766,-2.119 1.619,-0.437 Z"
             style="fill:#371a45;fill-opacity:1;fill-rule:nonzero;stroke:none"
             id="path270" /></g><g
           id="g272"
           transform="translate(1111.0835,1564.3624)"><path
             d="m 0,0 c 60.15,-17.515 134.396,-3.802 134.396,-3.802 0,0 3.204,-88.473 52.974,-71.428 16.062,5.511 29.433,38.277 38.747,69.633 13.969,46.864 42.335,88.302 82.064,116.797 7.689,5.51 15.422,10.85 23.197,15.977 130.552,86.379 268.835,120.854 268.835,120.854 l 21.403,197.579 12.645,116.711 0.599,5.468 C 612.09,563.432 584.919,553.649 555.145,540.107 405.369,472.139 190.445,309.847 142.94,267.554 85.953,216.803 -83.773,236.924 -102.656,132.987 -115.77,60.833 -79.672,23.154 0,0"
             style="fill:#ffffff;fill-opacity:1;fill-rule:nonzero;stroke:none"
             id="path274" /></g><g
           id="g276"><g
             id="g278" /><g
             id="g290"><g
               clip-path="url(#clipPath282)"
               opacity="0.350006"
               id="g288"><g
                 transform="translate(1111.0835,1564.3624)"
                 id="g286"><path
                   d="m 0,0 c 60.15,-17.515 134.396,-3.802 134.396,-3.802 0,0 3.204,-88.473 52.974,-71.428 16.062,5.511 29.433,38.277 38.747,69.633 13.969,46.864 42.335,88.302 82.064,116.797 7.689,5.51 15.422,10.85 23.197,15.977 130.552,86.379 268.835,120.854 268.835,120.854 v 0 c -28.945,20.3 -65.54,26.387 -99.456,16.404 C 464.213,253.679 414.714,234.24 348.722,190.573 340.947,185.447 333.214,180.107 325.526,174.596 285.796,146.102 257.43,104.664 243.46,57.8 234.148,26.443 220.777,-6.323 204.713,-11.833 175.98,-21.674 165.74,3.984 162.217,27.433 159.555,45.152 143.68,57.855 125.823,56.384 96.124,53.939 52.748,53.087 17.344,63.396 -51.178,83.304 -87.447,113.934 -87.959,168.017 c -7.135,-9.826 -12.219,-21.36 -14.697,-35.03 C -115.77,60.833 -79.672,23.154 0,0"
                   style="fill:#371a45;fill-opacity:1;fill-rule:nonzero;stroke:none"
                   id="path284" /></g></g></g></g><g
           id="g292"
           transform="translate(1709.9315,1817.9122)"><path
             d="m 0,0 c -14.358,-0.334 -28.123,-2.444 -41.863,-5.046 -13.681,-2.71 -27.18,-6.162 -40.454,-10.281 -26.492,-8.389 -52.402,-18.599 -77.6,-30.396 -12.688,-5.7 -24.988,-12.256 -37.341,-18.655 l -18.247,-10.18 -9.107,-5.11 -8.967,-5.378 -17.949,-10.716 -17.578,-11.364 -8.794,-5.669 -8.614,-5.975 -17.216,-11.958 c -23.856,-17.292 -44.517,-39.316 -59.917,-64.565 -7.745,-12.6 -14.283,-25.96 -19.319,-39.878 -1.265,-3.479 -2.505,-6.965 -3.548,-10.517 l -2.998,-9.949 c -1.904,-6.287 -3.93,-12.495 -6.113,-18.567 -4.365,-11.958 -9.558,-24.026 -15.623,-32.439 -0.744,-0.972 -1.481,-2.053 -2.199,-2.752 l -1.05,-1.198 c -0.327,-0.259 -0.637,-0.53 -0.94,-0.816 -0.662,-0.744 -1.001,-0.642 -1.382,-1.094 -0.256,0.096 0.205,-0.063 -1.23,-0.38 -4.156,-1.192 -7.017,-1.221 -9.031,-0.313 -2.11,0.676 -4.736,2.915 -7.322,6.719 -2.554,3.796 -4.839,8.799 -6.616,14.277 -1.824,5.457 -3.193,11.389 -4.26,17.439 -1.028,5.93 -1.809,12.588 -2.083,18.04 l -0.979,19.429 -19.202,-3.243 c -11.052,-1.865 -23.41,-3.215 -35.224,-3.982 -11.936,-0.759 -23.904,-1.086 -35.737,-0.637 -11.836,0.43 -23.55,1.507 -34.983,3.357 -11.419,1.897 -22.102,5 -33.645,8.728 -22.261,7.569 -43.55,17.529 -58.589,31.917 -7.354,7.258 -12.92,15.524 -16.392,24.819 -3.506,9.28 -4.939,19.602 -4.895,30.391 0.383,5.473 0.481,10.913 1.504,16.513 0.718,5.784 1.785,10.608 3.318,15.413 3.071,9.56 8.179,18.061 15.154,25.447 13.965,14.865 35.07,24.824 57.4,32.309 22.483,7.534 46.504,12.874 70.974,18.826 12.253,2.991 24.663,6.113 37.202,10.007 12.524,3.931 25.247,8.548 37.83,15.471 l 4.702,2.652 4.641,3.074 c 3.115,1.918 6.069,4.538 9.053,6.906 l 6.931,5.979 6.987,5.867 c 9.436,7.803 19.131,15.481 28.853,23.115 19.523,15.22 39.362,30.149 59.377,44.834 40.046,29.356 80.793,57.815 122.275,85.017 41.536,27.073 83.511,53.553 127.107,76.485 21.922,11.235 44.246,21.311 65.887,32.319 21.933,10.684 42.954,21.518 64.921,34.375 l 0.245,0.144 c 2.834,1.658 3.786,5.298 2.128,8.132 -0.988,1.69 -2.717,2.715 -4.526,2.91 -6.631,0.677 -13.513,1.033 -20.037,0.399 -3.281,-0.299 -6.621,-0.489 -9.909,-0.911 -3.252,-0.454 -6.45,-1.079 -9.678,-1.673 -12.898,-2.451 -25.234,-6.411 -37.234,-11.03 -24.143,-8.967 -46.418,-21.479 -68.403,-34.036 -22.002,-12.553 -43.953,-25.004 -65.466,-38.142 -21.541,-13.083 -42.752,-26.618 -63.785,-40.398 -42.05,-27.578 -83.227,-56.337 -123.742,-86.035 -20.254,-14.863 -40.327,-29.968 -60.198,-45.456 -9.917,-7.788 -19.8,-15.613 -29.612,-23.726 l -7.358,-6.177 -7.249,-6.254 c -3.699,-3.006 -7.668,-5.999 -12.461,-8.47 -18.828,-10.29 -42.734,-16.291 -66.567,-22.173 -24.033,-5.869 -48.875,-11.315 -73.787,-19.638 -12.444,-4.195 -24.939,-9.133 -37.121,-15.676 -12.141,-6.534 -24.065,-14.783 -34.248,-25.584 -10.201,-10.718 -18.274,-24.126 -22.801,-38.359 -2.285,-7.058 -3.821,-14.517 -4.636,-21.114 -1.189,-6.713 -1.438,-13.781 -1.841,-20.769 -0.107,-14.155 1.77,-28.969 7.105,-43.068 5.241,-14.112 14.028,-26.968 24.502,-37.193 21.384,-20.256 46.836,-31.284 71.572,-39.841 6.352,-1.885 12.246,-4.09 18.984,-5.691 6.597,-1.846 13.208,-3.079 19.824,-4.331 13.223,-2.153 26.417,-3.342 39.537,-3.819 13.125,-0.49 26.157,-0.131 39.135,0.694 13.101,0.881 25.608,2.182 39.182,4.475 l -20.178,16.186 c 0.418,-8.193 1.297,-15.117 2.564,-22.648 1.306,-7.398 2.991,-14.817 5.486,-22.325 2.473,-7.49 5.698,-15.124 10.754,-22.693 5.01,-7.385 12.51,-15.38 23.325,-19.458 5.259,-2.124 11.009,-2.973 16.326,-2.912 2.671,0.051 5.308,0.22 7.725,0.708 2.546,0.351 4.829,0.981 7.084,1.66 1.924,0.413 5.403,1.914 8.27,3.381 2.377,1.541 5.119,3.245 6.862,4.954 l 2.867,2.612 2.375,2.608 c 1.658,1.767 2.883,3.488 4.204,5.237 5.049,6.958 8.613,13.796 11.831,20.612 3.172,6.814 5.904,13.599 8.35,20.384 2.441,6.782 4.651,13.564 6.704,20.349 l 2.912,9.67 c 0.875,3.006 1.932,5.952 2.999,8.894 4.252,11.775 9.792,23.076 16.352,33.745 13.059,21.414 30.505,40.017 50.862,54.788 43.242,31.308 90.508,57.082 139.311,79.267 48.509,23.086 98.494,42.132 147.105,68.069 l 0.129,0.069 c 2.845,1.518 3.919,5.053 2.403,7.898 C 4.214,-1.079 2.129,0.044 0,0"
             style="fill:#371a45;fill-opacity:1;fill-rule:nonzero;stroke:none"
             id="path294" /></g><g
           id="g296"><g
             id="g298" /><g
             id="g310"><g
               clip-path="url(#clipPath302)"
               opacity="0.350006"
               id="g308"><g
                 transform="translate(1666.2283,2104.469)"
                 id="g306"><path
                   d="m 0,0 c 3.545,-6.194 7.219,-12.346 10.978,-18.455 3.119,-5.041 6.323,-10.082 9.569,-14.995 14.184,-21.573 29.519,-41.908 45.924,-61.046 122.179,-142.599 301.645,-216.718 482.308,-209.156 11.491,0.512 22.982,1.324 34.474,2.477 31.57,3.162 63.054,8.843 94.154,17.131 25.718,6.878 51.264,15.507 76.341,25.974 29.134,12.132 57.629,26.657 85.311,43.745 2.35,1.452 4.657,2.947 7.006,4.443 19.95,83.559 26.443,140.719 26.443,140.719 l 113.166,91.975 109.491,88.986 c 43.147,133.029 39.9,280.327 -15.978,415.279 L 541.132,6.622 178.654,98.17 c 0,0 -41.225,-24.607 -99.538,-75.956 l 0.599,5.468 C 56.945,23.325 29.775,13.542 0,0"
                   style="fill:#371a45;fill-opacity:1;fill-rule:nonzero;stroke:none"
                   id="path304" /></g></g></g></g><g
           id="g312"><g
             id="g314" /><g
             id="g326"><g
               clip-path="url(#clipPath318)"
               opacity="0.699997"
               id="g324"><g
                 transform="translate(2740.5293,2650.2581)"
                 id="g322"><path
                   d="M 0,0 C 11.123,-27.872 18.864,-53.229 24.02,-72.72 18.671,-47.175 10.529,-22.837 0,0"
                   style="fill:#ffffff;fill-opacity:1;fill-rule:nonzero;stroke:none"
                   id="path320" /></g></g></g></g><g
           id="g328"
           transform="translate(2796.7068,2294.2402)"><path
             d="m 0,0 c -30.4,-95.875 -84.874,-184.555 -161.497,-256.29 -15.633,-14.621 -32.118,-28.527 -49.521,-41.632 -8.448,-6.402 -17.19,-12.602 -26.109,-18.683 -26.973,-18.177 -54.873,-33.859 -83.486,-47.109 -24.633,-11.482 -49.817,-21.115 -75.276,-29.006 -30.741,-9.544 -61.974,-16.462 -93.363,-20.894 -11.454,-1.578 -22.914,-2.848 -34.379,-3.812 -209.899,-17.187 -422.661,76.418 -548.706,263.501 -185.732,275.552 -112.873,649.477 162.63,835.199 53.087,35.732 109.842,61.993 168.193,78.905 6.8,2.042 13.688,3.894 20.603,5.597 18.465,4.684 37.048,8.466 55.699,11.338 43.137,6.629 86.659,8.457 129.709,5.682 43.04,-2.726 85.715,-10.086 127.118,-21.891 13.166,-3.746 26.21,-7.925 39.138,-12.588 19.367,-6.998 38.396,-14.932 57.065,-23.96 C -219.126,679.681 -136.35,610.406 -74.498,518.595 32.351,360.092 53.603,169.062 0,0"
             style="fill:#ffffff;fill-opacity:1;fill-rule:nonzero;stroke:none"
             id="path330" /></g><g
           id="g332"><g
             id="g334" /><g
             id="g346"><g
               clip-path="url(#clipPath338)"
               opacity="0.350006"
               id="g344"><g
                 transform="translate(1724.3708,2140.3303)"
                 id="g342"><path
                   d="m 0,0 c 126.029,-187.108 338.822,-280.719 548.716,-263.5 11.467,0.949 22.92,2.216 34.355,3.803 31.401,4.419 62.623,11.359 93.366,20.879 25.457,7.912 50.656,17.531 75.272,29.001 28.632,13.246 56.519,28.927 83.514,47.11 8.89,6.109 17.635,12.285 26.106,18.673 17.404,13.119 33.863,27.055 49.507,41.664 76.623,71.736 131.117,160.392 161.507,256.297 16.709,52.665 26.153,107.505 27.995,162.807 C 1069.244,225.898 1016.288,142.069 943.191,73.626 927.577,58.973 911.087,45.082 893.684,31.963 885.251,25.567 876.506,19.391 867.578,13.29 840.582,-4.893 812.696,-20.573 784.102,-33.829 c -24.654,-11.461 -49.816,-21.088 -75.273,-29 -30.742,-9.519 -62.003,-16.452 -93.365,-20.88 -11.474,-1.577 -22.926,-2.845 -34.394,-3.794 C 371.176,-104.722 158.421,-11.119 32.354,175.997 -41.217,285.131 -74.169,409.7 -70.076,531.864 -129.162,359.565 -109.64,162.634 0,0"
                   style="fill:#371a45;fill-opacity:1;fill-rule:nonzero;stroke:none"
                   id="path340" /></g></g></g></g><g
           id="g348"
           transform="translate(2780.417,2299.4028)"><path
             d="m 0,0 c 54.338,171.382 27.959,355.039 -72.38,503.884 -58.008,86.106 -137.854,155.232 -230.95,199.927 -17.603,8.513 -36.253,16.343 -55.425,23.269 -12.302,4.436 -25.093,8.55 -38.025,12.229 -40.234,11.472 -81.792,18.628 -123.532,21.272 -42.134,2.71 -84.529,0.859 -126.011,-5.52 -18.042,-2.776 -36.24,-6.482 -54.209,-11.04 -7.088,-1.746 -13.557,-3.503 -19.934,-5.415 -57.693,-16.724 -112.671,-42.52 -163.401,-76.665 -267.278,-180.178 -338.162,-544.207 -158.008,-811.48 118.022,-175.18 322.334,-273.32 533.101,-256.02 11.128,0.935 22.392,2.183 33.422,3.701 30.826,4.356 61.338,11.182 90.694,20.296 25.105,7.783 49.704,17.26 73.154,28.191 27.979,12.956 55.271,28.356 81.04,45.722 9.544,6.509 17.857,12.456 25.457,18.213 16.567,12.476 32.761,26.089 48.12,40.459 C -84.373,-181.089 -30.122,-94.993 0,0.003 Z m -1070.217,-168.638 c -190.684,282.898 -115.657,668.206 167.258,858.924 53.682,36.133 111.88,63.433 172.822,81.098 6.775,2.032 13.782,3.936 21.314,5.791 18.906,4.798 38.186,8.721 57.304,11.665 43.926,6.754 88.814,8.726 133.387,5.847 44.157,-2.797 88.139,-10.371 130.713,-22.509 13.674,-3.889 27.219,-8.247 40.268,-12.952 20.288,-7.331 40.037,-15.622 58.655,-24.626 98.528,-47.302 183.059,-120.479 244.458,-211.617 C 62.163,365.44 90.088,171.055 32.578,-10.327 v -0.003 c -31.887,-100.563 -89.326,-191.716 -166.113,-263.603 -16.25,-15.198 -33.382,-29.6 -50.874,-42.771 -8.015,-6.074 -16.782,-12.349 -26.88,-19.233 -27.349,-18.431 -56.233,-34.729 -85.815,-48.428 -24.808,-11.563 -50.86,-21.604 -77.43,-29.837 -31.091,-9.653 -63.403,-16.884 -96.096,-21.504 -11.684,-1.608 -23.555,-2.924 -35.317,-3.913 -16.914,-1.384 -33.765,-2.068 -50.562,-2.068 -204.8,0 -398.254,101.687 -513.708,273.049"
             style="fill:#371a45;fill-opacity:1;fill-rule:nonzero;stroke:none"
             id="path350" /></g><g
           id="g352"
           transform="translate(2780.417,2299.4028)"><path
             d="m 0,0 c 54.338,171.382 27.959,355.039 -72.38,503.884 -58.008,86.106 -137.854,155.232 -230.95,199.927 -17.603,8.513 -36.253,16.343 -55.425,23.269 -12.302,4.436 -25.093,8.55 -38.025,12.229 -40.234,11.472 -81.792,18.628 -123.532,21.272 -42.134,2.71 -84.529,0.859 -126.011,-5.52 -18.042,-2.776 -36.24,-6.482 -54.209,-11.04 -7.088,-1.746 -13.557,-3.503 -19.934,-5.415 -57.693,-16.724 -112.671,-42.52 -163.401,-76.665 -267.278,-180.178 -338.162,-544.207 -158.008,-811.48 118.022,-175.18 322.334,-273.32 533.101,-256.02 11.128,0.935 22.392,2.183 33.422,3.701 30.826,4.356 61.338,11.182 90.694,20.296 25.105,7.783 49.704,17.26 73.154,28.191 27.979,12.956 55.271,28.356 81.04,45.722 9.544,6.509 17.857,12.456 25.457,18.213 16.567,12.476 32.761,26.089 48.12,40.459 C -84.373,-181.089 -30.122,-94.993 0,0.003 Z m -1070.217,-168.638 c -190.684,282.898 -115.657,668.206 167.258,858.924 53.682,36.133 111.88,63.433 172.822,81.098 6.775,2.032 13.782,3.936 21.314,5.791 18.906,4.798 38.186,8.721 57.304,11.665 43.926,6.754 88.814,8.726 133.387,5.847 44.157,-2.797 88.139,-10.371 130.713,-22.509 13.674,-3.889 27.219,-8.247 40.268,-12.952 20.288,-7.331 40.037,-15.622 58.655,-24.626 98.528,-47.302 183.059,-120.479 244.458,-211.617 C 62.163,365.44 90.088,171.055 32.578,-10.327 v -0.003 c -31.887,-100.563 -89.326,-191.716 -166.113,-263.603 -16.25,-15.198 -33.382,-29.6 -50.874,-42.771 -8.015,-6.074 -16.782,-12.349 -26.88,-19.233 -27.349,-18.431 -56.233,-34.729 -85.815,-48.428 -24.808,-11.563 -50.86,-21.604 -77.43,-29.837 -31.091,-9.653 -63.403,-16.884 -96.096,-21.504 -11.684,-1.608 -23.555,-2.924 -35.317,-3.913 -16.914,-1.384 -33.765,-2.068 -50.562,-2.068 -204.8,0 -398.254,101.687 -513.708,273.049"
             style="fill:#371a45;fill-opacity:1;fill-rule:nonzero;stroke:none"
             id="path354" /></g><g
           id="g356"
           transform="translate(2731.6484,2154.458)"><path
             d="m 0,0 c -299.828,-308.255 -803.812,-226.035 -908.687,186.763 -71.351,280.843 148.537,567.533 422.659,618.789 199.51,37.305 410.608,-13.552 553.156,-307.369 0,0 43.017,-139.813 22.528,-242.312 C 69.168,153.372 31.943,57.143 31.943,57.143 Z"
             style="fill:#371a45;fill-opacity:1;fill-rule:nonzero;stroke:none"
             id="path358" /></g><g
           id="g360"><g
             id="g362" /><g
             id="g374"><g
               clip-path="url(#clipPath366)"
               opacity="0.350006"
               id="g372"><g
                 transform="translate(1822.9781,2341.2207)"
                 id="g370"><path
                   d="m 0,0 c 104.863,-412.789 608.857,-495.002 908.677,-186.778 l 6.464,11.591 C 547.251,-316.178 123.963,-160.858 10.164,254.536 -16.323,173.887 -22.005,86.671 0,0"
                   style="fill:#111a28;fill-opacity:1;fill-rule:nonzero;stroke:none"
                   id="path368" /></g></g></g></g><g
           id="g376"
           transform="translate(2549.9531,1991.754)"><path
             d="m 0,0 c 9.543,6.509 17.856,12.456 25.457,18.213 16.567,12.475 32.761,26.091 48.12,40.456 72.514,67.891 126.765,153.987 156.887,248.982 v -0.002 c 54.338,171.382 27.959,355.039 -72.381,503.884 -57.675,85.61 -136.936,154.436 -229.304,199.133 -72.221,17.42 -152.592,18.072 -238.928,1.929 C -464.641,983.709 -609.98,883.345 -698.933,744.121 -780.154,617.002 -806.028,472.793 -771.792,338.059 -734.353,190.766 -649.28,75.268 -525.764,4.053 -396.436,-70.515 -233.962,-88.428 -79.814,-45.154 -52.266,-32.317 -25.393,-17.112 0,0 m -542.837,-25.554 c -131.689,75.93 -222.314,198.755 -262.078,355.195 -36.586,143.987 -9.177,297.72 77.183,432.881 93.943,147.031 247.7,253.076 411.304,283.667 91.826,17.17 177.646,16.24 255.073,-2.749 l 1.724,-0.425 1.599,-0.767 C 40.496,994.946 125.027,921.77 186.426,830.632 292.627,673.089 320.552,478.703 263.042,297.322 v -0.003 C 231.155,196.755 173.716,105.606 96.929,33.716 80.679,18.518 63.55,4.116 46.055,-9.055 38.04,-15.129 29.272,-21.404 19.175,-28.289 -8.174,-46.719 -37.058,-63.018 -66.68,-76.733 l -2.527,-0.938 c -58.689,-16.611 -118.559,-24.802 -177.587,-24.802 -105.281,0 -207.852,26.069 -296.043,76.919"
             style="fill:#371a45;fill-opacity:1;fill-rule:nonzero;stroke:none"
             id="path378" /></g><g
           id="g380"
           transform="translate(2748.0684,2218.8535)"><path
             d="M 0,0 C 4.121,10.867 37.688,100.806 56.482,194.824 74.89,286.919 38.77,413.865 34.734,427.564 -82.751,668.794 -262.417,768.652 -499.309,724.36 -636.252,698.752 -765.095,609.778 -843.958,486.353 -915.933,373.708 -938.87,245.937 -908.545,126.575 c 44.031,-173.313 165.166,-298.362 332.344,-343.079 189.243,-50.617 398.242,11.619 545.969,162.424 z m -585.032,-249.521 c -179.48,48.01 -309.47,182.023 -356.638,367.683 -32.673,128.611 -8.201,265.906 68.914,386.591 83.852,131.236 221.11,225.892 367.168,253.201 254.294,47.542 446.64,-59.006 571.67,-316.709 l 0.959,-2.434 C 68.848,432.935 111.086,293.652 89.993,188.125 69.453,85.366 33,-9.434 31.46,-13.418 l -34.063,-61.279 -1.569,-1.612 c -120.457,-123.845 -280.13,-191.679 -439.361,-191.679 -47.558,0 -95.078,6.05 -141.499,18.467"
             style="fill:#371a45;fill-opacity:1;fill-rule:nonzero;stroke:none"
             id="path382" /></g><g
           id="g384"
           transform="translate(1555.9221,2317.0002)"><path
             d="m 0,0 c 15.171,-117.715 97.398,-207.426 183.658,-200.375 86.26,7.051 143.889,108.193 128.718,225.907 C 297.205,143.247 214.978,232.958 128.718,225.907 42.458,218.857 -15.171,117.715 0,0"
             style="fill:#ffffff;fill-opacity:1;fill-rule:nonzero;stroke:none"
             id="path386" /></g><g
           id="g388"
           transform="translate(1686.0322,2525.8752)"><path
             d="m 0,0 c -28.542,-2.332 -54.399,-16.87 -74.778,-42.041 -32.197,-39.771 -46.545,-101.321 -38.384,-164.649 13.997,-108.603 88.138,-191.806 165.318,-185.529 28.542,2.334 54.399,16.872 74.778,42.043 32.197,39.773 46.545,101.323 38.383,164.648 C 151.819,-80.791 82.378,0.337 8.245,0.337 5.505,0.337 2.751,0.224 0,0 m -147.058,-211.06 c -9.47,73.491 7.192,142.935 45.718,190.523 26.399,32.607 60.478,51.489 98.557,54.6 95.107,7.734 185.7,-88.778 201.997,-215.22 9.47,-73.492 -7.193,-142.933 -45.718,-190.52 -26.399,-32.61 -60.479,-51.492 -98.557,-54.605 -3.591,-0.293 -7.173,-0.437 -10.747,-0.437 -91.072,0 -175.569,93.992 -191.25,215.659"
             style="fill:#371a45;fill-opacity:1;fill-rule:nonzero;stroke:none"
             id="path390" /></g><g
           id="g392"
           transform="translate(1553.0242,2245.71)"><path
             d="M 0,0 C 38.292,-77.029 118.015,-107.215 178.065,-67.423 238.116,-27.631 255.754,67.071 217.462,144.1 179.169,221.128 99.447,251.315 39.396,211.523 -20.654,171.731 -38.292,77.029 0,0"
             style="fill:#ffffff;fill-opacity:1;fill-rule:nonzero;stroke:none"
             id="path394" /></g><g
           id="g396"><g
             id="g398" /><g
             id="g410"><g
               clip-path="url(#clipPath402)"
               opacity="0.350006"
               id="g408"><g
                 transform="translate(1793.0225,2249.1753)"
                 id="g406"><path
                   d="M 0,0 C 3.812,32.129 -1.174,65.418 -12.75,95.79 -27.611,23.262 -87.134,-13.217 -151.109,13.729 c -41.347,17.395 -75.026,57.313 -92.913,104.32 -0.967,-4.568 -1.705,-9.336 -2.293,-14.207 -9.668,-81.819 37.63,-171.396 105.658,-200.065 C -72.628,-124.892 -9.673,-81.774 0,0"
                   style="fill:#371a45;fill-opacity:1;fill-rule:nonzero;stroke:none"
                   id="path404" /></g></g></g></g><g
           id="g412"
           transform="translate(1641.3788,2466.5073)"><path
             d="m 0,0 c -18.84,-1.392 -36.145,-11.162 -50.042,-28.262 -25.375,-31.215 -36.303,-81.623 -29.233,-134.839 11.358,-85.49 67.744,-154.27 122.91,-150.19 18.841,1.389 36.145,11.162 50.042,28.26 25.376,31.213 36.303,81.623 29.236,134.841 C 111.875,-67.119 58.416,0.171 4.69,0.171 3.128,0.171 1.562,0.115 0,0 m -113.152,-167.602 c -8.286,62.368 5.391,122.517 36.589,160.898 19.984,24.582 45.589,38.686 74.048,40.786 75.123,5.533 145.174,-73.418 159.305,-179.77 8.286,-62.373 -5.396,-122.522 -36.595,-160.901 -19.983,-24.583 -45.586,-38.687 -74.045,-40.784 -2.498,-0.186 -4.988,-0.276 -7.471,-0.276 -72.312,0 -138.171,77.224 -151.831,180.047"
             style="fill:#371a45;fill-opacity:1;fill-rule:nonzero;stroke:none"
             id="path414" /></g><g
           id="g416"><g
             id="g418" /><g
             id="g430"><g
               clip-path="url(#clipPath422)"
               opacity="0.699997"
               id="g428"><g
                 transform="translate(2124.2578,2829.6284)"
                 id="g426"><path
                   d="m 0,0 c 0,0 271.337,33.031 447.688,-93.756 0.185,-0.133 0.37,-0.266 0.555,-0.4 37.093,-26.716 66.285,-62.998 84.785,-104.8 24.465,-55.282 33.227,-96.962 39.525,-133.952 19.102,-112.505 7.007,-168.797 7.007,-168.797 53.897,70.311 78.497,143.918 63.515,237.785 -1.501,9.249 -3.391,18.732 -5.638,28.403 -0.51,2.231 -1.065,4.43 -1.658,6.638 0.045,0.029 0.015,0.075 -0.054,0.128 -5.929,19.269 -14.675,44.297 -26.899,71.704 C 572.006,-74.365 503.783,30.052 386.477,63.965 167.135,127.377 -11.262,10.176 0,0"
                   style="fill:#ffffff;fill-opacity:1;fill-rule:nonzero;stroke:none"
                   id="path424" /></g></g></g></g><g
           id="g432"><g
             id="g434" /><g
             id="g446"><g
               clip-path="url(#clipPath438)"
               opacity="0.699997"
               id="g444"><g
                 transform="translate(2051.2417,2511.1558)"
                 id="g442"><path
                   d="m 0,0 c -4.818,-51.534 -44.574,-89.959 -88.798,-85.825 -44.225,4.134 -76.17,49.262 -71.353,100.796 4.818,51.535 44.574,89.96 88.799,85.826 C -27.128,96.662 4.818,51.534 0,0"
                   style="fill:#ffffff;fill-opacity:1;fill-rule:nonzero;stroke:none"
                   id="path440" /></g></g></g></g><g
           id="g448"><g
             id="g450" /><g
             id="g462"><g
               clip-path="url(#clipPath454)"
               opacity="0.699997"
               id="g460"><g
                 transform="translate(1988.0045,2343.2358)"
                 id="g458"><path
                   d="m 0,0 c -3.778,-21.036 -21.476,-35.461 -39.528,-32.218 -18.052,3.242 -29.624,22.924 -25.845,43.96 3.778,21.036 21.475,35.461 39.528,32.219 C -7.793,40.718 3.778,21.036 0,0"
                   style="fill:#ffffff;fill-opacity:1;fill-rule:nonzero;stroke:none"
                   id="path456" /></g></g></g></g><g
           id="g464"
           transform="translate(2124.8665,1542.0541)"><path
             d="m 0,0 c -1.535,-6.877 -23.593,-60.23 -23.593,-60.23 0,0 -17.585,3.925 -39.178,8.745 -26.977,6.021 -42.612,38.834 -34.922,73.29 7.691,34.456 35.795,57.507 62.772,51.485 C -16.715,69.227 4.257,64.546 4.257,64.546 4.257,64.546 2.5,11.203 0,0"
             style="fill:#b9189b;fill-opacity:1;fill-rule:nonzero;stroke:none"
             id="path466" /></g><g
           id="g468"><g
             id="g470" /><g
             id="g482"><g
               clip-path="url(#clipPath474)"
               opacity="0.350006"
               id="g480"><g
                 transform="translate(2124.8665,1542.0541)"
                 id="g478"><path
                   d="m 0,0 c -1.535,-6.877 -23.593,-60.23 -23.593,-60.23 0,0 -17.585,3.925 -39.178,8.745 -26.977,6.021 -42.612,38.834 -34.922,73.29 7.691,34.456 35.795,57.507 62.772,51.485 C -16.715,69.227 4.257,64.546 4.257,64.546 4.257,64.546 2.5,11.203 0,0"
                   style="fill:#371a45;fill-opacity:1;fill-rule:nonzero;stroke:none"
                   id="path476" /></g></g></g></g><g
           id="g484"
           transform="translate(2118.8301,1598.651)"><path
             d="m 0,0 -31.062,6.933 c -21.55,4.822 -44.356,-14.882 -50.833,-43.903 -3.235,-14.495 -1.911,-28.994 3.728,-40.828 5.245,-11.008 13.628,-18.296 23.611,-20.522 l 30.96,-6.912 c 9.553,23.294 18.957,47.036 19.878,50.828 C -2.258,-47.827 -0.791,-20.342 0,0 m -19.734,-126.587 -39.18,8.745 c -16.113,3.596 -29.362,14.763 -37.309,31.441 -7.552,15.849 -9.397,34.953 -5.193,53.786 8.882,39.783 42.388,66.275 74.712,59.07 L 12.471,17.71 c 4.692,-1.047 7.976,-5.286 7.817,-10.09 -0.183,-5.555 -1.863,-54.617 -4.49,-66.394 v -0.003 c -1.601,-7.163 -18.862,-49.167 -24.113,-61.87 -1.573,-3.801 -5.264,-6.179 -9.236,-6.179 -0.723,0 -1.453,0.078 -2.183,0.239"
             style="fill:#371a45;fill-opacity:1;fill-rule:nonzero;stroke:none"
             id="path486" /></g><g
           id="g488"
           transform="translate(2164.0447,1533.3093)"><path
             d="m 0,0 c -7.691,-34.456 -35.794,-57.507 -62.771,-51.485 -26.978,6.021 -42.612,38.834 -34.922,73.29 7.691,34.456 35.795,57.507 62.772,51.485 C -7.944,67.269 7.691,34.456 0,0"
             style="fill:#b9189b;fill-opacity:1;fill-rule:nonzero;stroke:none"
             id="path490" /></g><g
           id="g492"><g
             id="g494" /><g
             id="g506"><g
               clip-path="url(#clipPath498)"
               opacity="0.350006"
               id="g504"><g
                 transform="translate(2066.3518,1555.1022)"
                 id="g502"><path
                   d="m 0,0 c -7.699,-34.432 7.935,-67.265 34.905,-73.288 27.008,-6.034 55.112,17.031 62.783,51.513 1.054,4.647 1.651,9.298 1.848,13.853 C 87.315,-30.039 65.68,-42.914 44.738,-38.207 21.441,-33.007 6.571,-7.823 7.975,21.19 4.447,14.827 1.742,7.694 0,0"
                   style="fill:#371a45;fill-opacity:1;fill-rule:nonzero;stroke:none"
                   id="path500" /></g></g></g></g><g
           id="g508"
           transform="translate(2066.3518,1555.1022)"><path
             d="m 0,0 c -0.532,-2.342 -0.937,-4.679 -1.217,-7.01 11.384,25.799 35.01,41.48 57.795,36.382 25.127,-5.632 40.456,-34.516 36.11,-66.317 2.125,4.763 3.791,9.819 5,15.17 7.7,34.433 -7.934,67.265 -34.904,73.289 C 35.804,57.497 7.71,34.471 0,0"
             style="fill:#ffffff;fill-opacity:1;fill-rule:nonzero;stroke:none"
             id="path510" /></g><g
           id="g512"
           transform="translate(2076.1128,1552.9357)"><path
             d="m 0,0 c -3.235,-14.495 -1.912,-28.994 3.728,-40.828 5.244,-11.008 13.63,-18.296 23.611,-20.522 9.983,-2.236 20.671,0.803 30.098,8.533 10.136,8.315 17.5,20.876 20.734,35.368 6.477,29.019 -5.788,56.541 -27.338,61.353 -2.186,0.488 -4.38,0.725 -6.573,0.725 C 24.827,44.629 5.82,26.079 0,0 m 22.983,-80.872 c -16.113,3.597 -29.365,14.764 -37.312,31.441 -7.551,15.849 -9.397,34.951 -5.192,53.786 8.879,39.786 42.414,66.246 74.709,59.07 C 87.505,56.208 106.57,17.976 97.693,-21.804 93.489,-40.64 83.696,-57.146 70.122,-68.279 59.058,-77.356 46.521,-82.083 33.943,-82.083 c -3.66,0 -7.327,0.401 -10.96,1.211"
             style="fill:#371a45;fill-opacity:1;fill-rule:nonzero;stroke:none"
             id="path514" /></g><g
           id="g516"
           transform="translate(2180.0532,1338.3873)"><path
             d="m 0,0 c 5.554,0 10.657,3.667 12.231,9.277 l 33.138,118.081 c 1.816,6.473 6.684,11.704 12.702,13.653 l 46.316,14.997 c 10.642,3.445 18.711,12.117 21.585,23.194 l 43.115,166.413 c 1.76,6.797 -2.322,13.733 -9.116,15.493 -6.775,1.758 -13.728,-2.319 -15.493,-9.116 L 101.362,185.581 C 100.693,183 98.853,180.935 96.558,180.193 L 50.239,165.195 C 36.013,160.586 25.044,149.011 20.894,134.229 L -12.246,16.147 C -14.141,9.387 -10.2,2.371 -3.442,0.474 -2.292,0.154 -1.138,0 0,0"
             style="fill:#371a45;fill-opacity:1;fill-rule:nonzero;stroke:none"
             id="path518" /></g></g></g></g></svg>
