<?xml version="1.0" encoding="UTF-8" standalone="no"?>
<svg
   xmlns:dc="http://purl.org/dc/elements/1.1/"
   xmlns:cc="http://creativecommons.org/ns#"
   xmlns:rdf="http://www.w3.org/1999/02/22-rdf-syntax-ns#"
   xmlns:svg="http://www.w3.org/2000/svg"
   xmlns="http://www.w3.org/2000/svg"
   xmlns:sodipodi="http://sodipodi.sourceforge.net/DTD/sodipodi-0.dtd"
   xmlns:inkscape="http://www.inkscape.org/namespaces/inkscape"
   version="1.1"
   id="svg2"
   xml:space="preserve"
   width="181.79201"
   height="30.106934"
   viewBox="0 0 181.79201 30.106934"
   sodipodi:docname="Nodecandy.ai"><metadata
     id="metadata8"><rdf:RDF><cc:Work
         rdf:about=""><dc:format>image/svg+xml</dc:format><dc:type
           rdf:resource="http://purl.org/dc/dcmitype/StillImage" /></cc:Work></rdf:RDF></metadata><defs
     id="defs6"><clipPath
       clipPathUnits="userSpaceOnUse"
       id="clipPath62"><path
         d="M 0,22.58 H 136.344 V 0 H 0 Z"
         id="path60" /></clipPath></defs><sodipodi:namedview
     pagecolor="#ffffff"
     bordercolor="#666666"
     borderopacity="1"
     objecttolerance="10"
     gridtolerance="10"
     guidetolerance="10"
     inkscape:pageopacity="0"
     inkscape:pageshadow="2"
     inkscape:window-width="640"
     inkscape:window-height="480"
     id="namedview4" /><g
     id="g10"
     inkscape:groupmode="layer"
     inkscape:label="Nodecandy"
     transform="matrix(1.3333333,0,0,-1.3333333,0,30.106933)"><g
       id="g12"
       transform="translate(3.8346,9.2349)"><path
         d="M 0,0 8.778,5.101 8.765,0.437 -0.013,-4.665 Z"
         style="fill:#8f1378;fill-opacity:1;fill-rule:nonzero;stroke:none"
         id="path14" /></g><g
       id="g16"
       transform="translate(0.9144,16.5348)"><path
         d="m 0,0 2.477,-1.43 8.778,5.101 -2.477,1.43 z"
         style="fill:#9f1586;fill-opacity:1;fill-rule:nonzero;stroke:none"
         id="path18" /></g><g
       id="g20"
       transform="translate(3.3912,15.1048)"><path
         d="M 0,0 8.778,5.101 12.162,-1.524 3.383,-6.626 Z"
         style="fill:#630d53;fill-opacity:1;fill-rule:nonzero;stroke:none"
         id="path22" /></g><g
       id="g24"
       transform="translate(9.7241,11.4485)"><path
         d="M 0,0 8.778,5.101 8.749,-5.168 -0.029,-10.27 Z"
         style="fill:#630d53;fill-opacity:1;fill-rule:nonzero;stroke:none"
         id="path26" /></g><g
       id="g28"
       transform="translate(6.7878,13.1438)"><path
         d="M 0,0 8.778,5.101 11.715,3.406 2.936,-1.695 Z"
         style="fill:#9f1586;fill-opacity:1;fill-rule:nonzero;stroke:none"
         id="path30" /></g><g
       id="g32"
       transform="translate(0.8847,6.2658)"><path
         d="M 0,0 2.937,-1.696 2.95,2.969 6.333,-3.657 8.81,-5.087 8.84,5.183 5.903,6.878 5.89,2.213 2.507,8.839 0.03,10.269 Z"
         style="fill:#b9189b;fill-opacity:1;fill-rule:nonzero;stroke:none"
         id="path34" /></g><g
       id="g36"
       transform="translate(12.5225,5.6624)"><path
         d="M 0,0 -2.469,1.435 3.49,4.759 5.958,3.325 Z"
         style="fill:#9f1585;fill-opacity:1;fill-rule:nonzero;stroke:none"
         id="path38" /></g><g
       id="g40"
       transform="translate(9.5861,11.5047)"><path
         d="m 0,0 -2.469,1.435 8.91,5 L 8.91,5 Z"
         style="fill:#9f1585;fill-opacity:1;fill-rule:nonzero;stroke:none"
         id="path42" /></g><g
       id="g44"
       transform="translate(9.7231,1.1144)"><path
         d="M 0,0 -2.463,1.471 -2.606,11.825 -0.137,10.39 Z"
         style="fill:#b9189b;fill-opacity:1;fill-rule:nonzero;stroke:none"
         id="path46" /></g><g
       id="g48"
       transform="translate(9.5861,11.5047)"><path
         d="M 0,0 8.916,5.045 8.909,2.402 2.896,-0.956 2.91,-5.857 8.895,-2.518 8.887,-5.224 0.137,-10.39 Z"
         style="fill:#8f1378;fill-opacity:1;fill-rule:nonzero;stroke:none"
         id="path50" /></g><g
       id="g52"
       transform="translate(34.6162,16.4519)"><path
         d="m 0,0 v -10.504 h -2.911 l -3.992,4.772 v -4.772 h -3.451 V 0 h 2.911 l 3.992,-4.772 V 0 Z"
         style="fill:#ffffff;fill-opacity:1;fill-rule:nonzero;stroke:none"
         id="path54" /></g><g
       id="g56"><g
         id="g58"
         clip-path="url(#clipPath62)"><g
           id="g64"
           transform="translate(43.0269,8.8963)"><path
             d="M 0,0 C 0.355,0.215 0.638,0.52 0.848,0.915 1.058,1.31 1.163,1.773 1.163,2.303 1.163,2.834 1.058,3.296 0.848,3.692 0.638,4.087 0.355,4.392 0,4.607 -0.355,4.822 -0.753,4.93 -1.193,4.93 -1.633,4.93 -2.031,4.822 -2.386,4.607 -2.741,4.392 -3.024,4.087 -3.234,3.692 -3.444,3.296 -3.549,2.834 -3.549,2.303 c 0,-0.53 0.105,-0.993 0.315,-1.388 0.21,-0.395 0.493,-0.7 0.848,-0.915 0.355,-0.215 0.753,-0.323 1.193,-0.323 0.44,0 0.838,0.108 1.193,0.323 m -4.239,-2.483 c -0.901,0.47 -1.606,1.122 -2.116,1.958 -0.51,0.835 -0.765,1.778 -0.765,2.828 0,1.051 0.255,1.994 0.765,2.829 0.51,0.835 1.215,1.488 2.116,1.958 0.9,0.47 1.915,0.706 3.046,0.706 1.13,0 2.146,-0.236 3.046,-0.706 C 2.754,6.62 3.459,5.967 3.969,5.132 4.479,4.297 4.734,3.354 4.734,2.303 4.734,1.253 4.479,0.31 3.969,-0.525 3.459,-1.361 2.754,-2.013 1.853,-2.483 c -0.9,-0.471 -1.916,-0.706 -3.046,-0.706 -1.131,0 -2.146,0.235 -3.046,0.706"
             style="fill:#ffffff;fill-opacity:1;fill-rule:nonzero;stroke:none"
             id="path66" /></g><g
           id="g68"
           transform="translate(54.0785,8.7088)"><path
             d="m 0,0 c 0.76,0 1.368,0.218 1.823,0.653 0.455,0.435 0.683,1.048 0.683,1.838 0,0.79 -0.228,1.403 -0.683,1.838 C 1.368,4.764 0.76,4.982 0,4.982 H -1.486 V 0 Z M -5.027,7.743 H 0.15 C 1.321,7.743 2.353,7.53 3.249,7.105 4.144,6.68 4.839,6.072 5.335,5.282 5.83,4.492 6.078,3.561 6.078,2.491 6.078,1.42 5.83,0.49 5.335,-0.3 4.839,-1.09 4.144,-1.698 3.249,-2.123 2.353,-2.549 1.321,-2.761 0.15,-2.761 h -5.177 z"
             style="fill:#ffffff;fill-opacity:1;fill-rule:nonzero;stroke:none"
             id="path70" /></g><g
           id="g72"
           transform="translate(66.6985,8.6187)"><path
             d="M 0,0 V 1.381 H -4.442 V 3.932 H 0 v 1.23 H -5.057 V 7.833 H 3.481 V -2.671 H -5.252 V 0 Z"
             style="fill:#ffffff;fill-opacity:1;fill-rule:nonzero;stroke:none"
             id="path74" /></g><g
           id="g76"
           transform="translate(73.976,6.4054)"><path
             d="m 0,0 c -0.89,0.465 -1.588,1.115 -2.093,1.951 -0.506,0.835 -0.758,1.783 -0.758,2.843 0,1.061 0.252,2.009 0.758,2.844 0.505,0.835 1.203,1.486 2.093,1.951 0.89,0.465 1.891,0.698 3.001,0.698 1.021,0 1.931,-0.181 2.731,-0.541 0.8,-0.36 1.461,-0.88 1.981,-1.56 L 5.477,6.19 C 4.827,7.01 4.061,7.42 3.181,7.42 2.441,7.42 1.846,7.183 1.396,6.708 0.945,6.232 0.72,5.595 0.72,4.794 c 0,-0.8 0.225,-1.438 0.676,-1.913 0.45,-0.475 1.045,-0.713 1.785,-0.713 0.88,0 1.646,0.41 2.296,1.231 L 7.713,1.403 C 7.193,0.723 6.532,0.203 5.732,-0.158 4.932,-0.518 4.022,-0.698 3.001,-0.698 1.891,-0.698 0.89,-0.465 0,0"
             style="fill:#ffffff;fill-opacity:1;fill-rule:nonzero;stroke:none"
             id="path78" /></g><g
           id="g80"
           transform="translate(88.7419,10.3295)"><path
             d="M 0,0 -1.02,2.641 -2.041,0 Z M 0.975,-2.551 H -3.016 L -3.721,-4.382 H -7.323 L -2.731,6.122 H 0.75 L 5.342,-4.382 H 1.681 Z"
             style="fill:#ffffff;fill-opacity:1;fill-rule:nonzero;stroke:none"
             id="path82" /></g><g
           id="g84"
           transform="translate(105.0083,16.4519)"><path
             d="m 0,0 v -10.504 h -2.911 l -3.992,4.772 v -4.772 h -3.451 V 0 h 2.911 l 3.992,-4.772 V 0 Z"
             style="fill:#ffffff;fill-opacity:1;fill-rule:nonzero;stroke:none"
             id="path86" /></g><g
           id="g88"
           transform="translate(111.7457,8.7088)"><path
             d="m 0,0 c 0.76,0 1.368,0.218 1.823,0.653 0.455,0.435 0.683,1.048 0.683,1.838 0,0.79 -0.228,1.403 -0.683,1.838 C 1.368,4.764 0.76,4.982 0,4.982 H -1.486 V 0 Z M -5.027,7.743 H 0.15 C 1.321,7.743 2.353,7.53 3.249,7.105 4.144,6.68 4.839,6.072 5.335,5.282 5.83,4.492 6.078,3.561 6.078,2.491 6.078,1.42 5.83,0.49 5.335,-0.3 4.839,-1.09 4.144,-1.698 3.249,-2.123 2.353,-2.549 1.321,-2.761 0.15,-2.761 h -5.177 z"
             style="fill:#ffffff;fill-opacity:1;fill-rule:nonzero;stroke:none"
             id="path90" /></g><g
           id="g92"
           transform="translate(124.9058,9.7593)"><path
             d="m 0,0 v -3.812 h -3.541 v 3.857 l -3.962,6.648 h 3.737 L -1.621,3.061 0.54,6.693 h 3.422 z"
             style="fill:#ffffff;fill-opacity:1;fill-rule:nonzero;stroke:none"
             id="path94" /></g><g
           id="g96"
           transform="translate(128.7247,6.3454)"><path
             d="m 0,0 c -0.375,0.365 -0.563,0.833 -0.563,1.403 0,0.57 0.188,1.033 0.563,1.388 0.375,0.355 0.848,0.533 1.418,0.533 0.57,0 1.043,-0.178 1.418,-0.533 C 3.211,2.436 3.399,1.973 3.399,1.403 3.399,0.833 3.211,0.365 2.836,0 2.461,-0.365 1.988,-0.548 1.418,-0.548 0.848,-0.548 0.375,-0.365 0,0"
             style="fill:#ffffff;fill-opacity:1;fill-rule:nonzero;stroke:none"
             id="path98" /></g></g></g></g></svg>
