<?xml version="1.0" encoding="UTF-8" standalone="no"?>
<svg
   xmlns:dc="http://purl.org/dc/elements/1.1/"
   xmlns:cc="http://creativecommons.org/ns#"
   xmlns:rdf="http://www.w3.org/1999/02/22-rdf-syntax-ns#"
   xmlns:svg="http://www.w3.org/2000/svg"
   xmlns="http://www.w3.org/2000/svg"
   xmlns:sodipodi="http://sodipodi.sourceforge.net/DTD/sodipodi-0.dtd"
   xmlns:inkscape="http://www.inkscape.org/namespaces/inkscape"
   version="1.1"
   id="svg2"
   xml:space="preserve"
   width="5333.3335"
   height="5333.3335"
   viewBox="0 0 5333.3335 5333.3335"
   sodipodi:docname="Victory.ai"><metadata
     id="metadata8"><rdf:RDF><cc:Work
         rdf:about=""><dc:format>image/svg+xml</dc:format><dc:type
           rdf:resource="http://purl.org/dc/dcmitype/StillImage" /></cc:Work></rdf:RDF></metadata><defs
     id="defs6"><clipPath
       clipPathUnits="userSpaceOnUse"
       id="clipPath18"><path
         d="M 0,4000 H 4000 V 0 H 0 Z"
         id="path16" /></clipPath><clipPath
       clipPathUnits="userSpaceOnUse"
       id="clipPath42"><path
         d="m 1717.61,2230.36 h 500.33 v -741.98 h -500.33 z"
         id="path40" /></clipPath><clipPath
       clipPathUnits="userSpaceOnUse"
       id="clipPath66"><path
         d="m 2583.16,2186.34 h 470.09 v -364 h -470.09 z"
         id="path64" /></clipPath><clipPath
       clipPathUnits="userSpaceOnUse"
       id="clipPath86"><path
         d="m 2424.54,1151.21 h 5.03 v -2.22 h -5.03 z"
         id="path84" /></clipPath><clipPath
       clipPathUnits="userSpaceOnUse"
       id="clipPath102"><path
         d="m 2205.52,1618.5 h 12.42 v -19.28 h -12.42 z"
         id="path100" /></clipPath><clipPath
       clipPathUnits="userSpaceOnUse"
       id="clipPath122"><path
         d="M 2277.88,1361.59 H 2766.6 V 698.787 h -488.72 z"
         id="path120" /></clipPath><clipPath
       clipPathUnits="userSpaceOnUse"
       id="clipPath138"><path
         d="m 1694.29,1361.59 h 488.66 V 698.779 h -488.66 z"
         id="path136" /></clipPath><clipPath
       clipPathUnits="userSpaceOnUse"
       id="clipPath174"><path
         d="m 1508.86,2626.36 h 156.82 v -160.55 h -156.82 z"
         id="path172" /></clipPath><clipPath
       clipPathUnits="userSpaceOnUse"
       id="clipPath202"><path
         d="m 2738.94,2806.88 h 132.88 v -187.63 h -132.88 z"
         id="path200" /></clipPath><clipPath
       clipPathUnits="userSpaceOnUse"
       id="clipPath222"><path
         d="m 1746.79,2342.13 h 931.45 v -321.84 h -931.45 z"
         id="path220" /></clipPath><clipPath
       clipPathUnits="userSpaceOnUse"
       id="clipPath246"><path
         d="m 1608.65,2868.71 h 1155.2 v -724.13 h -1155.2 z"
         id="path244" /></clipPath><clipPath
       clipPathUnits="userSpaceOnUse"
       id="clipPath274"><path
         d="m 1721.65,2764.38 h 156.92 V 2566.2 h -156.92 z"
         id="path272" /></clipPath><clipPath
       clipPathUnits="userSpaceOnUse"
       id="clipPath290"><path
         d="m 1886.02,2529.17 h 83.99 v -90.95 h -83.99 z"
         id="path288" /></clipPath><clipPath
       clipPathUnits="userSpaceOnUse"
       id="clipPath306"><path
         d="m 1615.78,2885.21 h 895.36 v -675.35 h -895.36 z"
         id="path304" /></clipPath><clipPath
       clipPathUnits="userSpaceOnUse"
       id="clipPath326"><path
         d="m 2120.18,3053.54 h 542.5 v -443.69 h -542.5 z"
         id="path324" /></clipPath><clipPath
       clipPathUnits="userSpaceOnUse"
       id="clipPath358"><path
         d="m 2000.52,1356.45 h 459.61 v -69.46 h -459.61 z"
         id="path356" /></clipPath><clipPath
       clipPathUnits="userSpaceOnUse"
       id="clipPath374"><path
         d="m 1762.6,1901.11 h 935.6 v -405.66 h -935.6 z"
         id="path372" /></clipPath><clipPath
       clipPathUnits="userSpaceOnUse"
       id="clipPath394"><path
         d="m 2458.75,1757.14 h 290.76 v -113.76 h -290.76 z"
         id="path392" /></clipPath><clipPath
       clipPathUnits="userSpaceOnUse"
       id="clipPath418"><path
         d="m 1684.46,1753.18 h 290.72 v -109.79 h -290.72 z"
         id="path416" /></clipPath><clipPath
       clipPathUnits="userSpaceOnUse"
       id="clipPath442"><path
         d="m 1950.75,1923.02 h 562.2 V 1548.9 h -562.2 z"
         id="path440" /></clipPath><clipPath
       clipPathUnits="userSpaceOnUse"
       id="clipPath458"><path
         d="m 1950.75,1795.33 h 562.2 V 1548.9 h -562.2 z"
         id="path456" /></clipPath><clipPath
       clipPathUnits="userSpaceOnUse"
       id="clipPath486"><path
         d="m 2021.12,1759.5 h 129.94 v -88.48 h -129.94 z"
         id="path484" /></clipPath><clipPath
       clipPathUnits="userSpaceOnUse"
       id="clipPath514"><path
         d="M 2851.77,2339.29 H 3128.4 V 2167.46 H 2851.77 Z"
         id="path512" /></clipPath><clipPath
       clipPathUnits="userSpaceOnUse"
       id="clipPath534"><path
         d="m 2897.04,2469.98 h 226.73 v -234.23 h -226.73 z"
         id="path532" /></clipPath><clipPath
       clipPathUnits="userSpaceOnUse"
       id="clipPath558"><path
         d="m 2943.56,2327.44 h 187.66 v -78.9 h -187.66 z"
         id="path556" /></clipPath><clipPath
       clipPathUnits="userSpaceOnUse"
       id="clipPath574"><path
         d="m 2963.25,2256.07 h 175.4 v -83.44 h -175.4 z"
         id="path572" /></clipPath><clipPath
       clipPathUnits="userSpaceOnUse"
       id="clipPath610"><path
         d="m 2888.65,2327.93 h 104.91 v -62.53 h -104.91 z"
         id="path608" /></clipPath><clipPath
       clipPathUnits="userSpaceOnUse"
       id="clipPath626"><path
         d="m 2765.49,2414.55 h 320.95 v -327.03 h -320.95 z"
         id="path624" /></clipPath><clipPath
       clipPathUnits="userSpaceOnUse"
       id="clipPath674"><path
         d="M 797.579,3185.12 H 1264.26 V 2785.63 H 797.579 Z"
         id="path672" /></clipPath></defs><sodipodi:namedview
     pagecolor="#ffffff"
     bordercolor="#666666"
     borderopacity="1"
     objecttolerance="10"
     gridtolerance="10"
     guidetolerance="10"
     inkscape:pageopacity="0"
     inkscape:pageshadow="2"
     inkscape:window-width="640"
     inkscape:window-height="480"
     id="namedview4" /><g
     id="g10"
     inkscape:groupmode="layer"
     inkscape:label="Victory"
     transform="matrix(1.3333333,0,0,-1.3333333,0,5333.3333)"><g
       id="g12"><g
         id="g14"
         clip-path="url(#clipPath18)"><g
           id="g20"
           transform="translate(1734.1764,2137.7231)"><path
             d="m 0,0 v -630.774 c 0,-36.163 9.539,-70.25 26.224,-99.827 35.125,-62.307 101.982,-104.577 178.219,-104.577 H 791.79 c 73.443,0 138.185,39.237 174.228,97.792 19.159,31.093 30.215,67.615 30.215,106.612 V 0 c 0,13.85 -1.397,27.341 -4.071,40.433 -7.304,36.203 -24.268,68.973 -48.097,95.556 -37.48,41.911 -91.924,68.415 -152.275,68.415 H 204.443 C 116.751,204.404 41.471,148.483 12.613,70.529 4.47,48.496 0,24.747 0,0"
             style="fill:#ffffff;fill-opacity:1;fill-rule:nonzero;stroke:none"
             id="path22" /></g><g
           id="g24"
           transform="translate(1938.6057,2326.8777)"><path
             d="m 0,0 c -104.302,0 -189.155,-84.854 -189.155,-189.153 v -630.774 c 0,-104.299 84.853,-189.153 189.155,-189.153 h 587.373 c 104.302,0 189.155,84.854 189.155,189.153 v 630.774 C 776.528,-84.854 691.675,0 587.373,0 Z M 587.373,-1039.597 H 0 c -121.128,0 -219.673,98.545 -219.673,219.67 v 630.774 c 0,121.128 98.545,219.671 219.673,219.671 h 587.373 c 121.128,0 219.673,-98.543 219.673,-219.671 v -630.774 c 0,-121.125 -98.545,-219.67 -219.673,-219.67"
             style="fill:#371a45;fill-opacity:1;fill-rule:nonzero;stroke:none"
             id="path26" /></g><g
           id="g28"
           transform="translate(1865.374,2282.4333)"><path
             d="M 0,0 C 0,0 -254.378,-289.265 -254.378,-530.861 -254.378,-737.63 0,-808.759 0,-808.759 l 352.564,597.1 z"
             style="fill:#ffffff;fill-opacity:1;fill-rule:nonzero;stroke:none"
             id="path30" /></g><g
           id="g32"
           transform="translate(1610.9991,1751.5913)"><path
             d="m 0,0 c 0,-206.808 254.377,-277.915 254.377,-277.915 l 8.701,14.705 343.866,582.392 -265.792,159.59 -86.775,52.09 C 254.377,530.862 0,241.564 0,0"
             style="fill:#ffffff;fill-opacity:1;fill-rule:nonzero;stroke:none"
             id="path34" /></g><g
           id="g36"><g
             id="g38" /><g
             id="g50"><g
               clip-path="url(#clipPath42)"
               opacity="0.350006"
               id="g48"><g
                 transform="translate(1717.6117,1723.304)"
                 id="g46"><path
                   d="M 0,0 C 0,-119.402 84.819,-193.57 156.466,-234.923 L 500.332,347.469 234.539,507.06 C 174.667,433.107 0,200.211 0,0"
                   style="fill:#371a45;fill-opacity:1;fill-rule:nonzero;stroke:none"
                   id="path44" /></g></g></g></g><g
           id="g52"
           transform="translate(1868.6301,2262.6809)"><path
             d="m 0,0 c -43.247,-51.917 -242.378,-302.371 -242.378,-511.108 0,-168.958 184.614,-243.309 232.178,-259.646 l 338.667,573.562 z m 3.921,-806.858 -11.289,3.157 c -2.695,0.754 -66.778,18.974 -131.709,63.523 -87.544,60.056 -133.819,139.267 -133.819,229.07 0,244.541 247.637,528.95 258.179,540.937 l 8.404,9.556 376.459,-226.006 z"
             style="fill:#371a45;fill-opacity:1;fill-rule:nonzero;stroke:none"
             id="path54" /></g><g
           id="g56"
           transform="translate(2623.3171,1931.8164)"><path
             d="M 0,0 C 0,0 107.78,-134.976 280.424,-105.184 459.45,-74.291 427.756,223.662 427.756,223.662 L 155.742,328.396 c 0,0 16.902,-93.072 -22.496,-93.053 -44.114,0.021 -122.863,103.828 -191.649,134.976 z"
             style="fill:#ffffff;fill-opacity:1;fill-rule:nonzero;stroke:none"
             id="path58" /></g><g
           id="g60"><g
             id="g62" /><g
             id="g74"><g
               clip-path="url(#clipPath66)"
               opacity="0.350006"
               id="g72"><g
                 transform="translate(2583.1638,2186.3391)"
                 id="g70"><path
                   d="m 0,0 40.154,-254.537 c 0,0 107.77,-134.952 280.442,-105.175 179.018,30.894 147.325,328.858 147.325,328.858 l -125.12,-67.131 c 84.438,-15.074 73.83,-168.646 -54.257,-190.759 C 115.913,-318.56 12.493,-46.342 12.493,-46.342 Z"
                   style="fill:#371a45;fill-opacity:1;fill-rule:nonzero;stroke:none"
                   id="path68" /></g></g></g></g><g
           id="g76"
           transform="translate(2853.5618,1807.0095)"><path
             d="m 0,0 c -148.228,0 -238.008,110.078 -242.168,115.286 -5.259,6.584 -4.185,16.186 2.402,21.445 6.582,5.254 16.172,4.187 21.431,-2.385 1.03,-1.28 104.541,-127.517 265.923,-99.688 146.03,25.2 138.75,254.033 135.478,303.023 l -239.267,92.126 c 1.743,-23.205 0.937,-54.99 -13.36,-72.107 -6.997,-8.381 -16.484,-12.81 -27.426,-12.81 h -0.015 c -29.336,0.015 -63.75,30.486 -103.603,65.769 -31.646,28.023 -64.375,57 -94.336,70.569 -7.676,3.477 -11.084,12.517 -7.608,20.193 3.482,7.678 12.529,11.081 20.195,7.605 34.161,-15.466 68.638,-45.996 101.983,-75.518 30.752,-27.229 65.605,-58.091 83.384,-58.1 h 0.005 c 1.855,0 2.827,0.449 3.999,1.85 9.355,11.194 7.597,50.313 3.466,73.228 l -4.814,26.694 306.025,-117.822 0.987,-9.275 C 214.038,337.336 243.696,37.532 52.773,4.585 34.458,1.426 16.846,0 0,0"
             style="fill:#371a45;fill-opacity:1;fill-rule:nonzero;stroke:none"
             id="path78" /></g><g
           id="g80"><g
             id="g82" /><g
             id="g94"><g
               clip-path="url(#clipPath86)"
               opacity="0.350006"
               id="g92"><g
                 transform="translate(2429.5662,1151.2073)"
                 id="g90"><path
                   d="M 0,0 C -1.677,-0.753 -3.353,-1.465 -5.029,-2.176 V -2.218 C -3.353,-1.506 -1.677,-0.753 0,0"
                   style="fill:#371a45;fill-opacity:1;fill-rule:nonzero;stroke:none"
                   id="path88" /></g></g></g></g><g
           id="g96"><g
             id="g98" /><g
             id="g110"><g
               clip-path="url(#clipPath102)"
               opacity="0.350006"
               id="g108"><g
                 transform="translate(2217.938,1618.5022)"
                 id="g106"><path
                   d="M 0,0 C -4.271,-6.546 -8.422,-12.972 -12.413,-19.279 -8.382,-12.972 -4.231,-6.506 0,0"
                   style="fill:#371a45;fill-opacity:1;fill-rule:nonzero;stroke:none"
                   id="path104" /></g></g></g></g><g
           id="g112"
           transform="translate(1693.2238,796.1865)"><path
             d="m 0,0 c 0.24,-2.594 0.599,-5.189 1.078,-7.664 12.932,-76.596 102.661,-103.978 264.156,-82.823 73.124,9.5 174.228,20.796 200.891,79.031 53.246,116.232 -1.078,351.41 5.229,502.128 v 0.24 c 0,0 29.377,-3.592 65.819,-3.592 36.482,0 65.86,3.592 65.86,3.592 0.039,-1.237 0.079,-2.435 0.119,-3.672 5.389,-150.798 -47.698,-383.342 5.11,-498.696 26.663,-58.235 127.727,-69.531 200.891,-79.031 161.695,-21.155 251.423,6.267 264.236,83.063 0.399,2.475 0.758,4.909 1.037,7.424 9.301,93.6 -121.261,137.068 -121.261,137.068 0,0 28.459,198.616 47.259,377.833 7.904,75.359 9.7,153.313 7.225,230.867 -0.599,20.077 -1.517,40.154 -2.675,60.152 -1.676,28.459 -3.831,56.719 -6.426,84.699 -2.275,24.268 -4.829,48.257 -7.703,71.926 -10.618,88.97 -24.907,173.151 -39.635,247.193 -13.172,66.418 -26.704,124.734 -38.319,171.034 -2.594,10.218 -5.029,19.838 -7.384,28.859 -14.17,54.564 -23.989,86.336 -23.989,86.336 h -688.65 c 0,0 -9.899,-32.012 -24.108,-86.855 -8.382,-32.132 -18.241,-72.166 -28.499,-118.227 -3.992,-18.002 -8.063,-36.922 -12.135,-56.68 -16.484,-79.949 -32.809,-173.15 -44.624,-272.338 -2.754,-23.151 -5.269,-46.621 -7.504,-70.33 -2.715,-28.978 -4.95,-58.316 -6.626,-87.813 -1.237,-20.915 -2.156,-41.91 -2.754,-62.945 -0.399,-13.93 -0.679,-27.861 -0.799,-41.831 C 65.261,636.96 67.695,575.052 74.002,514.901 92.762,335.684 121.221,137.068 121.221,137.068 121.221,137.068 -9.3,93.6 0,0"
             style="fill:#ffffff;fill-opacity:1;fill-rule:nonzero;stroke:none"
             id="path114" /></g><g
           id="g116"><g
             id="g118" /><g
             id="g130"><g
               clip-path="url(#clipPath122)"
               opacity="0.350006"
               id="g128"><g
                 transform="translate(2301.4817,784.7286)"
                 id="g126"><path
                   d="m 0,0 c 26.673,-58.227 127.736,-69.53 200.881,-79.077 161.71,-21.075 251.434,6.305 264.233,83.13 C 332.74,-48.545 99.388,-18.508 59.487,48.23 7.817,134.647 -0.558,221.019 79.803,328.692 160.12,436.319 166.348,576.865 166.348,576.865 127.95,548.585 48.964,517.873 -5.111,498.689 0.301,347.875 -52.829,115.373 0,0"
                   style="fill:#371a45;fill-opacity:1;fill-rule:nonzero;stroke:none"
                   id="path124" /></g></g></g></g><g
           id="g132"><g
             id="g134" /><g
             id="g146"><g
               clip-path="url(#clipPath138)"
               opacity="0.350006"
               id="g144"><g
                 transform="translate(1694.2864,788.5115)"
                 id="g142"><path
                   d="m 0,0 c 12.928,-76.6 102.652,-103.935 264.147,-82.86 73.145,9.547 174.252,20.85 200.924,79.077 53.216,116.229 -1.117,351.433 5.197,502.112 -44.755,14.005 -127.607,42.645 -171.245,74.754 0,0 -21.99,-101.053 71.599,-239.168 C 446.13,222.46 451.627,133.791 399.958,47.419 363.321,-13.87 145.517,-39.043 0,0"
                   style="fill:#371a45;fill-opacity:1;fill-rule:nonzero;stroke:none"
                   id="path140" /></g></g></g></g><g
           id="g148"
           transform="translate(2611.0105,2178.2083)"><path
             d="m 0,0 c 16.658,-49.827 30.3,-100.559 42.419,-151.648 5.994,-25.559 11.653,-51.211 16.663,-76.992 2.485,-12.893 5.09,-25.769 7.422,-38.696 l 6.55,-38.86 c 2.261,-12.942 4.246,-25.933 6.15,-38.936 l 5.776,-39.006 c 1.736,-13.03 3.353,-26.079 4.905,-39.136 1.69,-13.039 2.979,-26.13 4.256,-39.221 5.805,-52.293 8.742,-104.905 10.971,-157.517 1.182,-52.666 2.093,-105.403 -0.891,-158.14 l -0.92,-19.77 -0.457,-9.888 -0.82,-9.873 -3.291,-39.5 c -2.256,-26.301 -5.43,-52.182 -8.272,-78.264 -11.94,-104.114 -25.376,-207.888 -39.985,-311.665 l -10.283,16.641 c 7.095,-2.473 13.052,-4.968 19.37,-7.776 6.208,-2.778 12.31,-5.767 18.33,-8.941 12.004,-6.408 23.672,-13.608 34.732,-21.95 11.093,-8.259 21.503,-17.83 30.771,-28.758 9.246,-10.925 17.039,-23.654 22.3,-37.673 5.246,-14.031 7.297,-29.443 6.296,-44.333 -0.876,-14.671 -4.553,-29.327 -11.264,-43.03 -6.841,-13.569 -16.829,-25.706 -28.577,-34.795 -11.672,-9.277 -24.683,-15.986 -37.881,-20.906 -26.497,-9.863 -53.647,-13.589 -80.344,-15.273 -26.743,-1.487 -53.24,-0.606 -79.49,1.435 -13.108,1.131 -26.196,2.373 -39.192,4.06 l -38.62,5.049 c -25.831,3.604 -51.922,7.805 -77.93,14.756 -12.998,3.46 -25.977,7.747 -38.753,13.23 -12.741,5.574 -25.341,12.49 -36.85,21.895 -5.703,4.77 -11.089,10.151 -15.852,16.218 -4.751,5.908 -8.833,13.235 -11.668,19.856 -5.837,12.846 -9.655,26.113 -12.976,39.341 -6.313,26.538 -9.013,53.181 -10.215,79.582 -1.24,26.426 -0.859,52.666 0.198,78.753 2.136,52.177 7,103.793 11.187,155.146 4.091,51.294 8.095,102.583 6.23,152.822 l 17.107,-14.499 c -11.609,-1.326 -22.598,-2.149 -33.906,-2.779 -11.238,-0.612 -22.5,-0.927 -33.799,-0.944 -11.296,0.017 -22.559,0.332 -33.796,0.944 -11.309,0.63 -22.298,1.453 -33.907,2.779 l 17.107,14.499 c -1.867,-50.239 2.139,-101.528 6.231,-152.822 4.187,-51.353 9.05,-102.969 11.186,-155.146 1.057,-26.087 1.438,-52.327 0.198,-78.753 -1.201,-26.401 -3.901,-53.044 -10.217,-79.582 -3.321,-13.228 -7.136,-26.495 -12.974,-39.341 -2.834,-6.621 -6.916,-13.948 -11.667,-19.856 -4.764,-6.067 -10.152,-11.448 -15.852,-16.218 -11.512,-9.405 -24.109,-16.321 -36.851,-21.895 -12.776,-5.483 -25.754,-9.77 -38.752,-13.23 -26.009,-6.951 -52.1,-11.152 -77.93,-14.756 l -38.623,-5.049 c -12.993,-1.687 -26.082,-2.929 -39.19,-4.06 -26.252,-2.041 -52.746,-2.922 -79.489,-1.435 -26.697,1.684 -53.848,5.41 -80.347,15.273 -13.196,4.92 -26.206,11.629 -37.878,20.906 -11.751,9.089 -21.736,21.226 -28.577,34.795 -6.712,13.703 -10.388,28.359 -11.265,43.03 -1.001,14.89 1.05,30.302 6.297,44.333 5.261,14.019 13.054,26.748 22.299,37.673 9.268,10.928 19.678,20.499 30.772,28.758 11.059,8.342 22.727,15.542 34.731,21.95 6.021,3.174 12.122,6.163 18.33,8.941 6.316,2.808 12.276,5.303 19.371,7.776 l -10.286,-16.641 c -14.717,104.59 -28.264,209.177 -40.256,314.116 -2.867,26.297 -6.043,52.347 -8.326,78.909 -1.067,13.269 -2.558,26.521 -3.271,39.807 l -2.251,39.849 c -2.078,53.154 -1.787,106.308 0.322,159.341 2.017,53.042 6.233,105.932 11.731,158.642 1.214,13.198 2.754,26.355 4.285,39.514 1.462,13.169 3.056,26.321 4.773,39.453 3.259,26.292 6.826,52.542 10.925,78.709 8.071,52.454 17.893,104.194 30.188,156.177 3.22,12.888 6.628,25.669 10.303,38.406 3.552,12.761 7.39,25.449 11.399,38.095 8.108,25.259 16.767,50.435 27.859,74.815 1.169,2.571 4.201,3.706 6.772,2.536 2.214,-1.008 3.364,-3.396 2.893,-5.683 l -0.015,-0.069 c -10.571,-51.411 -20.285,-103.1 -30.51,-154.521 -9.167,-51.221 -18.306,-103.211 -26.782,-154.863 -17.224,-103.445 -29.321,-207.832 -33.328,-312.456 -2.08,-52.293 -2.363,-104.622 -0.324,-156.814 2.155,-52.161 7.724,-103.951 13.679,-156.404 11.946,-104.531 25.483,-209.048 40.144,-313.23 l 1.753,-12.446 -12.036,-4.195 c -5.1,-1.777 -11.082,-4.228 -16.553,-6.682 -5.574,-2.495 -11.074,-5.188 -16.475,-8.035 -10.771,-5.749 -21.135,-12.163 -30.693,-19.38 -19.106,-14.311 -35.244,-32.138 -42.781,-52.578 -3.791,-10.175 -5.183,-20.925 -4.49,-31.765 0.628,-11.103 3.479,-21.938 8.118,-31.43 9.419,-19.048 27.908,-32.74 49.942,-40.791 21.992,-8.233 46.584,-11.836 71.32,-13.355 24.839,-1.384 50.076,-0.576 75.298,1.389 12.617,1.092 25.242,2.285 37.857,3.926 l 38.191,4.99 c 25.293,3.518 50.295,7.6 74.204,14.002 23.706,6.425 46.982,15.173 64.099,29.192 4.192,3.523 7.959,7.324 11.181,11.406 l 2.303,3.12 2.021,3.254 c 0.737,1.053 1.187,2.242 1.799,3.355 l 0.877,1.687 0.845,2.043 c 4.892,10.681 8.254,22.354 11.215,34.131 5.667,23.743 8.279,48.704 9.407,73.86 1.187,25.171 0.833,50.62 -0.205,76.128 -2.085,51.042 -6.899,102.305 -11.108,153.889 -4.092,51.602 -8.252,103.535 -6.306,156.597 l 0.6,16.384 16.506,-1.885 c 10.242,-1.169 21.192,-2.011 31.839,-2.595 10.72,-0.586 21.45,-0.884 32.141,-0.901 10.693,0.017 21.423,0.315 32.144,0.901 10.647,0.584 21.596,1.426 31.838,2.595 l 16.506,1.885 0.601,-16.384 c 1.946,-53.062 -2.215,-104.995 -6.306,-156.597 -4.209,-51.584 -9.024,-102.847 -11.109,-153.889 -1.037,-25.508 -1.391,-50.957 -0.205,-76.128 1.128,-25.156 3.74,-50.117 9.407,-73.86 2.961,-11.777 6.323,-23.45 11.213,-34.131 l 0.847,-2.043 0.877,-1.687 c 0.613,-1.113 1.062,-2.302 1.799,-3.355 l 2.022,-3.254 2.302,-3.12 c 3.223,-4.082 6.99,-7.883 11.182,-11.406 17.116,-14.019 40.393,-22.767 64.099,-29.192 23.908,-6.402 48.911,-10.484 74.204,-14.002 l 38.191,-4.99 c 12.615,-1.641 25.239,-2.834 37.856,-3.926 25.222,-1.965 50.459,-2.773 75.296,-1.389 24.736,1.519 49.331,5.122 71.323,13.355 22.031,8.051 40.522,21.743 49.941,40.791 4.639,9.492 7.488,20.327 8.118,31.43 0.693,10.84 -0.698,21.59 -4.49,31.765 -7.536,20.44 -23.674,38.267 -42.781,52.578 -9.558,7.217 -19.921,13.631 -30.693,19.38 -5.4,2.847 -10.901,5.54 -16.475,8.035 -5.471,2.454 -11.452,4.905 -16.552,6.682 l -12.036,4.195 1.753,12.446 c 14.553,103.371 27.978,207.073 39.87,310.788 2.822,25.904 6.011,51.946 8.218,77.752 l 3.223,38.677 0.805,9.67 0.401,9.707 0.798,19.412 c 2.585,51.74 1.672,103.686 -0.122,155.542 C 68.428,-517.5 57.29,-414.019 42.112,-311.047 26.665,-208.083 7.979,-105.63 -9.868,-2.471 -10.347,0.305 -8.486,2.944 -5.71,3.425 -3.193,3.86 -0.784,2.354 0,0"
             style="fill:#371a45;fill-opacity:1;fill-rule:nonzero;stroke:none"
             id="path150" /></g><g
           id="g152"
           transform="translate(1948.7424,1046.4235)"><path
             d="m 0,0 c -125.078,0 -168.1,54.473 -170.615,57.815 -5.064,6.736 -3.706,16.301 3.027,21.365 6.695,5.041 16.187,3.73 21.275,-2.903 1.333,-1.663 83.251,-98.97 361.206,-3.906 8.003,2.724 16.65,-1.529 19.375,-9.502 2.724,-7.974 -1.529,-16.648 -9.502,-19.375 C 130.376,11.214 56.743,0 0,0"
             style="fill:#371a45;fill-opacity:1;fill-rule:nonzero;stroke:none"
             id="path154" /></g><g
           id="g156"
           transform="translate(2524.5872,1039.2825)"><path
             d="m 0,0 c -111.958,0 -231.953,39.507 -239.58,42.058 -7.988,2.673 -12.3,11.318 -9.624,19.309 2.666,7.993 11.348,12.302 19.307,9.632 2.695,-0.896 270.41,-89.036 363.208,-3.265 6.191,5.721 15.844,5.34 21.562,-0.849 5.718,-6.187 5.342,-15.843 -0.85,-21.563 C 117.153,11.24 59.717,0 0,0"
             style="fill:#371a45;fill-opacity:1;fill-rule:nonzero;stroke:none"
             id="path158" /></g><g
           id="g160"
           transform="translate(1655.4895,2466.9905)"><path
             d="m 0,0 v 0 c 6.445,0.885 10.953,6.827 10.068,13.272 l -46.161,336.152 c -0.885,6.446 -6.827,10.953 -13.273,10.068 v 0 c -67.617,-9.285 -114.904,-71.627 -105.619,-139.244 l 15.741,-114.629 C -129.959,38.002 -67.617,-9.285 0,0"
             style="fill:#ffffff;fill-opacity:1;fill-rule:nonzero;stroke:none"
             id="path162" /></g><g
           id="g164"
           transform="translate(1607.7463,2823.8528)"><path
             d="m 0,0 c -0.415,0 -0.83,-0.029 -1.25,-0.085 -31.978,-4.393 -60.327,-20.972 -79.834,-46.69 -19.507,-25.715 -27.832,-57.488 -23.442,-89.465 l 15.742,-114.629 c 4.389,-31.978 20.971,-60.332 46.689,-79.839 25.718,-19.504 57.486,-27.82 89.468,-23.44 4.937,0.681 8.398,5.249 7.725,10.186 L 8.936,-7.812 C 8.608,-5.42 7.368,-3.298 5.444,-1.838 3.858,-0.635 1.958,0 0,0 m 30.669,-360.776 c -27.383,0 -53.887,8.867 -76.079,25.7 -26.885,20.393 -44.214,50.032 -48.804,83.46 l -15.742,114.629 c -4.59,33.427 4.111,66.643 24.502,93.525 20.391,26.885 50.029,44.216 83.462,48.806 3.799,0.532 7.651,-0.469 10.747,-2.815 3.091,-2.346 5.083,-5.752 5.61,-9.594 l 46.162,-336.15 c 1.089,-7.932 -4.477,-15.274 -12.412,-16.363 -5.83,-0.8 -11.66,-1.198 -17.446,-1.198"
             style="fill:#371a45;fill-opacity:1;fill-rule:nonzero;stroke:none"
             id="path166" /></g><g
           id="g168"><g
             id="g170" /><g
             id="g182"><g
               clip-path="url(#clipPath174)"
               opacity="0.350006"
               id="g180"><g
                 transform="translate(1508.8649,2626.3611)"
                 id="g178"><path
                   d="m 0,0 7.371,-53.763 c 9.29,-67.593 71.629,-114.893 139.264,-105.631 6.444,0.878 10.944,6.855 10.066,13.299 l -12.242,89.365 c -1.25,-4.322 -4.941,-7.696 -9.667,-8.382 l -7.975,-1.072 C 73.385,-73.533 23.214,-45.523 0,0"
                   style="fill:#371a45;fill-opacity:1;fill-rule:nonzero;stroke:none"
                   id="path176" /></g></g></g></g><g
           id="g184"
           transform="translate(1604.7582,2810.8376)"><path
             d="m 0,0 c -27.256,-4.617 -51.343,-19.199 -68.125,-41.323 -17.485,-23.054 -24.946,-51.536 -21.011,-80.2 l 15.742,-114.629 c 3.936,-28.665 18.799,-54.08 41.851,-71.568 22.124,-16.78 49.228,-24.321 76.748,-21.43 z m 33.633,-360.281 c -30.098,0 -59.224,9.746 -83.618,28.247 -29.551,22.412 -48.599,54.991 -53.643,91.731 l -15.742,114.629 c -5.044,36.738 4.516,73.245 26.929,102.793 22.416,29.546 54.99,48.596 91.733,53.643 7.139,0.991 14.258,-0.877 20.02,-5.247 5.751,-4.365 9.462,-10.71 10.444,-17.866 l 46.162,-336.148 c 2.026,-14.77 -8.34,-28.435 -23.105,-30.466 h -0.005 c -6.407,-0.879 -12.818,-1.316 -19.175,-1.316"
             style="fill:#371a45;fill-opacity:1;fill-rule:nonzero;stroke:none"
             id="path186" /></g><g
           id="g188"
           transform="translate(2715.6821,2978.8479)"><path
             d="m 0,0 v 0 c -6.445,-0.885 -10.953,-6.827 -10.068,-13.273 l 46.161,-336.152 c 0.885,-6.445 6.827,-10.952 13.273,-10.067 v 0 c 67.617,9.285 114.904,71.627 105.619,139.244 l -15.741,114.629 C 129.959,-38.002 67.617,9.285 0,0"
             style="fill:#ffffff;fill-opacity:1;fill-rule:nonzero;stroke:none"
             id="path190" /></g><g
           id="g192"
           transform="translate(2716.052,2976.1331)"><path
             d="m 0,0 c -4.937,-0.681 -8.398,-5.249 -7.725,-10.183 l 46.163,-336.152 c 0.327,-2.393 1.567,-4.515 3.491,-5.972 1.924,-1.465 4.297,-2.085 6.694,-1.755 31.978,4.392 60.327,20.971 79.834,46.689 19.507,25.715 27.832,57.488 23.442,89.465 l -15.742,114.629 C 131.768,-71.301 115.186,-42.947 89.468,-23.44 63.755,-3.936 31.992,4.375 0,0 m 47.363,-359.631 c -3.149,0 -6.196,1.02 -8.745,2.956 -3.091,2.344 -5.083,5.75 -5.61,9.592 L -13.154,-10.93 c -1.089,7.932 4.477,15.271 12.412,16.36 33.418,4.59 66.645,-4.109 93.525,-24.502 26.885,-20.393 44.214,-50.032 48.804,-83.46 l 15.742,-114.629 c 4.59,-33.427 -4.111,-66.643 -24.502,-93.525 -20.39,-26.885 -50.029,-44.216 -83.462,-48.806 -0.669,-0.093 -1.338,-0.139 -2.002,-0.139"
             style="fill:#371a45;fill-opacity:1;fill-rule:nonzero;stroke:none"
             id="path194" /></g><g
           id="g196"><g
             id="g198" /><g
             id="g210"><g
               clip-path="url(#clipPath202)"
               opacity="0.350006"
               id="g208"><g
                 transform="translate(2738.9426,2722.6748)"
                 id="g206"><path
                   d="m 0,0 12.817,-93.253 c 0.877,-6.444 6.854,-10.944 13.298,-10.067 35.487,4.889 65.412,24.378 84.464,51.604 17.206,24.588 25.539,55.514 21.136,87.618 l -6.631,48.302 C 111.71,39.192 72.999,3.796 23.425,-3.021 L 11.158,-4.703 C 6.678,-5.308 2.531,-3.356 0,0"
                   style="fill:#371a45;fill-opacity:1;fill-rule:nonzero;stroke:none"
                   id="path204" /></g></g></g></g><g
           id="g212"
           transform="translate(2721.2083,2964.1506)"><path
             d="m 0,0 45.205,-329.15 c 27.251,4.616 51.343,19.196 68.125,41.323 17.485,23.054 24.946,51.535 21.011,80.2 L 118.599,-92.998 C 114.663,-64.333 99.8,-38.918 76.748,-21.431 54.624,-4.651 27.505,2.9 0,0 m 42.222,-360.166 c -13.296,0 -24.917,9.836 -26.773,23.367 l -46.162,336.15 c -2.026,14.768 8.34,28.432 23.106,30.463 h 0.004 C 29.116,34.863 65.64,25.293 95.19,2.883 c 29.551,-22.412 48.599,-54.99 53.643,-91.731 l 15.742,-114.629 c 5.044,-36.738 -4.516,-73.244 -26.929,-102.793 -22.417,-29.545 -54.99,-48.596 -91.733,-53.642 -1.24,-0.171 -2.475,-0.254 -3.691,-0.254"
             style="fill:#371a45;fill-opacity:1;fill-rule:nonzero;stroke:none"
             id="path214" /></g><g
           id="g216"><g
             id="g218" /><g
             id="g230"><g
               clip-path="url(#clipPath222)"
               opacity="0.350006"
               id="g228"><g
                 transform="translate(1746.7893,2208.2522)"
                 id="g226"><path
                   d="m 0,0 c 10.218,-10.697 20.756,-20.995 31.692,-30.854 20.237,-18.321 41.671,-35.245 64.104,-50.612 96.514,-66.259 211.987,-104.617 333.168,-106.413 44.306,-0.718 89.369,3.513 134.553,13.012 105.894,22.273 199.494,70.969 275.293,137.706 6.066,5.349 12.014,10.817 17.841,16.406 17.124,16.285 33.21,33.568 48.218,51.689 9.339,11.176 18.201,22.711 26.583,34.526 -37.48,41.911 -91.924,68.415 -152.275,68.415 H 191.831 C 104.138,133.875 28.858,77.954 0,0"
                   style="fill:#371a45;fill-opacity:1;fill-rule:nonzero;stroke:none"
                   id="path224" /></g></g></g></g><g
           id="g232"
           transform="translate(1619.7083,2603.8157)"><path
             d="m 0,0 c 65.774,-312.487 372.415,-512.488 684.902,-446.714 312.487,65.774 512.487,372.415 446.713,684.902 C 1065.842,550.675 759.201,750.675 446.714,684.902 134.227,619.128 -65.774,312.487 0,0"
             style="fill:#ffffff;fill-opacity:1;fill-rule:nonzero;stroke:none"
             id="path234" /></g><g
           id="g236"
           transform="translate(2185.6565,3298.4402)"><path
             d="m 0,0 c -39.15,0 -78.872,-4.028 -118.667,-12.405 -150.42,-31.66 -279.502,-120 -363.477,-248.75 -83.974,-128.747 -112.783,-282.488 -81.123,-432.905 31.661,-150.415 120,-279.5 248.75,-363.472 128.755,-83.977 282.496,-112.783 432.906,-81.123 C 428.896,-1073.298 628.34,-767.51 562.988,-457 506.006,-186.294 266.274,0 0,0 m -1.313,-1156.67 c -111.47,0 -220.645,32.222 -316.202,94.546 -129.97,84.773 -219.155,215.085 -251.113,366.936 -31.963,151.848 -2.881,307.056 81.89,437.029 84.775,129.975 215.088,219.158 366.938,251.12 313.462,65.984 622.163,-135.368 688.15,-448.833 65.981,-313.466 -135.367,-622.168 -448.829,-688.149 -40.214,-8.464 -80.683,-12.646 -120.834,-12.649"
             style="fill:#371a45;fill-opacity:1;fill-rule:nonzero;stroke:none"
             id="path238" /></g><g
           id="g240"><g
             id="g242" /><g
             id="g254"><g
               clip-path="url(#clipPath246)"
               opacity="0.350006"
               id="g252"><g
                 transform="translate(1608.6453,2683.2798)"
                 id="g250"><path
                   d="m 0,0 c 1.782,-26.342 5.46,-52.871 11.053,-79.472 65.815,-312.469 372.44,-512.466 684.923,-446.724 312.47,65.814 512.466,372.439 446.724,684.922 -1.885,8.987 -3.987,17.937 -6.282,26.703 C 1156.247,-98.03 964.552,-359.83 678.641,-420.021 375.145,-483.877 77.224,-297.071 0,0"
                   style="fill:#371a45;fill-opacity:1;fill-rule:nonzero;stroke:none"
                   id="path248" /></g></g></g></g><g
           id="g256"
           transform="translate(2185.6516,3285.9207)"><path
             d="m 0,0 c -38.296,0 -77.153,-3.94 -116.084,-12.134 -147.148,-30.971 -273.423,-117.39 -355.571,-243.337 -82.144,-125.947 -110.327,-276.348 -79.356,-423.491 30.972,-147.144 117.388,-273.421 243.335,-355.567 125.952,-82.143 276.363,-110.322 423.491,-79.358 303.755,63.936 498.863,363.074 434.927,666.829 C 495,-182.241 260.483,0 0,0 m -1.333,-1156.672 c -113.872,0 -225.4,32.917 -323.013,96.582 -132.773,86.599 -223.877,219.721 -256.528,374.843 -32.651,155.12 -2.939,313.672 83.657,446.446 86.602,132.776 219.722,223.879 374.844,256.53 320.2,67.398 635.571,-138.283 702.978,-458.503 67.398,-320.22 -138.286,-635.574 -458.501,-702.976 -41.083,-8.647 -82.421,-12.92 -123.437,-12.922"
             style="fill:#371a45;fill-opacity:1;fill-rule:nonzero;stroke:none"
             id="path258" /></g><g
           id="g260"
           transform="translate(1624.5764,2589.6643)"><path
             d="m 0,0 c 21.63,-111.06 77.762,-207.146 156.033,-280.448 58.681,-54.955 270.498,-129.881 505.548,-86.292 217.941,40.417 393.297,194.966 427.065,267.925 45.042,97.318 61.012,207.448 39.383,318.507 C 1070.79,513.588 794.557,586.248 483.047,525.579 171.537,464.91 -57.239,293.896 0,0"
             style="fill:#371a45;fill-opacity:1;fill-rule:nonzero;stroke:none"
             id="path262" /></g><g
           id="g264"
           transform="translate(1639.5531,2592.5808)"><path
             d="m 0,0 c 20.317,-104.312 72.7,-198.445 151.484,-272.227 52.31,-48.984 256.773,-126.118 492.339,-82.426 212.564,39.421 383.809,189.782 416.001,259.331 45.337,97.964 58.565,204.875 38.252,309.179 -26.011,133.54 -99.341,225.967 -217.964,274.71 C 773.393,532.424 631.919,539.033 470.986,507.683 310.049,476.34 181.396,417.122 98.94,336.428 7.28,246.731 -26.006,133.54 0,0 m 501.289,-398.247 c -181.729,0 -324.668,60.666 -370.664,103.745 -83.501,78.196 -139.028,178.018 -160.576,288.667 -28.096,144.251 8.086,266.743 107.544,364.075 86.733,84.878 220.752,146.911 387.563,179.399 166.807,32.488 314.307,25.281 426.558,-20.845 128.716,-52.89 208.222,-152.851 236.313,-297.102 21.553,-110.644 7.544,-224.006 -40.508,-327.832 -35.483,-76.662 -212.236,-234.626 -438.129,-276.518 -51.294,-9.512 -101.001,-13.589 -148.101,-13.589"
             style="fill:#371a45;fill-opacity:1;fill-rule:nonzero;stroke:none"
             id="path266" /></g><g
           id="g268"><g
             id="g270" /><g
             id="g282"><g
               clip-path="url(#clipPath274)"
               opacity="0.699997"
               id="g280"><g
                 transform="translate(1869.1936,2692.2134)"
                 id="g278"><path
                   d="m 0,0 c 20.52,-52.655 6.224,-107.394 -31.93,-122.263 -38.155,-14.87 -85.72,15.762 -106.241,68.416 -20.52,52.655 -6.224,107.394 31.931,122.264 C -68.086,83.286 -20.52,52.655 0,0"
                   style="fill:#ffffff;fill-opacity:1;fill-rule:nonzero;stroke:none"
                   id="path276" /></g></g></g></g><g
           id="g284"><g
             id="g286" /><g
             id="g298"><g
               clip-path="url(#clipPath290)"
               opacity="0.699997"
               id="g296"><g
                 transform="translate(1963.1821,2503.3809)"
                 id="g294"><path
                   d="m 0,0 c 12.668,-22.635 7.19,-49.797 -12.234,-60.667 -19.424,-10.871 -45.44,-1.335 -58.107,21.3 -12.668,22.635 -7.191,49.797 12.233,60.668 C -38.683,32.172 -12.668,22.635 0,0"
                   style="fill:#ffffff;fill-opacity:1;fill-rule:nonzero;stroke:none"
                   id="path292" /></g></g></g></g><g
           id="g300"><g
             id="g302" /><g
             id="g314"><g
               clip-path="url(#clipPath306)"
               opacity="0.350006"
               id="g312"><g
                 transform="translate(1680.8755,2885.2073)"
                 id="g310"><path
                   d="m 0,0 c -56.135,-79.222 -79.269,-177.483 -56.296,-295.525 21.633,-111.082 77.786,-207.158 156.015,-280.47 58.694,-54.951 270.529,-129.868 505.578,-86.304 82.998,15.368 159.787,47.311 224.967,85.032 C 540.19,-624.66 281.965,-532.361 209.194,-464.2 109.846,-371.168 38.607,-249.198 11.181,-108.269 3.822,-70.609 0.243,-34.518 0,0"
                   style="fill:#111a28;fill-opacity:1;fill-rule:nonzero;stroke:none"
                   id="path308" /></g></g></g></g><g
           id="g316"
           transform="translate(1622.8783,2841.5774)"><path
             d="m 0,0 c -3.413,0 -6.851,1.14 -9.693,3.479 -5.698,4.695 -7.119,12.659 -3.779,18.936 73.775,161.23 251.201,279.985 486.968,325.908 237.661,46.281 447.451,-0.122 575.596,-127.312 l -10.664,-10.896 -9.624,-11.844 9.624,11.844 -9.629,-11.836 -1.201,1.072 C 906.738,319.302 706.914,362.698 479.326,318.367 253.008,274.285 83.389,161.533 13.96,9.019 L 13.276,7.51 11.787,5.559 C 8.769,1.895 4.404,0 0,0"
             style="fill:#371a45;fill-opacity:1;fill-rule:nonzero;stroke:none"
             id="path318" /></g><g
           id="g320"><g
             id="g322" /><g
             id="g334"><g
               clip-path="url(#clipPath326)"
               opacity="0.699997"
               id="g332"><g
                 transform="translate(2659.9897,2609.8501)"
                 id="g330"><path
                   d="m 0,0 c 0,0 34.559,307.657 -144.196,392.762 -178.754,85.105 -403.466,40.857 -395.401,27.464 0,0 260.606,-11.78 396.302,-189.565 C -38.657,93.568 0,0 0,0"
                   style="fill:#ffffff;fill-opacity:1;fill-rule:nonzero;stroke:none"
                   id="path328" /></g></g></g></g><g
           id="g336"
           transform="translate(2293.696,1302.134)"><path
             d="m 0,0 21.484,5.525 c 7.278,2.051 14.62,3.95 21.888,6.162 14.609,4.182 29.126,8.855 43.52,13.977 14.475,4.973 28.613,10.83 43.045,16.465 14.558,5.498 28.701,11.914 44.179,17.312 C 163.916,46.787 151.973,35.627 138.933,26.104 132.532,21.106 125.679,16.851 118.818,12.539 111.799,8.577 104.778,4.512 97.539,0.916 83.125,-6.453 68.188,-12.795 52.864,-18.103 37.363,-23.308 22.148,-27.656 5.11,-30.086 c -8.338,-1.188 -16.062,4.607 -17.251,12.947 -1.106,7.752 3.826,14.973 11.225,16.907 z"
             style="fill:#371a45;fill-opacity:1;fill-rule:nonzero;stroke:none"
             id="path338" /></g><g
           id="g340"
           transform="translate(2162.3337,1272.0485)"><path
             d="m 0,0 c -17.039,2.429 -32.251,6.777 -47.751,11.983 -15.325,5.307 -30.262,11.65 -44.676,19.018 -7.241,3.596 -14.26,7.661 -21.279,11.624 -6.86,4.311 -13.713,8.567 -20.115,13.564 -13.039,9.524 -24.983,20.684 -35.185,33.337 15.478,-5.397 29.624,-11.814 44.182,-17.312 14.431,-5.634 28.569,-11.491 43.044,-16.464 14.395,-5.122 28.911,-9.795 43.521,-13.977 7.268,-2.212 14.609,-4.112 21.887,-6.163 L 5.112,30.086 5.952,29.871 C 14.109,27.774 19.023,19.461 16.926,11.301 14.976,3.716 7.576,-1.052 0,0"
             style="fill:#371a45;fill-opacity:1;fill-rule:nonzero;stroke:none"
             id="path342" /></g><g
           id="g344"
           transform="translate(2643.6497,918.2497)"><path
             d="m 0,0 c -8.882,1.074 -18.723,2.078 -28.171,2.891 -9.546,0.778 -19.117,1.565 -28.699,1.943 -19.16,1.003 -38.338,1.123 -57.488,0.344 -19.136,-0.971 -38.037,-3.445 -57.058,-6.521 -18.928,-3.547 -37.449,-8.674 -56.792,-15.107 14.597,14.082 32.603,24.77 51.602,32.737 19.13,7.617 39.257,12.407 59.514,15.693 20.288,2.961 40.761,4.292 61.191,4.104 10.213,-0.2 20.422,-0.574 30.598,-1.623 10.279,-0.904 20.115,-2.259 30.769,-4.439 8.255,-1.687 13.579,-9.749 11.89,-18.003 C 15.754,4.192 8.428,-0.998 0.637,-0.078 Z"
             style="fill:#371a45;fill-opacity:1;fill-rule:nonzero;stroke:none"
             id="path346" /></g><g
           id="g348"
           transform="translate(1811.6599,948.2717)"><path
             d="m 0,0 c 10.652,2.18 20.491,3.535 30.769,4.438 10.176,1.05 20.386,1.424 30.596,1.624 20.43,0.188 40.906,-1.143 61.194,-4.104 20.253,-3.286 40.383,-8.076 59.514,-15.693 18.999,-7.967 37.004,-18.655 51.599,-32.737 -19.341,6.433 -37.861,11.56 -56.79,15.107 -19.021,3.076 -37.924,5.55 -57.06,6.521 -19.148,0.779 -38.325,0.659 -57.486,-0.344 -9.582,-0.378 -19.155,-1.165 -28.698,-1.943 -9.448,-0.813 -19.292,-1.817 -28.174,-2.891 L 4.89,-30.093 c -8.366,-1.011 -15.967,4.949 -16.98,13.316 C -13.049,-8.848 -7.681,-1.592 0,0"
             style="fill:#371a45;fill-opacity:1;fill-rule:nonzero;stroke:none"
             id="path350" /></g><g
           id="g352"><g
             id="g354" /><g
             id="g366"><g
               clip-path="url(#clipPath358)"
               opacity="0.350006"
               id="g364"><g
                 transform="translate(2460.1323,1356.4495)"
                 id="g362"><path
                   d="m 0,0 c 0,0 -121.566,-20.499 -215.452,-20.499 -93.887,0 -244.16,20.499 -244.16,20.499 0,0 90.221,-72.48 234.067,-69.358 C -78.094,-66.157 0,0 0,0"
                   style="fill:#371a45;fill-opacity:1;fill-rule:nonzero;stroke:none"
                   id="path360" /></g></g></g></g><g
           id="g368"><g
             id="g370" /><g
             id="g382"><g
               clip-path="url(#clipPath374)"
               opacity="0.350006"
               id="g380"><g
                 transform="translate(1762.5957,1599.9108)"
                 id="g378"><path
                   d="m 0,0 c 20.037,-1.357 41.032,-2.155 62.067,-1.956 2.874,0 5.668,0.04 8.542,0.12 2.994,0.04 5.988,0.12 8.981,0.279 2.035,0.04 4.031,0.12 5.987,0.2 2.355,0.12 4.71,0.239 7.065,0.399 2.954,0.16 5.947,0.359 8.901,0.599 h 0.2 c 2.953,0.199 5.947,0.479 8.901,0.758 1.916,0.2 3.872,0.399 5.787,0.639 1.637,0.12 3.273,0.319 4.87,0.519 2.554,0.279 5.109,0.638 7.584,0.998 2.395,0.319 4.71,0.678 7.025,1.077 0.479,0.04 0.958,0.08 1.397,0.2 2.714,0.399 5.388,0.878 8.023,1.397 2.674,0.479 5.348,0.998 7.943,1.557 0.199,0.039 0.439,0.079 0.638,0.119 1.477,0.36 2.954,0.639 4.351,0.998 1.637,0.359 3.233,0.719 4.83,1.158 h 0.04 c 0.878,0.239 1.716,0.439 2.594,0.718 v -32.53 c 0,-44.904 36.802,-81.706 81.746,-81.706 h 446.167 c 44.864,0 81.666,36.802 81.666,81.706 V 3.233 c 51.69,-7.823 110.843,-5.708 160.298,-1.038 -1.677,28.46 -3.832,56.719 -6.426,84.7 -2.276,24.268 -4.83,48.257 -7.704,71.926 -45.104,-1.437 -98.909,-1.676 -146.168,2.435 v 58.275 c 0,44.985 -36.802,81.666 -81.666,81.666 H 247.472 c -26.464,0 -50.094,-12.733 -65.101,-32.371 -10.418,-13.73 -16.645,-30.814 -16.645,-49.295 v -54.603 c -9.42,-1.397 -19.398,-2.515 -29.657,-3.433 C 97.192,157.983 53.685,157.424 14.13,158.142 11.376,134.992 8.861,111.522 6.626,87.813 3.911,58.835 1.676,29.497 0,0"
                   style="fill:#371a45;fill-opacity:1;fill-rule:nonzero;stroke:none"
                   id="path376" /></g></g></g></g><g
           id="g384"
           transform="translate(2458.7544,1662.2078)"><path
             d="m 0,0 c 63.221,-25.594 161.063,-20.238 227.767,-12.167 40.006,4.841 68.089,41.759 62.196,81.624 v 0.001 c -5.378,36.377 -37.399,62.832 -74.132,61.111 -62.392,-2.924 -155.976,-4.293 -215.242,8.854"
             style="fill:#ffffff;fill-opacity:1;fill-rule:nonzero;stroke:none"
             id="path386" /></g><g
           id="g388"><g
             id="g390" /><g
             id="g402"><g
               clip-path="url(#clipPath394)"
               opacity="0.350006"
               id="g400"><g
                 transform="translate(2458.7495,1662.2179)"
                 id="g398"><path
                   d="m 0,0 c 63.225,-25.585 161.056,-20.237 227.754,-12.174 40.034,4.83 68.094,41.751 62.227,81.626 -1.357,9.22 -4.47,17.842 -8.901,25.465 C 270.223,76.157 251.024,62.506 227.754,59.712 161.176,51.65 63.544,46.301 0.319,71.767 Z"
                   style="fill:#371a45;fill-opacity:1;fill-rule:nonzero;stroke:none"
                   id="path396" /></g></g></g></g><g
           id="g404"
           transform="translate(2464.4797,1676.3503)"><path
             d="m 0,0 c 59.424,-24.055 152.559,-19.346 220.21,-11.16 15.195,1.839 28.677,9.556 37.969,21.731 9.321,12.21 13.213,27.307 10.967,42.512 C 264.888,81.858 239.8,102.498 210.82,101.184 144.663,98.079 53.667,97.117 -6.274,109.912 -12.314,103.85 -22.783,74.568 -19.951,41.465 -19.062,31.067 -15.337,6.208 0,0 m 119.932,-48.237 c -47.105,0 -94.507,5.022 -131.387,19.951 -44.067,17.842 -45.361,88.03 -32.354,129.846 12.588,40.474 33.555,40.476 41.978,38.618 56.611,-12.561 146.118,-11.562 211.226,-8.511 44.545,2.12 83.378,-29.765 89.936,-74.118 3.462,-23.421 -2.534,-46.68 -16.89,-65.491 -14.331,-18.777 -35.127,-30.681 -58.569,-33.516 -31.099,-3.762 -67.427,-6.779 -103.94,-6.779"
             style="fill:#371a45;fill-opacity:1;fill-rule:nonzero;stroke:none"
             id="path406" /></g><g
           id="g408"
           transform="translate(1747.4224,1650.0452)"><path
             d="m 0,0 c 31.293,-3.792 69.491,-6.985 107.73,-6.626 2.635,0 5.229,0.04 7.863,0.12 2.755,0.04 5.548,0.12 8.303,0.24 1.875,0.039 3.711,0.119 5.507,0.199 2.196,0.119 4.352,0.239 6.507,0.359 2.754,0.16 5.508,0.36 8.222,0.559 h 0.199 c 2.715,0.199 5.469,0.439 8.183,0.719 1.796,0.159 3.593,0.359 5.349,0.558 1.517,0.12 3.034,0.32 4.51,0.479 2.355,0.28 4.71,0.599 6.985,0.918 2.196,0.319 4.351,0.639 6.467,0.998 0.438,0.04 0.878,0.08 1.277,0.2 2.515,0.359 4.989,0.798 7.424,1.277 2.475,0.439 4.909,0.918 7.305,1.437 0.199,0.04 0.398,0.08 0.598,0.12 1.357,0.319 2.714,0.598 4.031,0.918 1.478,0.319 2.954,0.678 4.431,1.078 h 0.04 c 4.51,1.117 8.941,2.394 13.251,3.751 2.316,0.718 4.631,1.517 6.906,2.316 2.275,0.798 4.511,1.676 6.666,2.554 l -0.28,66.937 -0.319,72.485 c -15.168,-3.392 -32.61,-5.788 -51.17,-7.464 -53.965,-4.909 -117.63,-3.552 -164.051,-1.397 -1.117,0.04 -2.235,0.08 -3.392,0.08 -35.285,0 -65.541,-25.945 -70.73,-61.189 C -68.095,41.751 -39.995,4.83 0,0"
             style="fill:#ffffff;fill-opacity:1;fill-rule:nonzero;stroke:none"
             id="path410" /></g><g
           id="g412"><g
             id="g414" /><g
             id="g426"><g
               clip-path="url(#clipPath418)"
               opacity="0.350006"
               id="g424"><g
                 transform="translate(1747.4279,1650.0437)"
                 id="g422"><path
                   d="m 0,0 c 31.293,-3.792 69.492,-6.985 107.73,-6.626 2.635,0 5.229,0.04 7.863,0.12 2.755,0.04 5.549,0.12 8.303,0.24 1.876,0.039 3.712,0.119 5.508,0.199 2.195,0.12 4.351,0.24 6.506,0.359 2.754,0.16 5.508,0.36 8.222,0.559 h 0.2 c 2.714,0.2 5.468,0.439 8.183,0.718 1.796,0.16 3.592,0.36 5.348,0.559 1.517,0.12 3.034,0.32 4.511,0.479 2.355,0.28 4.71,0.599 6.985,0.918 2.195,0.32 4.35,0.639 6.466,0.998 0.439,0.04 0.878,0.08 1.277,0.2 2.515,0.359 4.99,0.798 7.424,1.277 2.475,0.439 4.91,0.918 7.305,1.437 0.199,0.04 0.399,0.08 0.598,0.12 1.358,0.319 2.714,0.599 4.032,0.918 1.477,0.319 2.953,0.678 4.43,1.077 h 0.04 c 4.511,1.118 8.941,2.396 13.252,3.753 2.315,0.718 4.63,1.516 6.905,2.315 2.275,0.798 4.511,1.676 6.666,2.554 l -0.279,63.904 c -2.076,-0.838 -4.192,-1.677 -6.387,-2.435 -2.275,-0.799 -4.59,-1.597 -6.905,-2.315 -4.311,-1.357 -8.741,-2.635 -13.252,-3.752 h -0.04 c -1.477,-0.399 -2.953,-0.758 -4.43,-1.078 -1.318,-0.319 -2.674,-0.599 -4.032,-0.918 l -0.598,-0.12 c -2.395,-0.518 -4.83,-0.997 -7.305,-1.436 -2.434,-0.479 -4.909,-0.919 -7.424,-1.278 -0.399,-0.12 -0.838,-0.159 -1.277,-0.199 -2.116,-0.36 -4.271,-0.679 -6.466,-0.998 -2.275,-0.32 -4.63,-0.639 -6.985,-0.918 -1.477,-0.16 -2.994,-0.36 -4.511,-0.479 -1.756,-0.2 -3.552,-0.399 -5.348,-0.559 -2.715,-0.279 -5.469,-0.519 -8.183,-0.719 h -0.2 c -2.714,-0.199 -5.468,-0.399 -8.222,-0.558 -2.155,-0.12 -4.311,-0.24 -6.506,-0.36 -1.796,-0.08 -3.632,-0.159 -5.508,-0.199 -2.754,-0.12 -5.548,-0.2 -8.303,-0.24 -2.634,-0.079 -5.228,-0.12 -7.863,-0.12 C 69.492,57.038 31.293,60.232 0,64.024 -24.827,67.017 -45.064,82.384 -55.441,103.14 -58.754,96.514 -61.069,89.29 -62.187,81.626 -68.095,41.751 -39.994,4.83 0,0"
                   style="fill:#371a45;fill-opacity:1;fill-rule:nonzero;stroke:none"
                   id="path420" /></g></g></g></g><g
           id="g428"
           transform="translate(1755.9447,1777.5979)"><path
             d="m 0,0 c -27.842,0 -51.509,-20.278 -55.63,-48.164 -2.246,-15.205 1.646,-30.305 10.967,-42.515 9.287,-12.175 22.773,-19.89 37.969,-21.728 67.656,-8.189 160.781,-12.898 220.205,11.159 l 5.727,-14.143 -5.727,14.143 c 15.341,6.211 19.067,31.067 19.956,41.468 C 236.299,-26.677 225.83,2.603 219.79,8.665 159.839,-4.126 68.857,-3.167 2.695,-0.063 1.792,-0.022 0.893,0 0,0 m 93.579,-149.485 c -36.514,-0.002 -72.832,3.018 -103.936,6.78 -23.442,2.834 -44.243,14.736 -58.569,33.513 -14.355,18.811 -20.356,42.07 -16.889,65.491 6.547,44.353 45.322,76.25 89.936,74.121 65.112,-3.054 154.614,-4.053 211.226,8.511 8.427,1.86 29.389,1.86 41.977,-38.619 13.008,-41.818 11.714,-112.004 -32.358,-129.846 -36.875,-14.926 -84.287,-19.951 -131.387,-19.951"
             style="fill:#371a45;fill-opacity:1;fill-rule:nonzero;stroke:none"
             id="path430" /></g><g
           id="g432"
           transform="translate(1950.7495,1847.7063)"><path
             d="m 0,0 v -223.432 c 0,-41.455 33.933,-75.388 75.388,-75.388 h 411.484 c 41.399,0 75.332,33.933 75.332,75.388 V 0 c 0,41.455 -33.933,75.332 -75.332,75.332 H 75.388 C 50.983,75.332 29.197,63.576 15.379,45.467 5.739,32.819 0,17.05 0,0"
             style="fill:#ffffff;fill-opacity:1;fill-rule:nonzero;stroke:none"
             id="path434" /></g><g
           id="g436"><g
             id="g438" /><g
             id="g450"><g
               clip-path="url(#clipPath442)"
               opacity="0.429993"
               id="g448"><g
                 transform="translate(1950.7538,1847.7018)"
                 id="g446"><path
                   d="m 0,0 v -223.443 c 0,-41.432 33.928,-75.359 75.399,-75.359 h 411.482 c 41.392,0 75.319,33.927 75.319,75.359 V 0 c 0,41.472 -33.927,75.319 -75.319,75.319 H 75.399 C 50.971,75.319 29.178,63.584 15.367,45.463 5.748,32.81 0,17.044 0,0"
                   style="fill:#ffffff;fill-opacity:1;fill-rule:nonzero;stroke:none"
                   id="path444" /></g></g></g></g><g
           id="g452"><g
             id="g454" /><g
             id="g466"><g
               clip-path="url(#clipPath458)"
               opacity="0.350006"
               id="g464"><g
                 transform="translate(1950.7538,1744.1229)"
                 id="g462"><path
                   d="m 0,0 v -119.864 c 0,-41.432 33.928,-75.359 75.399,-75.359 h 411.482 c 41.392,0 75.319,33.927 75.319,75.359 V 51.211 C 481.612,19.159 519.719,-122.317 360.619,-112.977 231.534,-105.393 212.267,-1.357 212.267,-1.357 H 58.675 c 0,0 0.423,-67.054 -24.644,-67.493 C 14.433,-69.169 6.067,-39.276 0,0"
                   style="fill:#371a45;fill-opacity:1;fill-rule:nonzero;stroke:none"
                   id="path460" /></g></g></g></g><g
           id="g468"
           transform="translate(2026.1106,1907.7957)"><path
             d="M 0,0 C -33.135,0 -60.088,-26.956 -60.088,-60.088 V -283.55 c 0,-33.132 26.953,-60.088 60.088,-60.088 h 411.494 c 33.135,0 60.088,26.956 60.088,60.088 V -60.088 C 471.582,-26.956 444.629,0 411.494,0 Z M 411.494,-374.155 H 0 c -49.961,0 -90.605,40.644 -90.605,90.605 v 223.462 c 0,49.961 40.644,90.606 90.605,90.606 h 411.494 c 49.961,0 90.606,-40.645 90.606,-90.606 V -283.55 c 0,-49.961 -40.645,-90.605 -90.606,-90.605"
             style="fill:#371a45;fill-opacity:1;fill-rule:nonzero;stroke:none"
             id="path470" /></g><g
           id="g472"
           transform="translate(2021.1034,1735.9773)"><path
             d="m 0,0 c 0,-35.887 29.092,-64.979 64.979,-64.979 35.887,0 64.98,29.092 64.98,64.979 0,35.887 -29.093,64.979 -64.98,64.979 C 29.092,64.979 0,35.887 0,0"
             style="fill:#b9189b;fill-opacity:1;fill-rule:nonzero;stroke:none"
             id="path474" /></g><g
           id="g476"
           transform="translate(2021.094,1735.9594)"><path
             d="m 0,0 c 0,-3.528 0.269,-6.979 0.844,-10.353 4.946,30.981 31.786,54.639 64.147,54.639 32.362,0 59.202,-23.658 64.147,-54.639 0.576,3.374 0.844,6.825 0.844,10.353 0,35.888 -29.102,64.991 -64.991,64.991 C 29.103,64.991 0,35.888 0,0"
             style="fill:#ffffff;fill-opacity:1;fill-rule:nonzero;stroke:none"
             id="path478" /></g><g
           id="g480"><g
             id="g482" /><g
             id="g494"><g
               clip-path="url(#clipPath486)"
               opacity="0.350006"
               id="g492"><g
                 transform="translate(2021.1226,1735.9904)"
                 id="g490"><path
                   d="m 0,0 c 0,-35.883 29.085,-64.968 64.969,-64.968 35.882,0 64.968,29.085 64.968,64.968 0,8.302 -1.561,16.214 -4.458,23.513 -9.361,-24.237 -32.93,-41.399 -60.51,-41.399 -27.582,0 -51.151,17.162 -60.512,41.399 C 1.56,16.214 0,8.302 0,0"
                   style="fill:#371a45;fill-opacity:1;fill-rule:nonzero;stroke:none"
                   id="path488" /></g></g></g></g><g
           id="g496"
           transform="translate(2086.0813,1789.512)"><path
             d="m 0,0 c -29.521,0 -53.535,-24.016 -53.535,-53.535 0,-29.519 24.014,-53.533 53.535,-53.533 29.521,0 53.535,24.014 53.535,53.533 C 53.535,-24.016 29.521,0 0,0 m 0,-129.958 c -42.139,0 -76.426,34.284 -76.426,76.423 0,42.141 34.287,76.426 76.426,76.426 42.139,0 76.426,-34.285 76.426,-76.426 0,-42.139 -34.287,-76.423 -76.426,-76.423"
             style="fill:#371a45;fill-opacity:1;fill-rule:nonzero;stroke:none"
             id="path498" /></g><g
           id="g500"
           transform="translate(2270.2268,1533.6403)"><path
             d="m 0,0 c -8.428,0 -15.259,6.831 -15.259,15.259 v 129.717 c 0,23.31 11.118,45.595 29.741,59.614 l 34.971,26.331 c 11.006,8.283 17.578,21.455 17.578,35.229 v 123.264 c 0,8.428 6.831,15.259 15.259,15.259 8.428,0 15.259,-6.831 15.259,-15.259 V 266.15 c 0,-23.311 -11.118,-45.593 -29.741,-59.612 L 32.837,180.208 C 21.831,171.924 15.259,158.753 15.259,144.976 V 15.259 C 15.259,6.831 8.428,0 0,0"
             style="fill:#371a45;fill-opacity:1;fill-rule:nonzero;stroke:none"
             id="path502" /></g><g
           id="g504"
           transform="translate(2770.9783,2218.6875)"><path
             d="m 0,0 c 36.013,-149.462 186.794,-135.535 228.301,-125.433 86.564,21.083 116.265,102.661 116.265,102.661 l -69.82,92.278 -31.044,49.935 -37.085,11.149 C 177.478,183.696 115.41,243.926 79.768,222.677 79.768,222.677 -31.051,128.831 0,0"
             style="fill:#ffffff;fill-opacity:1;fill-rule:nonzero;stroke:none"
             id="path506" /></g><g
           id="g508"><g
             id="g510" /><g
             id="g522"><g
               clip-path="url(#clipPath514)"
               opacity="0.350006"
               id="g520"><g
                 transform="translate(3128.4021,2244.1641)"
                 id="g518"><path
                   d="m 0,0 c 0,-46.567 -60.998,-88.817 -192.312,-73.51 -46.255,5.392 -84.318,37.75 -84.318,84.318 0,46.567 37.75,84.318 84.318,84.318 C -145.745,95.126 0,46.568 0,0"
                   style="fill:#371a45;fill-opacity:1;fill-rule:nonzero;stroke:none"
                   id="path516" /></g></g></g></g><g
           id="g524"
           transform="translate(3123.769,2394.8652)"><path
             d="m 0,0 c -34.477,-34.604 -64.659,-60.11 -64.659,-60.11 l -96.756,-99.008 -65.296,159.458 c 0,0 -0.383,32.181 2.126,74.777 4.888,84.341 20.957,209.451 73.076,206.22 93.736,-5.824 31.713,-252.685 31.713,-252.685 0,0 149.639,199.504 209.578,142.837 C 124.854,138.33 56.624,56.88 0,0"
             style="fill:#ffffff;fill-opacity:1;fill-rule:nonzero;stroke:none"
             id="path526" /></g><g
           id="g528"><g
             id="g530" /><g
             id="g542"><g
               clip-path="url(#clipPath534)"
               opacity="0.350006"
               id="g540"><g
                 transform="translate(3123.769,2394.8652)"
                 id="g538"><path
                   d="m 0,0 c -34.477,-34.604 -64.659,-60.11 -64.659,-60.11 l -96.756,-99.008 -65.296,159.458 c 0,0 -0.383,32.181 2.126,74.777 25.123,-19.853 71.986,-55.905 88.38,-77.378 C -107.969,-39.244 -37.835,7.312 0,0"
                   style="fill:#371a45;fill-opacity:1;fill-rule:nonzero;stroke:none"
                   id="path536" /></g></g></g></g><g
           id="g544"
           transform="translate(2912.2922,2398.2888)"><path
             d="m 0,0 55.381,-135.281 80.527,82.425 c 0.337,0.346 0.694,0.676 1.065,0.988 60.649,51.282 157.348,149.705 158.618,195.491 0.215,7.595 -2.456,11.118 -4.805,13.337 -4.902,4.637 -10.781,6.492 -18.467,5.838 C 221.235,158.457 133.408,55.396 103.877,16.05 99.512,10.232 91.665,8.318 85.103,11.436 c -6.558,3.127 -10,10.441 -8.233,17.487 11.807,47.034 35.547,178.526 4.068,221.57 -5.66,7.739 -12.623,11.614 -21.915,12.19 -2.988,0.195 -7.68,-0.21 -13.54,-5.779 C 6.855,220.198 -0.415,61.824 0,0 m 50.059,-177.82 c -0.972,0 -1.949,0.093 -2.92,0.283 -5.044,0.982 -9.253,4.439 -11.201,9.195 L -29.355,-8.848 c -0.728,1.783 -1.114,3.684 -1.138,5.611 -0.264,23.293 -0.952,229.128 54.946,282.26 10.591,10.061 23.262,14.925 36.465,14.119 18.257,-1.135 33.701,-9.656 44.658,-24.643 29.937,-40.948 22.94,-126.68 13.291,-185.957 40.025,45.524 102.163,106.518 150.86,110.664 16.25,1.394 30.83,-3.479 42.026,-14.07 9.79,-9.256 14.751,-21.831 14.346,-36.365 C 324.048,69.124 176.821,-58.093 157.231,-74.7 l -96.259,-98.525 c -2.896,-2.966 -6.846,-4.595 -10.913,-4.595"
             style="fill:#371a45;fill-opacity:1;fill-rule:nonzero;stroke:none"
             id="path546" /></g><g
           id="g548"
           transform="translate(3133.2488,2213.1736)"><path
             d="m 0,0 c -22.957,-37.324 -120.434,-54.754 -156.61,-26.697 -30.778,23.891 -0.043,54.329 8.714,62.066 1.36,1.233 2.211,1.871 2.211,1.871 0,0 -37.452,11.478 -43.999,43.02 -0.426,2.041 -0.722,4.167 -0.85,6.42 -2.296,36.389 94.885,67.805 139.01,60.705 32.989,-5.313 45.572,-18.747 48.675,-33.116 3.316,-15.304 -4.123,-31.67 -9.097,-40.427 -2.295,-3.997 -4.038,-6.377 -4.038,-6.377 0,0 34.39,-37.58 15.984,-67.465"
             style="fill:#ffffff;fill-opacity:1;fill-rule:nonzero;stroke:none"
             id="path550" /></g><g
           id="g552"><g
             id="g554" /><g
             id="g566"><g
               clip-path="url(#clipPath558)"
               opacity="0.350006"
               id="g564"><g
                 transform="translate(3121.303,2287.0151)"
                 id="g562"><path
                   d="m 0,0 c -26.059,-13.348 -78.305,-36.049 -135.95,-38.472 1.36,1.232 2.211,1.87 2.211,1.87 0,0 -37.452,11.478 -43.999,43.021 C -143.176,-1.148 -47.697,-15.559 9.097,40.428 12.413,25.124 4.974,8.757 0,0"
                   style="fill:#371a45;fill-opacity:1;fill-rule:nonzero;stroke:none"
                   id="path560" /></g></g></g></g><g
           id="g568"><g
             id="g570" /><g
             id="g582"><g
               clip-path="url(#clipPath574)"
               opacity="0.350006"
               id="g580"><g
                 transform="translate(3133.2488,2213.1736)"
                 id="g578"><path
                   d="m 0,0 c -22.957,-37.324 -120.434,-54.754 -156.61,-26.697 -15.135,11.733 -15.389,25.039 -10.713,36.475 1.657,-1.828 3.614,-3.656 5.908,-5.442 36.134,-28.057 133.613,-10.628 156.568,26.654 2.381,3.869 3.911,7.865 4.677,11.904 C 5.569,30.098 8.714,14.199 0,0"
                   style="fill:#371a45;fill-opacity:1;fill-rule:nonzero;stroke:none"
                   id="path576" /></g></g></g></g><g
           id="g584"
           transform="translate(3067.4973,2346.343)"><path
             d="m 0,0 c -31.167,0 -80.361,-14.063 -102.021,-33.745 -4.966,-4.512 -7.706,-8.811 -7.515,-11.795 1.611,-25.256 33.808,-35.717 34.136,-35.82 5.395,-1.706 9.443,-6.272 10.449,-11.846 1.006,-5.571 -1.118,-11.254 -5.581,-14.743 -6.016,-4.771 -18.506,-17.945 -18.452,-28.025 0.014,-2.6 0.805,-6.655 7.495,-11.843 13.203,-10.242 42.363,-13.435 72.573,-7.95 28.853,5.237 53.643,17.527 61.68,30.581 11.914,19.346 -14.024,48.899 -14.287,49.192 -4.864,5.369 -5.313,13.448 -1.031,19.29 4.126,5.727 14.834,25.029 9.61,37.615 C 42.437,-7.947 25.342,-3.013 11.816,-0.837 8.306,-0.271 4.326,0 0,0 m -37.876,-189.016 c -25.752,0 -47.881,5.889 -62.314,17.082 -15.928,12.351 -19.292,26.358 -19.312,35.931 -0.029,13.837 6.753,26.267 13.926,35.534 -14.99,9.387 -32.7,26.067 -34.419,52.986 -0.562,8.828 2.007,22.295 17.451,36.326 32.549,29.57 102.798,46.294 139.204,40.451 30.923,-4.975 50.654,-17.373 58.653,-36.843 8.852,-21.56 -0.04,-44.306 -6.988,-57.124 10.938,-15.425 28.33,-47.441 10.425,-76.516 -12.886,-20.923 -43.623,-37.6 -82.217,-44.604 -11.914,-2.164 -23.491,-3.223 -34.409,-3.223"
             style="fill:#371a45;fill-opacity:1;fill-rule:nonzero;stroke:none"
             id="path586" /></g><g
           id="g588"
           transform="translate(2999.7922,2234.7976)"><path
             d="m 0,0 c -4.316,0 -8.691,0.122 -13.12,0.383 -8.413,0.493 -14.834,7.715 -14.341,16.126 0.498,8.415 7.725,14.929 16.128,14.338 65.566,-3.835 120.518,27.813 121.06,28.135 7.275,4.25 16.616,1.826 20.878,-5.427 4.263,-7.256 1.861,-16.59 -5.39,-20.869 C 122.822,31.274 68.984,0 0,0"
             style="fill:#371a45;fill-opacity:1;fill-rule:nonzero;stroke:none"
             id="path590" /></g><g
           id="g592"
           transform="translate(2850.7544,2441.3503)"><path
             d="M 0,0 C 47.313,28.212 141.088,-87.025 142.812,-138.741 144.128,-178.22 97.37,-211.156 41.491,-160.782 -15.125,-109.745 -74.299,-44.304 0,0"
             style="fill:#ffffff;fill-opacity:1;fill-rule:nonzero;stroke:none"
             id="path594" /></g><g
           id="g596"
           transform="translate(3115.5503,2195.895)"><path
             d="m 0,0 c 0,0 -29.718,-81.553 -116.252,-102.632 -41.517,-10.114 -192.303,-24.045 -228.325,125.434 -31.045,128.822 79.781,222.653 79.781,222.653 47.313,28.212 141.088,-87.024 142.812,-138.74 1.316,-39.48 -57.358,-61.866 -106.502,7.602 0,0 25.891,-63.101 -29.387,-106.152 l 130.252,-75.025 98.498,19.226 z"
             style="fill:#ffffff;fill-opacity:1;fill-rule:nonzero;stroke:none"
             id="path598" /></g><g
           id="g600"
           transform="translate(2883.4124,2234.3015)"><path
             d="M 0,0 -2.594,1.488 C -0.638,3.018 1.148,4.506 2.848,6.079 1.998,4.081 1.063,2.041 0,0"
             style="fill:#ffffff;fill-opacity:1;fill-rule:nonzero;stroke:none"
             id="path602" /></g><g
           id="g604"><g
             id="g606" /><g
             id="g618"><g
               clip-path="url(#clipPath610)"
               opacity="0.350006"
               id="g616"><g
                 transform="translate(2889.1082,2321.9165)"
                 id="g614"><path
                   d="M 0,0 C -6.929,25.507 66.333,-39.429 104.449,-22.743 102.622,-54.797 60.408,-73.417 18.28,-35.029 15.771,-14.496 0,0 0,0"
                   style="fill:#371a45;fill-opacity:1;fill-rule:nonzero;stroke:none"
                   id="path612" /></g></g></g></g><g
           id="g620"><g
             id="g622" /><g
             id="g634"><g
               clip-path="url(#clipPath626)"
               opacity="0.350006"
               id="g632"><g
                 transform="translate(3069.822,2145.0288)"
                 id="g630"><path
                   d="m 0,0 16.622,3.231 c -18.365,-21.851 -46.507,-45.104 -87.147,-55.009 -41.533,-10.118 -192.319,-24.019 -228.327,125.449 -21.127,87.658 23.466,159.161 54.118,195.848 -24.955,-39.79 -47.103,-97.265 -30.991,-164.135 C -239.719,-44.084 -88.933,-30.183 -47.399,-20.065 -29.162,-15.602 -13.433,-8.502 0,0"
                   style="fill:#371a45;fill-opacity:1;fill-rule:nonzero;stroke:none"
                   id="path628" /></g></g></g></g><g
           id="g636"
           transform="translate(3115.5212,2195.8293)"><path
             d="m 0,0 c -0.297,-0.808 -2.678,-7.057 -7.652,-16.197 l -2.55,-0.51 z"
             style="fill:#ffffff;fill-opacity:1;fill-rule:nonzero;stroke:none"
             id="path638" /></g><g
           id="g640"
           transform="translate(3109.5701,2179.9724)"><path
             d="m 0,0 c -1.361,-1.615 -2.764,-3.273 -4.251,-4.888 0.892,1.572 1.742,3.103 2.55,4.548 z"
             style="fill:#ffffff;fill-opacity:1;fill-rule:nonzero;stroke:none"
             id="path642" /></g><g
           id="g644"
           transform="translate(2831.4866,2115.0857)"><path
             d="m 0,0 c -8.562,1.66 -16.321,5.344 -23.411,9.993 -7.087,4.663 -13.479,10.41 -18.894,16.924 -11.101,12.866 -19.299,27.998 -24.848,43.686 -10.638,31.206 -16.297,64.534 -13.177,97.661 2.896,33.071 13.809,64.822 29.476,93.23 7.841,14.234 16.845,27.732 26.826,40.427 4.983,6.358 10.197,12.525 15.686,18.484 2.759,2.971 5.544,5.916 8.454,8.792 2.974,2.947 5.699,5.583 9.295,8.713 0.559,0.484 1.145,0.913 1.755,1.287 l 0.291,0.173 c 9.834,5.933 21.797,7.373 31.652,5.977 10.018,-1.336 18.628,-4.751 26.438,-8.697 7.84,-3.964 14.781,-8.706 21.363,-13.711 6.604,-4.995 12.7,-10.383 18.493,-15.996 11.629,-11.198 21.949,-23.381 31.429,-36.215 9.362,-12.93 17.868,-26.514 24.863,-41.395 3.447,-7.487 6.56,-15.268 8.838,-23.813 1.123,-4.282 2.068,-8.733 2.492,-13.625 l 0.293,-3.667 c 0,-1.292 -0.087,-2.645 -0.151,-3.965 -0.246,-2.657 -0.12,-5.318 -0.835,-7.947 -1.763,-10.701 -7.912,-20.723 -15.976,-27.825 -8.111,-7.082 -18.294,-11.682 -28.367,-12.759 -2.539,-0.556 -5.012,-0.52 -7.503,-0.534 -2.465,0.063 -5.039,-0.186 -7.407,0.234 -4.763,0.735 -9.665,1.294 -14.016,2.942 -2.229,0.72 -4.49,1.409 -6.67,2.212 l -6.16,2.947 c -4.243,1.841 -7.858,4.353 -11.55,6.797 -14.573,10.002 -25.813,22.732 -35.559,35.983 l 26.575,14.605 c 1.345,-3.501 2.053,-5.886 2.854,-8.75 0.766,-2.747 1.406,-5.498 1.943,-8.254 1.135,-5.513 1.773,-11.099 2.18,-16.724 0.559,-11.262 -0.153,-22.769 -2.531,-34.199 -0.974,-5.767 -3.211,-11.287 -5.484,-16.682 -1.372,-2.603 -2.905,-5.125 -4.37,-7.659 -1.455,-2.554 -3.542,-4.661 -5.322,-6.951 -7.481,-8.928 -17.844,-15.102 -29.649,-16.738 -3.186,-0.442 -6.128,1.785 -6.569,4.971 -0.101,0.727 -0.061,1.443 0.095,2.116 l 0.224,0.938 c 1.368,5.791 3.658,9.917 5.367,14.245 1.689,4.307 3.813,7.935 5.385,11.763 3.672,7.315 6.739,14.429 9.297,22.061 2.625,7.592 3.714,15.942 3.093,24.331 -0.322,4.192 -0.781,8.401 -1.64,12.536 -0.401,2.078 -0.874,4.119 -1.433,6.116 -0.498,1.88 -1.267,4.197 -1.675,5.295 l -0.081,0.22 c -2.934,7.92 1.106,16.721 9.026,19.656 6.541,2.424 13.687,0.076 17.63,-5.271 8.156,-11.077 17.339,-21.221 27.78,-28.357 10.308,-7.031 22.088,-11.174 31.944,-9.624 5.034,0.413 9.177,2.693 12.407,5.422 3.123,2.847 5.591,6.382 6.199,10.735 0.405,1.004 0.119,2.222 0.302,3.311 l 0.152,1.697 -0.188,1.984 c -0.21,2.644 -0.813,5.635 -1.619,8.66 -1.614,6.082 -4.094,12.42 -6.977,18.665 -11.946,25.039 -29.659,48.877 -49.837,68.562 -10.102,9.79 -21.189,18.611 -32.563,24.494 -5.65,2.886 -11.385,4.947 -16.389,5.586 -5.066,0.635 -8.902,-0.049 -12.163,-1.914 l 2.045,1.46 c -2.199,-1.914 -5.026,-4.595 -7.5,-7.063 -2.556,-2.524 -5.051,-5.163 -7.519,-7.822 -4.922,-5.344 -9.636,-10.918 -14.131,-16.653 -9.011,-11.46 -17.109,-23.621 -24.097,-36.301 -13.972,-25.347 -23.354,-53.001 -25.818,-81.262 -2.585,-28.133 1.59,-57.078 12.984,-83.191 5.544,-12.962 11.96,-25.174 19.311,-36.905 C -10.166,33.684 -2.205,22.527 5.862,8.313 L 5.911,8.225 C 7.432,5.547 6.492,2.144 3.813,0.625 2.612,-0.056 1.257,-0.242 0,0"
             style="fill:#371a45;fill-opacity:1;fill-rule:nonzero;stroke:none"
             id="path646" /></g><g
           id="g648"
           transform="translate(3129.8875,2190.6716)"><path
             d="m 0,0 c -1.558,-4.204 -2.825,-7.327 -4.473,-10.73 -1.582,-3.325 -3.252,-6.562 -5.048,-9.722 -1.773,-3.176 -3.753,-6.206 -5.628,-9.306 -2.017,-3.006 -4.138,-5.943 -6.226,-8.889 l -6.716,-8.521 -7.305,-8.03 c -5.08,-5.154 -10.207,-10.263 -15.986,-14.66 -5.498,-4.685 -11.594,-8.665 -17.595,-12.618 -6.401,-3.408 -12.483,-7.221 -19.204,-9.848 -12.891,-6.182 -27.605,-8.728 -42.107,-6.319 -0.752,0.125 -1.26,0.835 -1.135,1.587 0.056,0.33 0.222,0.613 0.459,0.816 l 0.075,0.066 c 11.236,9.704 22.234,15.442 32.71,22.553 5.428,3.123 10.159,7.339 15.127,11.014 4.541,4.314 9.439,8.068 13.589,12.722 2.161,2.219 4.346,4.387 6.287,6.821 1.999,2.366 4.145,4.575 6.023,7.039 l 5.625,7.363 5.332,7.578 c 3.322,5.208 6.64,10.408 9.577,15.801 1.446,2.705 2.972,5.359 4.28,8.083 1.316,2.605 2.778,5.613 3.665,7.647 l 0.407,0.935 c 3.362,7.72 12.342,11.25 20.061,7.89 C -0.764,16.03 2.771,7.52 0,0"
             style="fill:#371a45;fill-opacity:1;fill-rule:nonzero;stroke:none"
             id="path650" /></g><g
           id="g652"
           transform="translate(2878.5178,1812.4221)"><path
             d="m 0,0 c -28.267,0 -124.312,7.539 -155.156,107.234 -44.385,143.457 20.727,249.177 23.525,253.606 3.369,5.351 10.444,6.948 15.781,3.577 5.342,-3.37 6.949,-10.428 3.584,-15.772 -0.752,-1.206 -62.138,-101.76 -21.025,-234.646 C -102.676,15.039 1.489,22.664 5.898,23.04 12.241,23.53 17.734,18.909 18.276,12.622 18.818,6.333 14.18,0.793 7.891,0.239 7.705,0.222 4.849,0 0,0"
             style="fill:#371a45;fill-opacity:1;fill-rule:nonzero;stroke:none"
             id="path654" /></g><g
           id="g656"
           transform="translate(1781.3352,1780.425)"><path
             d="m 0,0 c -0.996,0 -2.012,0.132 -3.022,0.408 -116.285,31.775 -145.63,126.093 -146.822,130.092 -1.806,6.058 1.641,12.432 7.696,14.236 6.054,1.802 12.417,-1.631 14.233,-7.675 1.104,-3.633 27.393,-86.285 130.928,-114.573 C 9.107,20.82 12.7,14.529 11.035,8.43 9.644,3.345 5.034,0 0,0"
             style="fill:#371a45;fill-opacity:1;fill-rule:nonzero;stroke:none"
             id="path658" /></g><g
           id="g660"
           transform="translate(1272.058,2601.1428)"><path
             d="m 0,0 c -3.11,0 -6.24,0.803 -9.067,2.456 l -112.916,65.925 c -6.376,3.721 -13.608,5.689 -20.913,5.689 -3.545,0 -7.065,-0.464 -10.473,-1.38 -21.948,-5.891 -44.668,-8.977 -67.53,-9.172 l -2.319,-0.01 c -146.138,0 -266.914,118.824 -269.223,264.873 -1.153,72.771 26.308,141.39 77.314,193.213 51.02,51.831 119.165,80.376 191.885,80.376 1.767,0 3.525,-0.014 5.302,-0.049 C -71.27,599.097 47.124,477.388 45.981,330.608 45.469,264.695 20.854,201.44 -23.33,152.498 -35.806,138.677 -37.813,118.462 -28.316,102.197 L 15.547,27.068 C 19.668,20.007 18.511,11.052 12.729,5.271 9.263,1.804 4.653,0 0,0"
             style="fill:#b9189b;fill-opacity:1;fill-rule:nonzero;stroke:none"
             id="path662" /></g><g
           id="g664"
           transform="translate(1048.8157,3221.1086)"><path
             d="m 0,0 h -0.005 c -77.578,-0.002 -150.278,-30.459 -204.707,-85.757 -54.419,-55.285 -83.711,-128.484 -82.48,-206.111 2.465,-155.818 131.313,-282.585 287.216,-282.585 l 2.481,0.012 c 24.38,0.208 48.613,3.501 72.031,9.785 1.89,0.508 3.843,0.764 5.811,0.764 4.121,0 8.213,-1.118 11.841,-3.234 l 112.915,-65.926 c 5.654,-3.301 11.914,-4.909 18.134,-4.909 9.312,0 18.526,3.608 25.459,10.542 11.563,11.565 13.877,29.472 5.63,43.596 l -43.862,75.129 c -5.522,9.465 -4.4,21.189 2.803,29.168 47.143,52.216 73.403,119.704 73.955,190.026 C 288.438,-132.91 162.124,-3.066 5.649,-0.054 3.76,-0.017 1.88,0 0,0 m 0,-35.989 c 1.65,0 3.296,-0.017 4.956,-0.049 136.851,-2.634 247.339,-116.308 246.274,-253.181 -0.498,-63.923 -24.897,-122.126 -64.677,-166.191 -17.73,-19.641 -20.508,-48.579 -7.168,-71.431 l 43.862,-75.129 -112.915,65.925 c -9.175,5.357 -19.541,8.145 -29.985,8.145 -5.074,0 -10.161,-0.657 -15.142,-1.995 -20.117,-5.4 -41.235,-8.372 -63.012,-8.557 -0.723,-0.007 -1.446,-0.01 -2.169,-0.01 -136.318,0 -249.067,110.613 -251.23,247.163 -2.227,140.615 111.099,255.303 251.206,255.31"
             style="fill:#371a45;fill-opacity:1;fill-rule:nonzero;stroke:none"
             id="path666" /></g><g
           id="g668"><g
             id="g670" /><g
             id="g682"><g
               clip-path="url(#clipPath674)"
               opacity="0.5"
               id="g680"><g
                 transform="translate(1066.9628,3165.2844)"
                 id="g678"><path
                   d="m 0,0 c -142.384,2.744 -258.415,-112.987 -256.16,-255.262 0.718,-45.377 13.71,-87.853 35.659,-124.394 -29.899,40.585 -47.999,90.343 -48.851,144.181 -2.254,142.275 113.776,258.006 256.161,255.262 89.274,-1.72 167.3,-50.708 210.488,-122.545 C 152.413,-41.851 80.814,-1.555 0,0"
                   style="fill:#ffffff;fill-opacity:1;fill-rule:nonzero;stroke:none"
                   id="path676" /></g></g></g></g><g
           id="g684"
           transform="translate(1011.4323,2735.4199)"><path
             d="m 0,0 c 21.781,0.187 42.895,3.159 63.015,8.56 2.13,0.572 5.331,0.969 9.26,1.229 37.43,2.475 70.899,22.584 93.725,52.353 5.622,7.332 12.031,13.888 18.363,20.903 39.778,44.064 64.178,102.266 64.675,166.191 0.351,45.139 -11.491,87.715 -32.349,124.658 C 261.576,327.992 289.147,265.158 288.612,196.47 288.118,132.89 263.979,74.972 224.58,30.994 206.763,11.107 203.053,-17.662 216.516,-40.721 l 44.116,-75.561 -112.916,65.925 c -13.727,8.015 -30.069,10.173 -45.426,6.071 -20.03,-5.35 -41.043,-8.294 -62.716,-8.48 C -54.922,-53.577 -138.351,-1.205 -181.889,76.285 -135.616,28.811 -70.951,-0.609 0,0"
             style="fill:#841474;fill-opacity:1;fill-rule:nonzero;stroke:none"
             id="path686" /></g><g
           id="g688"
           transform="translate(997.1661,2899.1858)"><path
             d="M 0,0 -52.026,28.912 -49.711,45.276 10.582,74.187 8.598,60.55 -40.232,37.093 1.984,13.637 Z"
             style="fill:#fcf7fb;fill-opacity:1;fill-rule:nonzero;stroke:none"
             id="path690" /></g><g
           id="g692"
           transform="translate(1008.3179,2876.2759)"><path
             d="M 0,0 59.52,109.098 H 73.85 L 14.329,0 Z"
             style="fill:#fcf7fb;fill-opacity:1;fill-rule:nonzero;stroke:none"
             id="path694" /></g><g
           id="g696"
           transform="translate(1089.7717,2899.1858)"><path
             d="M 0,0 1.874,13.092 51.916,37.093 8.708,61.095 10.581,74.187 62.717,45.276 60.402,28.912 Z"
             style="fill:#fcf7fb;fill-opacity:1;fill-rule:nonzero;stroke:none"
             id="path698" /></g></g></g></g></svg>
